<svg width="7" height="12" viewBox="0 0 7 12" fill="none" xmlns="http://www.w3.org/2000/svg">
<path d="M0.454844 11.6711C0.297891 11.5065 0.20972 11.2832 0.20972 11.0504C0.20972 10.8175 0.297891 10.5942 0.454844 10.4296L4.59903 6.08324L0.454844 1.7369C0.30234 1.5713 0.217954 1.3495 0.219862 1.11928C0.221769 0.889055 0.309817 0.66883 0.465043 0.506032C0.620268 0.343235 0.830251 0.250892 1.04976 0.248892C1.26928 0.246891 1.48076 0.335394 1.63866 0.495337L6.37475 5.46246C6.5317 5.62712 6.61987 5.85041 6.61987 6.08324C6.61987 6.31607 6.5317 6.53936 6.37475 6.70402L1.63866 11.6711C1.48166 11.8358 1.26875 11.9282 1.04675 11.9282C0.824752 11.9282 0.611844 11.8358 0.454844 11.6711Z" fill="#167CC8"/>
</svg>
