<svg width="7" height="12" viewBox="0 0 7 12" fill="none" xmlns="http://www.w3.org/2000/svg">
<path d="M6.5454 11.6711C6.70235 11.5065 6.79052 11.2832 6.79052 11.0504C6.79052 10.8175 6.70235 10.5942 6.5454 10.4296L2.40122 6.08324L6.5454 1.7369C6.6979 1.5713 6.78229 1.3495 6.78038 1.11928C6.77848 0.889055 6.69043 0.66883 6.5352 0.506032C6.37998 0.343235 6.16999 0.250892 5.95048 0.248892C5.73097 0.246891 5.51949 0.335394 5.36159 0.495337L0.625494 5.46246C0.468542 5.62712 0.380371 5.85041 0.380371 6.08324C0.380371 6.31607 0.468542 6.53936 0.625494 6.70402L5.36159 11.6711C5.51859 11.8358 5.7315 11.9282 5.95349 11.9282C6.17549 11.9282 6.3884 11.8358 6.5454 11.6711Z" fill="#167CC8"/>
</svg>
