<svg width="20" height="12" viewBox="0 0 20 12" fill="#167CC8" xmlns="http://www.w3.org/2000/svg">
<path d="M19.5598 1.25952C19.2778 0.990747 18.8954 0.839762 18.4967 0.839762C18.098 0.839762 17.7157 0.990747 17.4337 1.25952L9.99092 8.35611L2.54815 1.25952C2.26457 0.998364 1.88476 0.85386 1.49052 0.857126C1.09629 0.860393 0.719168 1.01117 0.44039 1.27698C0.161612 1.54279 0.00348282 1.90237 5.72205e-05 2.27827C-0.00336838 2.65417 0.148186 3.01631 0.422075 3.28671L8.92788 11.3969C9.20985 11.6657 9.59222 11.8167 9.99092 11.8167C10.3896 11.8167 10.772 11.6657 11.054 11.3969L19.5598 3.28671C19.8416 3.01785 20 2.65326 20 2.27311C20 1.89296 19.8416 1.52837 19.5598 1.25952Z" fill="#167CC8"/>
</svg>
