<svg width="31" height="17" viewBox="0 0 17 31" fill="#167CC8" xmlns="http://www.w3.org/2000/svg">
<path d="M16.261 29.9531C16.6665 29.5277 16.8943 28.9508 16.8943 28.3494C16.8943 27.7479 16.6665 27.1711 16.261 26.7457L5.55523 15.5176L16.261 4.2896C16.655 3.86179 16.873 3.28882 16.8681 2.69408C16.8632 2.09934 16.6357 1.53042 16.2347 1.10986C15.8337 0.689302 15.2912 0.45075 14.7242 0.445583C14.1571 0.440414 13.6108 0.669046 13.2029 1.08223L0.967952 13.914C0.562491 14.3393 0.334716 14.9162 0.334716 15.5176C0.334716 16.1191 0.562491 16.696 0.967952 17.1213L13.2029 29.9531C13.6084 30.3783 14.1585 30.6172 14.732 30.6172C15.3054 30.6172 15.8555 30.3783 16.261 29.9531Z" fill="#167CC8"/>
</svg>
