<svg width="12" height="8" viewBox="0 0 12 8" fill="none" xmlns="http://www.w3.org/2000/svg">
<path d="M11.7359 0.958689C11.5667 0.797427 11.3373 0.706836 11.098 0.706836C10.8588 0.706836 10.6294 0.797427 10.4602 0.958689L5.99455 5.21665L1.52889 0.958689C1.35874 0.801998 1.13086 0.715295 0.894314 0.717255C0.657772 0.719214 0.4315 0.80968 0.264234 0.969167C0.0969667 1.12865 0.0020895 1.3444 3.43323e-05 1.56994C-0.00202179 1.79548 0.0889101 2.01277 0.253245 2.175L5.35673 7.04112C5.52591 7.20238 5.75533 7.29297 5.99455 7.29297C6.23377 7.29297 6.4632 7.20238 6.63238 7.04112L11.7359 2.175C11.905 2.01369 12 1.79494 12 1.56684C12 1.33875 11.905 1.12 11.7359 0.958689Z" fill="#167CC8"/>
</svg>
