<svg width="30" height="16" viewBox="0 0 17 31" fill="#167CC8" xmlns="http://www.w3.org/2000/svg">
<path d="M0.73871 29.9531C0.33325 29.5277 0.105475 28.9508 0.105475 28.3494C0.105475 27.7479 0.33325 27.1711 0.738711 26.7457L11.4445 15.5176L0.738712 4.2896C0.344741 3.86179 0.126745 3.28882 0.131673 2.69408C0.1366 2.09934 0.364059 1.53042 0.765057 1.10986C1.16606 0.689302 1.70851 0.45075 2.27559 0.445583C2.84267 0.440414 3.38899 0.669046 3.7969 1.08223L16.0318 13.914C16.4373 14.3393 16.665 14.9162 16.665 15.5176C16.665 16.1191 16.4373 16.696 16.0318 17.1213L3.7969 29.9531C3.39131 30.3783 2.8413 30.6172 2.2678 30.6172C1.69431 30.6172 1.14429 30.3783 0.73871 29.9531Z" fill="#167CC8"/>
</svg>
