<svg width="24" height="44" viewBox="0 0 24 44" fill="none" xmlns="http://www.w3.org/2000/svg">
<path d="M22.4598 20.4676H5.25583L12.772 12.9515C13.3727 12.3508 13.3727 11.3651 12.772 10.7644C12.6295 10.6216 12.4602 10.5083 12.2739 10.431C12.0876 10.3537 11.8879 10.314 11.6861 10.314C11.4844 10.314 11.2847 10.3537 11.0984 10.431C10.912 10.5083 10.7428 10.6216 10.6003 10.7644L0.450421 20.9143C0.30764 21.0568 0.194362 21.226 0.117073 21.4123C0.0397835 21.5987 0 21.7984 0 22.0001C0 22.2018 0.0397835 22.4016 0.117073 22.5879C0.194362 22.7742 0.30764 22.9435 0.450421 23.0859L10.6003 33.2358C10.7429 33.3784 10.9122 33.4915 11.0985 33.5687C11.2848 33.6459 11.4845 33.6856 11.6861 33.6856C11.8878 33.6856 12.0875 33.6459 12.2738 33.5687C12.4601 33.4915 12.6294 33.3784 12.772 33.2358C12.9146 33.0932 13.0277 32.924 13.1049 32.7376C13.182 32.5513 13.2217 32.3516 13.2217 32.15C13.2217 31.9483 13.182 31.7486 13.1049 31.5623C13.0277 31.376 12.9146 31.2067 12.772 31.0642L5.25583 23.548H22.4598C23.3069 23.548 24 22.8549 24 22.0078C24 21.1607 23.3069 20.4676 22.4598 20.4676Z" fill="#5F5F5F"/>
</svg>
