<svg width="21" height="20" viewBox="0 0 21 20" fill="none" xmlns="http://www.w3.org/2000/svg">
<path d="M7.94606 17.1953C7.788 17.1953 7.62994 17.1371 7.50516 17.0123C7.26391 16.7711 7.26391 16.3718 7.50516 16.1305L12.9291 10.7066C13.3284 10.3072 13.3284 9.65836 12.9291 9.25905L7.50516 3.83509C7.26391 3.59384 7.26391 3.19453 7.50516 2.95328C7.74641 2.71203 8.14572 2.71203 8.38697 2.95328L13.8109 8.37724C14.2352 8.80151 14.4764 9.37552 14.4764 9.9828C14.4764 10.5901 14.2435 11.1641 13.8109 11.5884L8.38697 17.0123C8.26218 17.1288 8.10412 17.1953 7.94606 17.1953Z" fill="#292D32"/>
</svg>
