<svg width="25" height="28" viewBox="0 0 25 28" fill="none" xmlns="http://www.w3.org/2000/svg">
<path d="M3.16667 27.2874C2.43333 27.2874 1.80578 27.0265 1.284 26.5047C0.762222 25.9829 0.500889 25.3549 0.5 24.6207V5.95406C0.5 5.22073 0.761333 4.59317 1.284 4.07139C1.80667 3.54962 2.43422 3.28828 3.16667 3.28739H4.5V0.620728H7.16667V3.28739H17.8333V0.620728H20.5V3.28739H21.8333C22.5667 3.28739 23.1947 3.54873 23.7173 4.07139C24.24 4.59406 24.5009 5.22162 24.5 5.95406V24.6207C24.5 25.3541 24.2391 25.9821 23.7173 26.5047C23.1956 27.0274 22.5676 27.2883 21.8333 27.2874H3.16667ZM3.16667 24.6207H21.8333V11.2874H3.16667V24.6207ZM3.16667 8.62073H21.8333V5.95406H3.16667V8.62073ZM5.83333 16.6207V13.9541H19.1667V16.6207H5.83333ZM5.83333 21.9541V19.2874H15.1667V21.9541H5.83333Z" fill="#167CC8"/>
</svg>
