<svg width="395" height="296" viewBox="0 0 395 296" fill="none" xmlns="http://www.w3.org/2000/svg">
<path d="M394.999 259.401H0.296875V259.599H394.999V259.401Z" fill="#EBEBEB"/>
<path d="M355.45 272.104H329.305V272.301H355.45V272.104Z" fill="#EBEBEB"/>
<path d="M261.762 274.25H254.902V274.447H261.762V274.25Z" fill="#EBEBEB"/>
<path d="M328.516 264.777H313.367V264.974H328.516V264.777Z" fill="#EBEBEB"/>
<path d="M75.8053 266.104H41.7109V266.301H75.8053V266.104Z" fill="#EBEBEB"/>
<path d="M87.8329 266.104H82.8359V266.301H87.8329V266.104Z" fill="#EBEBEB"/>
<path d="M178.03 269.435H104.078V269.632H178.03V269.435Z" fill="#EBEBEB"/>
<path d="M187.383 224.194H34.9566C33.7625 224.192 32.6181 223.716 31.7745 222.871C30.9308 222.026 30.457 220.88 30.457 219.686V5.41823C30.4674 4.23098 30.9458 3.09578 31.7883 2.2592C32.6308 1.42262 33.7693 0.952229 34.9566 0.950195H187.383C188.578 0.950195 189.725 1.42509 190.57 2.27041C191.415 3.11573 191.89 4.26223 191.89 5.4577V219.686C191.89 220.882 191.415 222.028 190.57 222.874C189.725 223.719 188.578 224.194 187.383 224.194ZM34.9566 1.10808C33.8149 1.11017 32.7206 1.56519 31.914 2.37328C31.1074 3.18136 30.6544 4.27647 30.6544 5.41823V219.686C30.6544 220.828 31.1074 221.923 31.914 222.731C32.7206 223.539 33.8149 223.994 34.9566 223.996H187.383C188.525 223.994 189.62 223.54 190.428 222.732C191.236 221.924 191.691 220.829 191.693 219.686V5.41823C191.691 4.27574 191.236 3.18065 190.428 2.37279C189.62 1.56494 188.525 1.11016 187.383 1.10808H34.9566Z" fill="#EBEBEB"/>
<path d="M358.145 224.194H205.711C204.516 224.192 203.371 223.716 202.526 222.871C201.681 222.026 201.205 220.881 201.203 219.686V5.41823C201.216 4.23026 201.696 3.09507 202.539 2.25871C203.383 1.42235 204.523 0.952207 205.711 0.950195H358.145C359.331 0.954304 360.467 1.42561 361.308 2.26197C362.149 3.09833 362.626 4.23234 362.636 5.41823V219.686C362.636 220.879 362.164 222.023 361.322 222.868C360.48 223.713 359.337 224.19 358.145 224.194ZM205.711 1.10808C204.568 1.11016 203.473 1.56494 202.665 2.37279C201.857 3.18065 201.403 4.27574 201.4 5.41823V219.686C201.403 220.829 201.857 221.924 202.665 222.732C203.473 223.54 204.568 223.994 205.711 223.996H358.145C359.287 223.994 360.382 223.54 361.19 222.732C361.998 221.924 362.453 220.829 362.455 219.686V5.41823C362.453 4.27574 361.998 3.18065 361.19 2.37279C360.382 1.56494 359.287 1.11016 358.145 1.10808H205.711Z" fill="#EBEBEB"/>
<path d="M280.473 131.257H260.375V139.807H280.473V131.257Z" fill="#C8E8FF"/>
<path d="M256.161 131.257H236.062V139.807H256.161V131.257Z" fill="#C8E8FF"/>
<path d="M231.84 131.257H211.742V139.807H231.84V131.257Z" fill="#C8E8FF"/>
<path d="M292.633 143.162H272.535V151.711H292.633V143.162Z" fill="#C8E8FF"/>
<path d="M268.313 143.162H248.215V151.711H268.313V143.162Z" fill="#C8E8FF"/>
<path d="M243.993 143.162H223.895V151.711H243.993V143.162Z" fill="#C8E8FF"/>
<path d="M219.672 143.162H199.574V151.711H219.672V143.162Z" fill="#C8E8FF"/>
<path d="M304.794 155.066H284.695V163.615H304.794V155.066Z" fill="#C8E8FF"/>
<path d="M330.305 179.663H310.207V188.212H330.305V179.663Z" fill="#C8E8FF"/>
<path d="M280.473 155.066H260.375V163.615H280.473V155.066Z" fill="#C8E8FF"/>
<path d="M256.161 155.066H236.062V163.615H256.161V155.066Z" fill="#C8E8FF"/>
<path d="M231.84 155.066H211.742V163.615H231.84V155.066Z" fill="#C8E8FF"/>
<path d="M207.512 155.066H187.414V163.615H207.512V155.066Z" fill="#C8E8FF"/>
<path d="M292.633 166.97H272.535V175.519H292.633V166.97Z" fill="#C8E8FF"/>
<path d="M268.313 166.97H248.215V175.519H268.313V166.97Z" fill="#C8E8FF"/>
<path d="M243.993 166.97H223.895V175.519H243.993V166.97Z" fill="#C8E8FF"/>
<path d="M219.672 166.97H199.574V175.519H219.672V166.97Z" fill="#C8E8FF"/>
<path d="M148.493 9.97314H128.395V18.5224H148.493V9.97314Z" fill="#C8E8FF"/>
<path d="M124.176 9.97314H104.078V18.5224H124.176V9.97314Z" fill="#C8E8FF"/>
<path d="M160.657 21.8774H140.559V30.4267H160.657V21.8774Z" fill="#C8E8FF"/>
<path d="M136.333 21.8774H116.234V30.4267H136.333V21.8774Z" fill="#C8E8FF"/>
<path d="M87.6998 21.8774H67.6016V30.4267H87.6998V21.8774Z" fill="#C8E8FF"/>
<path d="M63.3795 21.8774H43.2812V30.4267H63.3795V21.8774Z" fill="#C8E8FF"/>
<path d="M148.493 33.7817H128.395V42.331H148.493V33.7817Z" fill="#C8E8FF"/>
<path d="M124.176 33.7817H104.078V42.331H124.176V33.7817Z" fill="#C8E8FF"/>
<path d="M75.5318 33.7817H55.4336V42.331H75.5318V33.7817Z" fill="#C8E8FF"/>
<path d="M61.9029 73.8042H41.8047V82.3535H61.9029V73.8042Z" fill="#C8E8FF"/>
<path d="M86.2232 73.8042H66.125V82.3535H86.2232V73.8042Z" fill="#C8E8FF"/>
<path d="M74.067 61.8999H53.9688V70.4491H74.067V61.8999Z" fill="#C8E8FF"/>
<path d="M168.383 60.1553H148.285V68.7045H168.383V60.1553Z" fill="#C8E8FF"/>
<path d="M144.067 60.1553H123.969V68.7045H144.067V60.1553Z" fill="#C8E8FF"/>
<path d="M156.227 72.0591H136.129V80.6083H156.227V72.0591Z" fill="#C8E8FF"/>
<path d="M251.34 10.4863H231.242V19.0356H251.34V10.4863Z" fill="#C8E8FF"/>
<path d="M227.032 10.4863H206.934V19.0356H227.032V10.4863Z" fill="#C8E8FF"/>
<path d="M263.508 22.3901H243.41V30.9394H263.508V22.3901Z" fill="#C8E8FF"/>
<path d="M239.188 22.3901H219.09V30.9394H239.188V22.3901Z" fill="#C8E8FF"/>
<path d="M325.587 15.3564H305.488V23.9057H325.587V15.3564Z" fill="#C8E8FF"/>
<path d="M337.743 27.2607H317.645V35.81H337.743V27.2607Z" fill="#C8E8FF"/>
<path d="M332.95 129.591H312.852V138.141H332.95V129.591Z" fill="#C8E8FF"/>
<path d="M313.422 27.2607H293.324V35.81H313.422V27.2607Z" fill="#C8E8FF"/>
<path d="M214.868 22.3901H194.77V30.9394H214.868V22.3901Z" fill="#C8E8FF"/>
<path d="M275.669 34.2944H255.57V42.8437H275.669V34.2944Z" fill="#C8E8FF"/>
<path d="M251.34 34.2944H231.242V42.8437H251.34V34.2944Z" fill="#C8E8FF"/>
<path d="M227.032 34.2944H206.934V42.8437H227.032V34.2944Z" fill="#C8E8FF"/>
<path d="M263.508 46.1987H243.41V54.748H263.508V46.1987Z" fill="#C8E8FF"/>
<path d="M239.188 46.1987H219.09V54.748H239.188V46.1987Z" fill="#C8E8FF"/>
<path d="M85.3795 117.206H65.2812V125.755H85.3795V117.206Z" fill="#C8E8FF"/>
<path d="M61.0592 117.206H40.9609V125.755H61.0592V117.206Z" fill="#C8E8FF"/>
<path d="M146.18 129.11H126.082V137.659H146.18V129.11Z" fill="#C8E8FF"/>
<path d="M97.5396 129.11H77.4414V137.659H97.5396V129.11Z" fill="#C8E8FF"/>
<path d="M73.2232 129.11H53.125V137.659H73.2232V129.11Z" fill="#C8E8FF"/>
<path d="M158.333 141.014H138.234V149.563H158.333V141.014Z" fill="#C8E8FF"/>
<path d="M134.024 141.014H113.926V149.563H134.024V141.014Z" fill="#C8E8FF"/>
<path d="M85.3795 141.014H65.2812V149.563H85.3795V141.014Z" fill="#C8E8FF"/>
<path d="M61.0592 141.014H40.9609V149.563H61.0592V141.014Z" fill="#C8E8FF"/>
<path d="M97.5396 152.918H77.4414V161.467H97.5396V152.918Z" fill="#C8E8FF"/>
<path d="M73.2232 152.918H53.125V161.467H73.2232V152.918Z" fill="#C8E8FF"/>
<path d="M143.766 176.593H123.668V185.142H143.766V176.593Z" fill="#C8E8FF"/>
<path d="M119.446 176.593H99.3477V185.142H119.446V176.593Z" fill="#C8E8FF"/>
<path d="M89.5709 196.659H69.4727V205.208H89.5709V196.659Z" fill="#C8E8FF"/>
<path d="M65.2506 196.659H45.1523V205.208H65.2506V196.659Z" fill="#C8E8FF"/>
<path d="M150.372 208.563H130.273V217.113H150.372V208.563Z" fill="#C8E8FF"/>
<path d="M131.606 188.497H111.508V197.046H131.606V188.497Z" fill="#C8E8FF"/>
<path d="M77.4068 208.563H57.3086V217.113H77.4068V208.563Z" fill="#C8E8FF"/>
<path d="M162.528 220.468H142.43V229.017H162.528V220.468Z" fill="#C8E8FF"/>
<path d="M138.208 220.468H118.109V229.017H138.208V220.468Z" fill="#C8E8FF"/>
<path d="M113.887 220.468H93.7891V229.017H113.887V220.468Z" fill="#C8E8FF"/>
<path d="M150.372 232.372H130.273V240.921H150.372V232.372Z" fill="#C8E8FF"/>
<path d="M126.047 232.372H105.949V240.921H126.047V232.372Z" fill="#C8E8FF"/>
<path d="M101.727 232.372H81.6289V240.921H101.727V232.372Z" fill="#C8E8FF"/>
<path d="M275.7 196.115H255.602V204.664H275.7V196.115Z" fill="#C8E8FF"/>
<path d="M251.372 196.115H231.273V204.664H251.372V196.115Z" fill="#C8E8FF"/>
<path d="M227.051 196.115H206.953V204.664H227.051V196.115Z" fill="#C8E8FF"/>
<path d="M287.852 208.019H267.754V216.568H287.852V208.019Z" fill="#C8E8FF"/>
<path d="M263.532 208.019H243.434V216.568H263.532V208.019Z" fill="#C8E8FF"/>
<path d="M239.219 208.019H219.121V216.568H239.219V208.019Z" fill="#C8E8FF"/>
<path d="M214.899 208.019H194.801V216.568H214.899V208.019Z" fill="#C8E8FF"/>
<path d="M251.372 219.923H231.273V228.473H251.372V219.923Z" fill="#C8E8FF"/>
<path d="M227.051 219.923H206.953V228.473H227.051V219.923Z" fill="#C8E8FF"/>
<path d="M263.532 231.827H243.434V240.376H263.532V231.827Z" fill="#C8E8FF"/>
<path d="M239.219 231.827H219.121V240.376H239.219V231.827Z" fill="#C8E8FF"/>
<path d="M214.899 231.827H194.801V240.376H214.899V231.827Z" fill="#C8E8FF"/>
<path d="M286.955 112.588H342.379V43.4839H286.955V112.588Z" fill="#F5F5F5"/>
<path d="M332.223 103.573C325.244 108.578 325.229 111.317 320.224 105.712C315.219 100.108 311.746 93.3107 302.675 96.863C293.605 100.415 288.545 91.2425 294.355 82.8195C300.165 74.3966 298.034 62.895 294.355 57.3849C290.676 51.8749 292.389 44.4624 298.255 48.6146C304.12 52.7669 312.061 52.759 317.737 49.8382C323.413 46.9174 330.052 39.6707 329.578 52.3248C329.105 64.979 335.578 61.0083 337.251 67.4025C338.925 73.7966 330.841 69.7707 332.254 83.7589C333.667 97.7472 338.412 99.1286 332.223 103.573Z" fill="#E0E0E0"/>
<path d="M298.085 105.704C306.571 109.47 310.171 111.325 314.142 102.941C318.112 94.5577 326.125 83.3955 331.911 86.49C337.697 89.5845 335.945 75.5015 324.806 79.038C313.668 82.5746 311.031 80.7826 307.108 72.3202C303.185 63.8578 304.124 59.1608 299.419 62.2395C294.714 65.3182 301.203 74.8226 298.535 82.4956C295.867 90.1686 290.467 102.333 298.085 105.704Z" fill="#EBEBEB"/>
<path d="M327.827 62.9107C324.401 69.4785 329.019 79.9697 320.09 75.5412C311.162 71.1126 314.888 54.2272 307.199 58.1743C299.511 62.1213 304.713 73.765 298.153 74.3413C291.593 74.9175 292.295 49.0803 301.879 48.5514C311.462 48.0225 319.719 56.5323 322.601 53.5878C325.482 50.6433 333.534 43.9334 335.231 52.2616C336.928 60.5898 330.455 57.8743 327.827 62.9107Z" fill="#EBEBEB"/>
<path d="M272.335 62.0024H223.297V127.768H272.335V62.0024Z" fill="#F5F5F5"/>
<path d="M265.411 121.161C263.99 123.798 228.901 110.567 229.888 107.741C230.874 104.915 257.304 102.507 259.632 98.6394C261.961 94.7713 231.593 89.5928 232.106 86.9957C232.619 84.3985 261.393 86.6878 261.93 84.0749C262.466 81.462 231.656 76.915 233.708 73.0232C235.761 69.1315 261.337 71.9102 264.171 78.549C267.005 85.1879 251.494 84.7538 251.052 89.1665C250.609 93.5793 267.558 94.4398 265.411 101.529C263.264 108.617 240.987 103.502 243.063 109.683C245.139 115.864 268.095 116.204 265.411 121.161Z" fill="#E6E6E6"/>
<path d="M238.566 120.814C233.988 121.887 228.691 113.709 234.13 115.532C239.569 117.356 243.145 119.74 238.566 120.814Z" fill="#EBEBEB"/>
<path d="M259.221 110.456C258.992 112.738 265.749 112.335 265.82 110.456C265.891 108.578 259.473 108.08 259.221 110.456Z" fill="#EBEBEB"/>
<path d="M233.708 96.7211C236.187 100.802 243.457 99.0419 243.378 97.1552C243.299 95.2685 231.04 92.3162 233.708 96.7211Z" fill="#EBEBEB"/>
<path d="M318.124 232.601C318.25 231.812 321.005 212.732 315.472 206.156C314.921 205.462 314.223 204.899 313.429 204.507C312.634 204.116 311.763 203.905 310.877 203.89C299.707 203.63 298.176 212.574 298.168 212.692L299.486 212.897C299.534 212.574 300.86 205.003 310.846 205.224C311.545 205.225 312.234 205.384 312.863 205.689C313.492 205.993 314.044 206.437 314.477 206.985C319.632 213.111 316.845 232.191 316.845 232.388L318.124 232.601Z" fill="#EBEBEB"/>
<path d="M318.803 231.733L320.137 231.693C320.137 231.519 319.695 214.129 328.26 210.537C336.659 207.016 340.432 214.255 340.59 214.563L341.782 213.963C341.735 213.876 337.306 205.28 327.747 209.306C318.329 213.253 318.779 230.983 318.803 231.733Z" fill="#EBEBEB"/>
<path d="M318.768 233.098C318.768 232.822 318.847 205.319 324.207 197.275C329.362 189.555 337.666 193.194 338.013 193.328L338.566 192.112C338.471 192.073 328.888 187.842 323.102 196.517C317.513 204.893 317.434 231.93 317.434 233.075L318.768 233.098Z" fill="#EBEBEB"/>
<path d="M309.286 204.553C309.286 204.553 314.164 206.345 312.712 210.592C311.259 214.839 295.834 221.826 295.834 221.826C295.834 221.826 289.377 215.905 295.305 206.274C301.234 196.644 309.151 201.514 309.286 204.553Z" fill="#E0E0E0"/>
<path d="M324.447 195.831C324.447 195.831 320.981 195.46 321.289 193.352C321.597 191.245 334.709 185.814 342.524 194.592C342.524 194.592 337.551 203.149 330.343 203.275C323.136 203.402 324.447 195.831 324.447 195.831Z" fill="#E0E0E0"/>
<path d="M328.003 209.922C328.003 209.922 325.635 207.996 328.192 207.048C330.75 206.101 343.428 206.377 343.562 218.889C343.562 218.889 328.824 221.337 326.984 216.561C325.145 211.785 328.003 209.922 328.003 209.922Z" fill="#E0E0E0"/>
<path d="M306.666 258.146H329.535L332.006 233.099H304.195L306.666 258.146Z" fill="#EBEBEB"/>
<path d="M302.977 235.87H333.227V230.344H302.977V235.87Z" fill="#E0E0E0"/>
<path d="M197.651 295.05C282.183 295.05 350.709 291.049 350.709 286.114C350.709 281.179 282.183 277.178 197.651 277.178C113.12 277.178 44.5938 281.179 44.5938 286.114C44.5938 291.049 113.12 295.05 197.651 295.05Z" fill="#AAAAAA"/>
<path d="M196.714 38.9053H76.0926C71.5585 38.9053 67.8828 42.5809 67.8828 47.1151V277.187C67.8828 281.721 71.5585 285.397 76.0926 285.397H196.714C201.248 285.397 204.923 281.721 204.923 277.187V47.1151C204.923 42.5809 201.248 38.9053 196.714 38.9053Z" fill="#263238"/>
<path d="M200.299 47.1706V276.698C200.299 277.143 200.211 277.583 200.039 277.993C199.868 278.403 199.616 278.775 199.3 279.087C198.983 279.399 198.608 279.645 198.195 279.811C197.783 279.977 197.341 280.059 196.897 280.053H75.5494C75.1454 280.058 74.7445 279.982 74.3707 279.829C73.9969 279.676 73.6579 279.448 73.3741 279.161C73.0902 278.873 72.8674 278.531 72.719 278.156C72.5705 277.78 72.4995 277.378 72.5101 276.974V46.8943C72.4953 46.5381 72.5511 46.1824 72.6741 45.8477C72.7972 45.513 72.9851 45.2059 73.2272 44.944C73.4692 44.6822 73.7606 44.4707 74.0846 44.3218C74.4086 44.1728 74.7588 44.0894 75.1152 44.0762H105.452C105.877 44.0819 106.289 44.2152 106.637 44.4587C106.985 44.7023 107.251 45.0448 107.402 45.4418L108.665 48.5284C108.817 48.9239 109.084 49.2648 109.431 49.5069C109.779 49.749 110.191 49.8811 110.615 49.8862H162.265C162.686 49.883 163.097 49.7543 163.444 49.5167C163.791 49.279 164.06 48.9432 164.215 48.5521L165.47 45.4497C165.623 45.0519 165.891 44.7086 166.239 44.4638C166.588 44.2191 167.002 44.0841 167.428 44.0762H197.323C198.126 44.0989 198.887 44.4359 199.444 45.0147C200 45.5935 200.308 46.3677 200.299 47.1706Z" fill="#407BFF"/>
<path opacity="0.5" d="M200.305 58.4116H72.5078V267.146H200.305V58.4116Z" fill="white"/>
<path opacity="0.6" d="M86.5931 53.3193H88.1719V51.2116H86.5931V53.3193Z" fill="white"/>
<path opacity="0.6" d="M84.0149 53.3193H85.5938V50.5091H84.0149V53.3193Z" fill="white"/>
<path opacity="0.6" d="M81.4446 53.3193H83.0234V49.8144H81.4446V53.3193Z" fill="white"/>
<path opacity="0.6" d="M78.8743 53.3271H80.4531V49.1196H78.8743V53.3271Z" fill="white"/>
<path opacity="0.6" d="M185.842 50.4541H184.902V52.5618H185.842V50.4541Z" fill="white"/>
<path opacity="0.6" d="M186.482 53.3271H193.934V49.688H186.482V53.3271Z" fill="white"/>
<path opacity="0.6" d="M136.38 44.3682C136.38 44.7148 136.277 45.0537 136.085 45.3418C135.892 45.63 135.618 45.8547 135.298 45.9873C134.978 46.1199 134.626 46.1546 134.286 46.087C133.946 46.0194 133.633 45.8525 133.388 45.6074C133.143 45.3623 132.976 45.0501 132.909 44.7101C132.841 44.3702 132.876 44.0178 133.008 43.6976C133.141 43.3774 133.366 43.1037 133.654 42.9111C133.942 42.7185 134.281 42.6157 134.627 42.6157C134.858 42.6147 135.086 42.6593 135.299 42.747C135.512 42.8347 135.706 42.9638 135.869 43.1267C136.032 43.2896 136.161 43.4832 136.249 43.6963C136.336 43.9094 136.381 44.1378 136.38 44.3682Z" fill="white"/>
<path opacity="0.6" d="M139.929 44.368C139.929 44.5897 139.864 44.8065 139.74 44.9908C139.617 45.1751 139.442 45.3188 139.237 45.4037C139.033 45.4885 138.807 45.5107 138.59 45.4674C138.372 45.4242 138.173 45.3174 138.016 45.1607C137.859 45.0039 137.752 44.8042 137.709 44.5867C137.666 44.3693 137.688 44.1439 137.773 43.9391C137.858 43.7342 138.001 43.5592 138.186 43.436C138.37 43.3128 138.587 43.2471 138.808 43.2471C139.106 43.2471 139.391 43.3652 139.601 43.5754C139.811 43.7856 139.929 44.0707 139.929 44.368Z" fill="white"/>
<path d="M171.579 70.3867H84.9416C81.589 70.3867 78.8711 73.1046 78.8711 76.4572C78.8711 79.8099 81.589 82.5278 84.9416 82.5278H171.579C174.931 82.5278 177.649 79.8099 177.649 76.4572C177.649 73.1046 174.931 70.3867 171.579 70.3867Z" fill="white"/>
<path d="M169.226 78.9042C168.725 78.9028 168.232 78.778 167.791 78.5409C167.35 78.3037 166.975 77.9616 166.697 77.5447C166.42 77.1278 166.25 76.649 166.202 76.1506C166.153 75.6522 166.229 75.1497 166.421 74.6873C166.613 74.225 166.916 73.8172 167.304 73.4999C167.691 73.1826 168.151 72.9657 168.642 72.8683C169.133 72.7709 169.641 72.796 170.12 72.9414C170.599 73.0869 171.035 73.3481 171.389 73.7021C171.816 74.1287 172.106 74.6724 172.223 75.2644C172.341 75.8563 172.28 76.4698 172.048 77.027C171.817 77.5842 171.425 78.0601 170.922 78.3943C170.42 78.7285 169.829 78.906 169.226 78.9042ZM169.226 73.5994C168.781 73.6054 168.348 73.7421 167.981 73.9924C167.613 74.2427 167.328 74.5956 167.159 75.0072C166.991 75.4187 166.947 75.8707 167.034 76.3068C167.121 76.7429 167.334 77.1438 167.647 77.4596C167.911 77.7213 168.235 77.9138 168.591 78.0202C168.946 78.1266 169.323 78.1436 169.687 78.0696C170.051 77.9956 170.391 77.833 170.677 77.5962C170.963 77.3593 171.186 77.0556 171.327 76.7118C171.468 76.368 171.521 75.9949 171.483 75.6254C171.445 75.256 171.316 74.9017 171.108 74.5939C170.901 74.286 170.62 74.0342 170.292 73.8608C169.963 73.6873 169.597 73.5976 169.226 73.5994Z" fill="#407BFF"/>
<path d="M173.065 80.0966C172.96 80.0961 172.858 80.0567 172.781 79.9861L170.815 78.0126C170.777 77.9772 170.747 77.9344 170.726 77.8868C170.706 77.8393 170.695 77.7881 170.695 77.7363C170.695 77.6845 170.706 77.6333 170.726 77.5858C170.747 77.5383 170.777 77.4955 170.815 77.46C170.852 77.423 170.895 77.3937 170.943 77.3736C170.991 77.3536 171.043 77.3433 171.095 77.3433C171.147 77.3433 171.199 77.3536 171.247 77.3736C171.295 77.3937 171.339 77.423 171.375 77.46L173.341 79.4256C173.378 79.4623 173.407 79.506 173.427 79.5541C173.447 79.6022 173.458 79.6538 173.458 79.7059C173.458 79.758 173.447 79.8096 173.427 79.8577C173.407 79.9058 173.378 79.9494 173.341 79.9861C173.265 80.0549 173.167 80.0942 173.065 80.0966Z" fill="#407BFF"/>
<path opacity="0.2" d="M191.751 70.3867H183.194C182.205 70.3867 181.402 71.189 181.402 72.1787V80.7358C181.402 81.7255 182.205 82.5278 183.194 82.5278H191.751C192.741 82.5278 193.543 81.7255 193.543 80.7358V72.1787C193.543 71.189 192.741 70.3867 191.751 70.3867Z" fill="black"/>
<path d="M185.399 73.5755C185.399 73.7317 185.353 73.8843 185.266 74.0141C185.179 74.1439 185.056 74.2451 184.912 74.3048C184.768 74.3646 184.609 74.3802 184.456 74.3498C184.303 74.3193 184.162 74.2441 184.052 74.1337C183.941 74.0233 183.866 73.8827 183.835 73.7295C183.805 73.5764 183.821 73.4177 183.88 73.2734C183.94 73.1292 184.041 73.0059 184.171 72.9192C184.301 72.8324 184.454 72.7861 184.61 72.7861C184.819 72.7861 185.02 72.8693 185.168 73.0173C185.316 73.1654 185.399 73.3662 185.399 73.5755Z" fill="white"/>
<path d="M190.614 77.2622C191.058 77.2622 191.419 76.9017 191.419 76.457C191.419 76.0123 191.058 75.6519 190.614 75.6519C190.169 75.6519 189.809 76.0123 189.809 76.457C189.809 76.9017 190.169 77.2622 190.614 77.2622Z" fill="white"/>
<path d="M184.903 80.5069C185.348 80.5069 185.708 80.1464 185.708 79.7017C185.708 79.257 185.348 78.8965 184.903 78.8965C184.458 78.8965 184.098 79.257 184.098 79.7017C184.098 80.1464 184.458 80.5069 184.903 80.5069Z" fill="white"/>
<path d="M184.997 79.875L184.8 79.5355L190.184 76.4647L184.508 73.7097L184.681 73.3545L191.028 76.4411L184.997 79.875Z" fill="white"/>
<path opacity="0.6" d="M200.305 93.2554H72.5078V267.145H200.305V93.2554Z" fill="white"/>
<path opacity="0.2" d="M135.925 133.08L144.906 124.099L135.925 115.118L126.944 124.099L135.925 133.08Z" fill="white"/>
<path opacity="0.2" d="M87.1359 138.473H108.466C110.51 138.473 112.168 136.815 112.168 134.77V113.441C112.168 111.396 110.51 109.738 108.466 109.738H87.1359C85.0912 109.738 83.4336 111.396 83.4336 113.441V134.77C83.4336 136.815 85.0912 138.473 87.1359 138.473Z" fill="black"/>
<path opacity="0.2" d="M84.9812 146.911H110.621C111.04 146.911 111.441 146.745 111.737 146.449C112.033 146.153 112.2 145.751 112.2 145.332C112.2 144.914 112.033 144.512 111.737 144.216C111.441 143.92 111.04 143.753 110.621 143.753H84.9812C84.5624 143.753 84.1608 143.92 83.8648 144.216C83.5687 144.512 83.4023 144.914 83.4023 145.332C83.4023 145.751 83.5687 146.153 83.8648 146.449C84.1608 146.745 84.5624 146.911 84.9812 146.911Z" fill="black"/>
<path opacity="0.2" d="M125.257 192.152H146.587C148.631 192.152 150.289 190.495 150.289 188.45V167.12C150.289 165.076 148.631 163.418 146.587 163.418H125.257C123.212 163.418 121.555 165.076 121.555 167.12V188.45C121.555 190.495 123.212 192.152 125.257 192.152Z" fill="black"/>
<path opacity="0.2" d="M123.102 200.591H148.703C149.121 200.591 149.523 200.425 149.819 200.129C150.115 199.833 150.281 199.431 150.281 199.012C150.281 198.594 150.115 198.192 149.819 197.896C149.523 197.6 149.121 197.434 148.703 197.434H123.102C122.684 197.434 122.282 197.6 121.986 197.896C121.69 198.192 121.523 198.594 121.523 199.012C121.523 199.431 121.69 199.833 121.986 200.129C122.282 200.425 122.684 200.591 123.102 200.591Z" fill="black"/>
<path opacity="0.2" d="M87.1359 192.152H108.466C110.51 192.152 112.168 190.495 112.168 188.45V167.12C112.168 165.076 110.51 163.418 108.466 163.418H87.1359C85.0912 163.418 83.4336 165.076 83.4336 167.12V188.45C83.4336 190.495 85.0912 192.152 87.1359 192.152Z" fill="black"/>
<path opacity="0.2" d="M84.9812 200.591H110.621C111.04 200.591 111.441 200.425 111.737 200.129C112.033 199.833 112.2 199.431 112.2 199.012C112.2 198.594 112.033 198.192 111.737 197.896C111.441 197.6 111.04 197.434 110.621 197.434H84.9812C84.5624 197.434 84.1608 197.6 83.8648 197.896C83.5687 198.192 83.4023 198.594 83.4023 199.012C83.4023 199.431 83.5687 199.833 83.8648 200.129C84.1608 200.425 84.5624 200.591 84.9812 200.591Z" fill="black"/>
<path opacity="0.2" d="M93.1186 169.678H102.481L107.154 177.778L102.481 185.885H93.1186L88.4453 177.778L93.1186 169.678Z" fill="white"/>
<path opacity="0.2" d="M143.453 172.434V183.935H128.383L143.453 172.434Z" fill="white"/>
<path opacity="0.2" d="M163.374 138.473H184.704C186.749 138.473 188.406 136.815 188.406 134.77V113.441C188.406 111.396 186.749 109.738 184.704 109.738H163.374C161.329 109.738 159.672 111.396 159.672 113.441V134.77C159.672 136.815 161.329 138.473 163.374 138.473Z" fill="black"/>
<path opacity="0.2" d="M161.219 146.911H186.851C187.27 146.911 187.672 146.745 187.968 146.449C188.264 146.153 188.43 145.751 188.43 145.332C188.43 144.914 188.264 144.512 187.968 144.216C187.672 143.92 187.27 143.753 186.851 143.753H161.219C160.801 143.753 160.399 143.92 160.103 144.216C159.807 144.512 159.641 144.914 159.641 145.332C159.641 145.751 159.807 146.153 160.103 146.449C160.399 146.745 160.801 146.911 161.219 146.911Z" fill="black"/>
<path opacity="0.2" d="M176.336 131.579C180.668 130.557 183.352 126.216 182.329 121.884C181.307 117.551 176.966 114.868 172.633 115.891C168.301 116.913 165.618 121.254 166.64 125.586C167.663 129.919 172.004 132.602 176.336 131.579Z" fill="white"/>
<path opacity="0.2" d="M94.32 115.667C94.32 115.667 105.372 128.155 105.024 128.155C104.677 128.155 90.5703 131.076 90.5703 131.076L94.32 115.667Z" fill="white"/>
<path opacity="0.2" d="M125.257 138.473H146.587C148.631 138.473 150.289 136.815 150.289 134.77V113.441C150.289 111.396 148.631 109.738 146.587 109.738H125.257C123.212 109.738 121.555 111.396 121.555 113.441V134.77C121.555 136.815 123.212 138.473 125.257 138.473Z" fill="black"/>
<path opacity="0.2" d="M123.102 146.911H148.703C149.121 146.911 149.523 146.745 149.819 146.449C150.115 146.153 150.281 145.751 150.281 145.332C150.281 144.914 150.115 144.512 149.819 144.216C149.523 143.92 149.121 143.753 148.703 143.753H123.102C122.684 143.753 122.282 143.92 121.986 144.216C121.69 144.512 121.523 144.914 121.523 145.332C121.523 145.751 121.69 146.153 121.986 146.449C122.282 146.745 122.684 146.911 123.102 146.911Z" fill="black"/>
<g opacity="0.2">
<path d="M88.1311 76.4723V77.7985H87.8232V76.5039C87.8379 76.4082 87.8307 76.3104 87.8021 76.2179C87.7735 76.1254 87.7243 76.0407 87.6581 75.97C87.592 75.8993 87.5107 75.8445 87.4203 75.8098C87.3299 75.7751 87.2329 75.7614 87.1364 75.7697C87.0293 75.7696 86.9234 75.7912 86.8249 75.8334C86.7265 75.8755 86.6376 75.9372 86.5638 76.0147C86.49 76.0922 86.4326 76.184 86.3954 76.2844C86.3581 76.3848 86.3417 76.4917 86.347 76.5986V77.7985H86.0312V74.5698H86.347V75.9434C86.4397 75.8048 86.5674 75.6931 86.7171 75.6196C86.8668 75.5462 87.0332 75.5135 87.1996 75.525C87.3254 75.5166 87.4516 75.5355 87.5695 75.5804C87.6874 75.6252 87.7942 75.695 87.8827 75.7849C87.9711 75.8749 88.0391 75.9828 88.0819 76.1015C88.1248 76.2201 88.1416 76.3466 88.1311 76.4723Z" fill="black"/>
<path d="M90.1723 77.6567C90.0378 77.7696 89.8663 77.8286 89.6908 77.8225C89.601 77.8323 89.5101 77.822 89.4247 77.7922C89.3394 77.7625 89.2618 77.7141 89.1975 77.6506C89.1332 77.5871 89.0839 77.51 89.0532 77.425C89.0224 77.3401 89.011 77.2493 89.0198 77.1594V75.77H88.6172V75.5095H89.0198V75.0122H89.3277V75.5095H90.0302V75.77H89.3277V77.1357C89.3203 77.191 89.3255 77.2473 89.3429 77.3003C89.3603 77.3533 89.3894 77.4018 89.4281 77.442C89.4668 77.4822 89.514 77.5131 89.5663 77.5326C89.6187 77.552 89.6747 77.5593 89.7303 77.5541C89.8541 77.5576 89.9749 77.5154 90.0697 77.4357L90.1723 77.6567Z" fill="black"/>
<path d="M91.8677 77.6567C91.7278 77.7653 91.5554 77.8237 91.3783 77.8225C91.2888 77.8325 91.1981 77.8223 91.1131 77.7925C91.0281 77.7627 90.9509 77.7142 90.8872 77.6505C90.8235 77.5868 90.7749 77.5096 90.7452 77.4246C90.7154 77.3395 90.7051 77.2489 90.7152 77.1594V75.77H90.3047V75.5095H90.7152V75.0122H91.0783V75.5095H91.773V75.77H91.0783V77.1357C91.0696 77.1906 91.0736 77.2467 91.0899 77.2998C91.1063 77.3529 91.1347 77.4015 91.1728 77.4419C91.2109 77.4824 91.2578 77.5135 91.3099 77.5329C91.3619 77.5524 91.4177 77.5596 91.473 77.5541C91.5968 77.5576 91.7177 77.5154 91.8125 77.4357L91.8677 77.6567Z" fill="black"/>
<path d="M94.7622 76.6535C94.771 76.8066 94.7479 76.9598 94.6943 77.1034C94.6407 77.2471 94.5579 77.378 94.4509 77.4879C94.344 77.5978 94.2154 77.6842 94.0733 77.7417C93.9312 77.7992 93.7787 77.8265 93.6254 77.8219C93.4543 77.8272 93.2847 77.7887 93.1327 77.7099C92.9807 77.6312 92.8514 77.5148 92.7571 77.3719V78.6428H92.4492V75.4852H92.7413V75.9431C92.8335 75.7929 92.9639 75.6699 93.1193 75.5866C93.2746 75.5034 93.4493 75.463 93.6254 75.4694C93.7801 75.4646 93.934 75.4923 94.0773 75.5507C94.2206 75.6092 94.35 75.6971 94.4571 75.8087C94.5643 75.9203 94.6468 76.0532 94.6994 76.1987C94.7519 76.3442 94.7733 76.4992 94.7622 76.6535ZM94.4543 76.6535C94.4512 76.4856 94.3986 76.3224 94.303 76.1842C94.2075 76.0461 94.0732 75.9393 93.9172 75.8772C93.7612 75.8151 93.5903 75.8005 93.426 75.8351C93.2616 75.8698 93.1112 75.9522 92.9935 76.072C92.8759 76.1919 92.7962 76.3438 92.7646 76.5087C92.733 76.6737 92.7508 76.8443 92.8157 76.9991C92.8807 77.154 92.9899 77.2862 93.1298 77.3792C93.2696 77.4722 93.4338 77.5218 93.6017 77.5219C93.7154 77.523 93.828 77.5012 93.933 77.4577C94.038 77.4143 94.1331 77.3501 94.2127 77.269C94.2923 77.1879 94.3547 77.0916 94.3962 76.9859C94.4377 76.8801 94.4575 76.7671 94.4543 76.6535Z" fill="black"/>
<path d="M95.0781 77.5226L95.2202 77.2779C95.4504 77.4437 95.726 77.5346 96.0096 77.5384C96.4438 77.5384 96.6254 77.3884 96.6254 77.1595C96.6254 76.5674 95.1413 77.0332 95.1413 76.1332C95.1413 75.7543 95.4649 75.478 96.0412 75.478C96.3185 75.4785 96.5908 75.552 96.8306 75.6912L96.6964 75.9438C96.4961 75.809 96.2588 75.74 96.0175 75.7464C95.607 75.7464 95.4255 75.9043 95.4255 76.1253C95.4255 76.7411 96.9095 76.2753 96.9095 77.1516C96.9095 77.5463 96.5622 77.8068 95.9623 77.8068C95.6457 77.8028 95.3377 77.7038 95.0781 77.5226Z" fill="black"/>
<path d="M97.3244 75.7305C97.3233 75.6998 97.3284 75.6691 97.3395 75.6404C97.3505 75.6118 97.3672 75.5856 97.3886 75.5635C97.4099 75.5414 97.4355 75.5238 97.4638 75.5118C97.4921 75.4998 97.5225 75.4936 97.5533 75.4937C97.6161 75.4937 97.6763 75.5186 97.7207 75.563C97.7652 75.6074 97.7901 75.6677 97.7901 75.7305C97.7901 75.7933 97.7652 75.8535 97.7207 75.8979C97.6763 75.9424 97.6161 75.9673 97.5533 75.9673C97.5225 75.9673 97.4921 75.9611 97.4638 75.9491C97.4355 75.9372 97.4099 75.9196 97.3886 75.8975C97.3672 75.8754 97.3505 75.8492 97.3395 75.8205C97.3284 75.7918 97.3233 75.7612 97.3244 75.7305ZM97.3244 77.5856C97.3233 77.5549 97.3284 77.5242 97.3395 77.4955C97.3505 77.4669 97.3672 77.4407 97.3886 77.4186C97.4099 77.3965 97.4355 77.3789 97.4638 77.3669C97.4921 77.3549 97.5225 77.3487 97.5533 77.3488C97.5847 77.3477 97.616 77.353 97.6452 77.3645C97.6744 77.376 97.701 77.3935 97.7232 77.4157C97.7454 77.4379 97.7628 77.4644 97.7743 77.4937C97.7858 77.5229 97.7912 77.5542 97.7901 77.5856C97.7901 77.6484 97.7652 77.7086 97.7207 77.753C97.6763 77.7974 97.6161 77.8224 97.5533 77.8224C97.5225 77.8224 97.4921 77.8162 97.4638 77.8043C97.4355 77.7923 97.4099 77.7747 97.3886 77.7526C97.3672 77.7305 97.3505 77.7043 97.3395 77.6756C97.3284 77.6469 97.3233 77.6163 97.3244 77.5856Z" fill="black"/>
<path d="M99.5422 74.1357H99.8185L98.3896 78.2327H98.1055L99.5422 74.1357Z" fill="black"/>
<path d="M100.71 74.1357H100.994L99.5575 78.2327H99.2812L100.71 74.1357Z" fill="black"/>
<path d="M104.758 76.4724V77.7986H104.45V76.504C104.45 76.0225 104.206 75.7698 103.795 75.7698C103.686 75.7606 103.576 75.776 103.473 75.815C103.37 75.854 103.278 75.9155 103.202 75.9951C103.126 76.0746 103.069 76.1701 103.035 76.2746C103.001 76.3791 102.991 76.4898 103.006 76.5987V77.7986H102.698V76.504C102.698 76.0225 102.453 75.7698 102.035 75.7698C101.926 75.7621 101.816 75.7785 101.714 75.818C101.612 75.8575 101.52 75.919 101.445 75.9983C101.369 76.0775 101.312 76.1724 101.278 76.2762C101.243 76.38 101.232 76.4901 101.245 76.5987V77.7986H100.938V75.5093H101.237V75.9435C101.324 75.8015 101.448 75.6859 101.595 75.6093C101.743 75.5327 101.908 75.4982 102.074 75.5093C102.24 75.4964 102.405 75.536 102.547 75.6224C102.689 75.7089 102.799 75.8378 102.864 75.9909C102.956 75.8368 103.089 75.7107 103.247 75.6259C103.406 75.5411 103.584 75.5008 103.764 75.5093C103.896 75.4871 104.033 75.4964 104.161 75.5365C104.29 75.5765 104.407 75.6462 104.504 75.7399C104.601 75.8335 104.674 75.9486 104.718 76.0759C104.762 76.2031 104.776 76.3389 104.758 76.4724Z" fill="black"/>
<path d="M107.479 75.5093L106.334 78.0748C106.145 78.5248 105.9 78.6669 105.545 78.6669C105.337 78.6723 105.136 78.5958 104.984 78.4538L105.134 78.2248C105.187 78.2803 105.251 78.3244 105.322 78.3542C105.392 78.3841 105.468 78.3992 105.545 78.3985C105.75 78.3985 105.892 78.3038 106.018 78.0196L106.121 77.7986L105.103 75.5093H105.419L106.287 77.4591L107.147 75.5093H107.479Z" fill="black"/>
<path d="M107.922 74.5698H108.23V77.7985H107.922V74.5698Z" fill="black"/>
<path d="M109.02 74.791C109.022 74.7317 109.047 74.6754 109.089 74.6342C109.132 74.593 109.189 74.5699 109.248 74.57C109.277 74.5689 109.306 74.5736 109.332 74.5839C109.359 74.5941 109.384 74.6096 109.404 74.6295C109.425 74.6494 109.441 74.6733 109.453 74.6997C109.464 74.7261 109.47 74.7544 109.469 74.7831C109.471 74.8128 109.466 74.8424 109.455 74.8701C109.444 74.8979 109.428 74.9232 109.408 74.9445C109.387 74.9659 109.362 74.9829 109.335 74.9945C109.308 75.0061 109.278 75.0121 109.248 75.012C109.189 75.0121 109.132 74.989 109.089 74.9478C109.047 74.9066 109.022 74.8503 109.02 74.791ZM109.091 75.5094H109.398V77.7986H109.091V75.5094Z" fill="black"/>
<path d="M112.393 76.4723V77.7985H112.085V76.5038C112.1 76.4082 112.092 76.3104 112.064 76.2179C112.035 76.1254 111.986 76.0406 111.92 75.9699C111.854 75.8992 111.772 75.8445 111.682 75.8098C111.592 75.7751 111.495 75.7614 111.398 75.7697C111.291 75.7696 111.185 75.7912 111.087 75.8333C110.988 75.8754 110.899 75.9371 110.825 76.0147C110.752 76.0922 110.694 76.184 110.657 76.2843C110.62 76.3847 110.603 76.4916 110.609 76.5986V77.7985H110.301V75.5092H110.601V75.9434C110.692 75.7979 110.821 75.68 110.974 75.6021C111.127 75.5243 111.298 75.4894 111.469 75.5013C111.597 75.4936 111.724 75.5139 111.843 75.5606C111.962 75.6074 112.069 75.6795 112.157 75.772C112.245 75.8645 112.311 75.9751 112.352 76.096C112.393 76.217 112.407 76.3454 112.393 76.4723Z" fill="black"/>
<path d="M114.056 76.6539L113.519 77.1433V77.7985H113.18V74.5698H113.495V76.7328L114.861 75.4855H115.24L114.261 76.4249L115.335 77.7748H114.956L114.056 76.6539Z" fill="black"/>
<path d="M116.714 74.1357H116.998L115.546 78.2327H115.27L116.714 74.1357Z" fill="black"/>
</g>
<path opacity="0.2" d="M224.609 107.172V173.482C224.609 174.489 224.209 175.455 223.497 176.167C222.785 176.879 221.819 177.279 220.812 177.279H96.0861C95.0791 177.279 94.1133 176.879 93.4012 176.167C92.6891 175.455 92.2891 174.489 92.2891 173.482V107.172C92.2891 106.674 92.3873 106.181 92.5782 105.721C92.7692 105.26 93.049 104.842 93.4017 104.49C93.7544 104.138 94.173 103.859 94.6336 103.669C95.0943 103.48 95.5878 103.382 96.0861 103.383H220.812C221.31 103.382 221.804 103.48 222.265 103.669C222.725 103.859 223.144 104.138 223.496 104.49C223.849 104.842 224.129 105.26 224.32 105.721C224.511 106.181 224.609 106.674 224.609 107.172Z" fill="black"/>
<path d="M230.136 100.858V167.167C230.136 167.666 230.038 168.16 229.847 168.621C229.657 169.081 229.377 169.5 229.024 169.852C228.672 170.205 228.253 170.485 227.792 170.676C227.332 170.866 226.838 170.965 226.339 170.965H101.613C100.606 170.965 99.6406 170.564 98.9285 169.852C98.2165 169.14 97.8164 168.175 97.8164 167.167V100.858C97.8164 100.359 97.9147 99.8659 98.1056 99.4056C98.2965 98.9454 98.5763 98.5274 98.929 98.1754C99.2817 97.8234 99.7003 97.5445 100.161 97.3545C100.622 97.1646 101.115 97.0673 101.613 97.0684H226.339C226.838 97.0673 227.331 97.1646 227.792 97.3545C228.252 97.5445 228.671 97.8234 229.024 98.1754C229.376 98.5274 229.656 98.9454 229.847 99.4056C230.038 99.8659 230.136 100.359 230.136 100.858Z" fill="#407BFF"/>
<path opacity="0.5" d="M230.136 109.888V167.215C230.136 167.713 230.038 168.207 229.847 168.668C229.657 169.128 229.377 169.547 229.024 169.9C228.672 170.252 228.253 170.532 227.792 170.723C227.332 170.914 226.838 171.012 226.339 171.012H101.613C100.606 171.012 99.6406 170.612 98.9285 169.9C98.2165 169.188 97.8164 168.222 97.8164 167.215V109.888H230.136Z" fill="white"/>
<path d="M195.576 120.095H105.797V135.52H195.576V120.095Z" fill="white"/>
<path d="M115.112 127.611V129.814H114.417V127.69C114.417 126.901 114.046 126.569 113.391 126.569C113.223 126.556 113.055 126.581 112.897 126.641C112.74 126.701 112.598 126.795 112.482 126.917C112.366 127.038 112.278 127.184 112.225 127.344C112.172 127.504 112.155 127.673 112.175 127.84V129.814H111.48V124.454H112.175V126.53C112.341 126.337 112.549 126.184 112.783 126.084C113.017 125.984 113.271 125.939 113.525 125.953C113.744 125.935 113.965 125.966 114.17 126.044C114.376 126.122 114.562 126.245 114.714 126.404C114.866 126.563 114.981 126.754 115.049 126.963C115.118 127.171 115.14 127.393 115.112 127.611Z" fill="#263238"/>
<path d="M118.544 129.623C118.305 129.809 118.009 129.904 117.707 129.892C117.544 129.911 117.38 129.893 117.225 129.839C117.071 129.785 116.93 129.698 116.814 129.582C116.698 129.467 116.61 129.327 116.555 129.173C116.5 129.019 116.481 128.855 116.499 128.692V126.592H115.844V126.024H116.499V125.187H117.186V126.024H118.283V126.592H117.186V128.668C117.174 128.752 117.18 128.837 117.206 128.917C117.231 128.997 117.274 129.071 117.332 129.133C117.389 129.194 117.46 129.242 117.539 129.272C117.617 129.302 117.702 129.315 117.786 129.308C117.983 129.312 118.175 129.248 118.33 129.126L118.544 129.623Z" fill="#263238"/>
<path d="M121.438 129.623C121.199 129.807 120.903 129.901 120.602 129.892C120.439 129.91 120.274 129.892 120.119 129.839C119.964 129.785 119.823 129.698 119.707 129.583C119.59 129.467 119.501 129.328 119.445 129.174C119.39 129.02 119.37 128.855 119.386 128.692V126.592H118.707V126.024H119.354V125.187H120.049V126.024H121.146V126.592H120.049V128.668C120.037 128.752 120.044 128.837 120.069 128.917C120.094 128.997 120.137 129.071 120.195 129.133C120.253 129.194 120.323 129.242 120.402 129.272C120.481 129.302 120.565 129.315 120.649 129.308C120.846 129.311 121.038 129.247 121.194 129.126L121.438 129.623Z" fill="#263238"/>
<path d="M126.24 127.894C126.255 128.153 126.215 128.412 126.123 128.655C126.031 128.897 125.89 129.118 125.708 129.303C125.525 129.487 125.307 129.631 125.065 129.726C124.824 129.821 124.565 129.864 124.306 129.852C124.05 129.864 123.794 129.814 123.562 129.705C123.329 129.597 123.127 129.433 122.972 129.228V131.202H122.277V125.976H122.94V126.584C123.1 126.375 123.307 126.208 123.545 126.096C123.783 125.985 124.044 125.933 124.306 125.945C124.565 125.932 124.823 125.974 125.065 126.068C125.306 126.161 125.525 126.305 125.707 126.489C125.89 126.673 126.031 126.893 126.123 127.135C126.215 127.377 126.255 127.636 126.24 127.894ZM125.538 127.894C125.525 127.643 125.439 127.401 125.291 127.198C125.142 126.994 124.937 126.839 124.701 126.752C124.465 126.664 124.209 126.647 123.963 126.704C123.718 126.76 123.495 126.888 123.321 127.07C123.147 127.252 123.031 127.481 122.986 127.729C122.941 127.977 122.97 128.232 123.069 128.463C123.168 128.695 123.333 128.892 123.543 129.031C123.753 129.17 123.999 129.244 124.251 129.244C124.426 129.248 124.601 129.215 124.763 129.148C124.925 129.08 125.071 128.98 125.192 128.853C125.313 128.726 125.406 128.575 125.466 128.41C125.525 128.245 125.55 128.069 125.538 127.894Z" fill="#263238"/>
<path d="M126.719 129.402L127.011 128.857C127.411 129.115 127.877 129.252 128.353 129.252C128.992 129.252 129.261 129.062 129.261 128.731C129.261 127.878 126.845 128.62 126.845 127.097C126.845 126.41 127.461 125.952 128.424 125.952C128.909 125.943 129.387 126.06 129.813 126.292L129.521 126.844C129.19 126.639 128.806 126.535 128.416 126.544C127.808 126.544 127.516 126.765 127.516 127.065C127.516 127.973 129.94 127.231 129.94 128.723C129.94 129.41 129.3 129.852 128.29 129.852C127.733 129.862 127.186 129.705 126.719 129.402Z" fill="#263238"/>
<path d="M130.498 126.466C130.496 126.401 130.507 126.337 130.53 126.276C130.554 126.216 130.59 126.161 130.636 126.115C130.682 126.069 130.737 126.033 130.797 126.01C130.858 125.986 130.922 125.975 130.987 125.977C131.051 125.976 131.114 125.988 131.173 126.012C131.233 126.036 131.286 126.073 131.33 126.119C131.375 126.165 131.409 126.219 131.432 126.279C131.454 126.339 131.464 126.402 131.461 126.466C131.463 126.53 131.452 126.594 131.43 126.654C131.407 126.713 131.372 126.768 131.328 126.814C131.284 126.86 131.231 126.898 131.173 126.923C131.114 126.949 131.051 126.963 130.987 126.964C130.922 126.964 130.858 126.951 130.798 126.926C130.738 126.9 130.684 126.864 130.638 126.817C130.593 126.771 130.557 126.716 130.533 126.656C130.509 126.596 130.497 126.531 130.498 126.466ZM130.498 129.379C130.496 129.314 130.507 129.25 130.53 129.189C130.554 129.129 130.59 129.074 130.636 129.028C130.682 128.982 130.737 128.946 130.797 128.923C130.858 128.899 130.922 128.888 130.987 128.89C131.051 128.889 131.114 128.901 131.173 128.925C131.233 128.949 131.286 128.986 131.33 129.032C131.375 129.077 131.409 129.132 131.432 129.192C131.454 129.252 131.464 129.315 131.461 129.379C131.464 129.443 131.454 129.507 131.432 129.568C131.409 129.628 131.375 129.683 131.331 129.729C131.286 129.776 131.233 129.813 131.174 129.838C131.115 129.864 131.051 129.877 130.987 129.876C130.92 129.878 130.853 129.865 130.791 129.839C130.729 129.813 130.673 129.774 130.627 129.725C130.581 129.676 130.545 129.617 130.523 129.554C130.501 129.49 130.492 129.423 130.498 129.355V129.379Z" fill="#263238"/>
<path d="M134.325 123.734H134.949L132.581 130.531H131.949L134.325 123.734Z" fill="#263238"/>
<path d="M136.376 123.734H137L134.631 130.531H134.008L136.376 123.734Z" fill="#263238"/>
<path d="M142.181 129.812V126.126L140.35 129.197H140.026L138.202 126.15V129.812H137.508V124.76H138.1L140.208 128.313L142.284 124.76H142.876V129.812H142.181Z" fill="#263238"/>
<path d="M146.341 128.044V129.797H145.622V128.044L143.617 124.752H144.407L145.985 127.413L147.612 124.752H148.33L146.341 128.044Z" fill="#263238"/>
<path d="M148.969 124.76H149.695V129.181H152.426V129.812H148.969V124.76Z" fill="#263238"/>
<path d="M153.258 124.76H153.984V129.812H153.258V124.76Z" fill="#263238"/>
<path d="M159.842 124.76V129.812H159.25L156.218 126.039V129.812H155.5V124.76H156.092L159.115 128.526V124.76H159.842Z" fill="#263238"/>
<path d="M162.998 127.563L162.074 128.502V129.812H161.34V124.76H162.058V127.578L164.805 124.76H165.595L163.44 127.034L165.729 129.812H164.884L162.998 127.563Z" fill="#263238"/>
<path d="M168.021 123.734H168.644L166.276 130.531H165.645L168.021 123.734Z" fill="#263238"/>
<path d="M108.639 104.284H109.065V105.863C108.636 106.22 108.092 106.408 107.534 106.392C107.246 106.41 106.957 106.368 106.685 106.27C106.414 106.172 106.165 106.019 105.955 105.821C105.745 105.624 105.577 105.385 105.463 105.12C105.348 104.855 105.289 104.569 105.289 104.28C105.289 103.992 105.348 103.706 105.463 103.441C105.577 103.176 105.745 102.937 105.955 102.739C106.165 102.542 106.414 102.389 106.685 102.291C106.957 102.193 107.246 102.151 107.534 102.169C107.825 102.15 108.116 102.194 108.388 102.297C108.661 102.401 108.908 102.562 109.113 102.769L108.836 103.045C108.673 102.882 108.478 102.754 108.264 102.67C108.049 102.586 107.819 102.547 107.589 102.556C107.353 102.54 107.116 102.572 106.893 102.652C106.669 102.731 106.465 102.856 106.292 103.017C106.119 103.179 105.981 103.375 105.887 103.592C105.792 103.809 105.744 104.044 105.744 104.28C105.744 104.517 105.792 104.752 105.887 104.969C105.981 105.186 106.119 105.382 106.292 105.543C106.465 105.705 106.669 105.83 106.893 105.909C107.116 105.989 107.353 106.021 107.589 106.005C107.975 106.016 108.354 105.903 108.671 105.682L108.639 104.284Z" fill="white"/>
<path d="M112.93 104.931H110.317C110.326 105.083 110.365 105.232 110.432 105.37C110.499 105.507 110.592 105.63 110.706 105.731C110.821 105.832 110.954 105.91 111.099 105.959C111.243 106.009 111.396 106.03 111.548 106.02C111.728 106.026 111.907 105.992 112.072 105.921C112.237 105.85 112.384 105.744 112.504 105.61L112.74 105.886C112.515 106.119 112.226 106.282 111.909 106.353C111.593 106.424 111.262 106.4 110.959 106.285C110.655 106.17 110.392 105.968 110.202 105.705C110.013 105.442 109.904 105.129 109.891 104.804C109.891 104.4 110.051 104.013 110.337 103.727C110.623 103.441 111.01 103.281 111.414 103.281C111.818 103.281 112.206 103.441 112.491 103.727C112.777 104.013 112.938 104.4 112.938 104.804C112.938 104.804 112.93 104.883 112.93 104.931ZM110.317 104.623H112.527C112.527 104.33 112.411 104.049 112.204 103.841C111.996 103.634 111.715 103.518 111.422 103.518C111.129 103.518 110.848 103.634 110.641 103.841C110.433 104.049 110.317 104.33 110.317 104.623Z" fill="white"/>
<path d="M115.444 106.177C115.254 106.322 115.02 106.398 114.781 106.39C114.658 106.404 114.534 106.39 114.417 106.349C114.3 106.309 114.194 106.242 114.106 106.155C114.018 106.068 113.951 105.963 113.909 105.846C113.868 105.73 113.853 105.606 113.865 105.483V103.572H113.312V103.217H113.865V102.53H114.291V103.217H115.239V103.572H114.291V105.435C114.281 105.51 114.287 105.586 114.309 105.658C114.332 105.731 114.37 105.797 114.422 105.852C114.473 105.907 114.536 105.95 114.607 105.978C114.677 106.006 114.753 106.017 114.828 106.012C114.999 106.016 115.165 105.957 115.294 105.846L115.444 106.177Z" fill="white"/>
<path d="M117.848 102.208H118.282V105.989H120.611V106.368H117.848V102.208Z" fill="white"/>
<path d="M121.16 102.255C121.161 102.216 121.17 102.177 121.186 102.141C121.202 102.105 121.225 102.072 121.254 102.045C121.282 102.018 121.316 101.997 121.353 101.983C121.389 101.969 121.429 101.962 121.468 101.963C121.507 101.961 121.546 101.966 121.583 101.98C121.62 101.993 121.653 102.013 121.682 102.04C121.711 102.066 121.734 102.098 121.75 102.134C121.766 102.17 121.775 102.208 121.776 102.247C121.776 102.329 121.743 102.407 121.686 102.465C121.628 102.522 121.55 102.555 121.468 102.555C121.386 102.555 121.308 102.522 121.25 102.465C121.193 102.407 121.16 102.329 121.16 102.247V102.255ZM121.255 103.242H121.673V106.399H121.255V103.242Z" fill="white"/>
<path d="M125.721 104.553V106.368H125.303V104.592C125.321 104.462 125.31 104.329 125.27 104.204C125.23 104.079 125.162 103.964 125.072 103.869C124.982 103.773 124.871 103.699 124.749 103.652C124.626 103.605 124.494 103.587 124.363 103.597C124.214 103.587 124.065 103.61 123.925 103.664C123.786 103.718 123.66 103.801 123.556 103.909C123.453 104.016 123.374 104.145 123.325 104.286C123.276 104.427 123.259 104.578 123.274 104.726V106.368H122.848V103.211H123.25V103.787C123.378 103.59 123.555 103.43 123.765 103.325C123.974 103.219 124.208 103.172 124.442 103.187C124.622 103.172 124.802 103.197 124.97 103.262C125.138 103.327 125.289 103.428 125.413 103.56C125.536 103.691 125.627 103.849 125.681 104.021C125.734 104.193 125.748 104.374 125.721 104.553Z" fill="white"/>
<path d="M128.024 104.796L127.282 105.475V106.367H126.863V101.994H127.282V104.978L129.153 103.272H129.674L128.339 104.551L129.8 106.399H129.279L128.024 104.796Z" fill="white"/>
<path d="M200.879 127.729C200.876 127.444 200.93 127.161 201.04 126.898C201.15 126.635 201.312 126.397 201.516 126.199C201.721 126.001 201.964 125.847 202.231 125.746C202.497 125.645 202.781 125.6 203.066 125.613C203.347 125.603 203.627 125.652 203.888 125.757C204.149 125.862 204.385 126.02 204.581 126.221L204.305 126.505C204.146 126.341 203.954 126.213 203.742 126.127C203.53 126.041 203.302 126.001 203.074 126.008C202.617 126.008 202.18 126.189 201.857 126.512C201.534 126.834 201.353 127.272 201.353 127.729C201.353 128.185 201.534 128.623 201.857 128.945C202.18 129.268 202.617 129.449 203.074 129.449C203.302 129.458 203.531 129.419 203.743 129.333C203.955 129.247 204.147 129.117 204.305 128.952L204.581 129.236C204.384 129.438 204.146 129.596 203.884 129.701C203.622 129.806 203.34 129.855 203.058 129.844C202.774 129.857 202.49 129.812 202.224 129.711C201.958 129.61 201.715 129.456 201.511 129.257C201.307 129.059 201.146 128.821 201.037 128.558C200.928 128.295 200.875 128.013 200.879 127.729Z" fill="white"/>
<path d="M205.064 127.729C205.049 127.294 205.166 126.864 205.398 126.495C205.63 126.126 205.966 125.835 206.365 125.658C206.763 125.482 207.206 125.429 207.635 125.506C208.064 125.583 208.46 125.786 208.772 126.09C209.085 126.393 209.3 126.783 209.389 127.21C209.479 127.636 209.439 128.08 209.274 128.483C209.11 128.887 208.828 129.232 208.466 129.475C208.104 129.717 207.678 129.846 207.242 129.845C206.958 129.857 206.675 129.811 206.41 129.709C206.144 129.608 205.902 129.454 205.698 129.256C205.494 129.058 205.333 128.82 205.224 128.558C205.115 128.295 205.06 128.014 205.064 127.729ZM209.011 127.729C209.015 127.383 208.917 127.044 208.728 126.754C208.539 126.464 208.269 126.236 207.95 126.101C207.632 125.965 207.28 125.927 206.94 125.992C206.601 126.056 206.287 126.221 206.041 126.464C205.795 126.707 205.626 127.017 205.557 127.357C205.488 127.696 205.521 128.048 205.652 128.368C205.783 128.688 206.007 128.962 206.294 129.155C206.582 129.347 206.92 129.45 207.266 129.45C207.493 129.455 207.719 129.413 207.93 129.328C208.14 129.243 208.332 129.116 208.492 128.956C208.653 128.795 208.78 128.604 208.865 128.393C208.95 128.182 208.991 127.957 208.987 127.729H209.011Z" fill="white"/>
<path d="M213.662 127.081C213.662 127.966 213.023 128.494 211.965 128.494H210.844V129.813H210.41V125.676H211.989C213.023 125.676 213.662 126.189 213.662 127.081ZM213.22 127.081C213.22 126.41 212.786 126.031 211.949 126.031H210.844V128.108H211.949C212.786 128.108 213.22 127.729 213.22 127.081Z" fill="white"/>
<path d="M216.037 128.376V129.813H215.603V128.376L213.938 125.676H214.403L215.832 128.044L217.261 125.676H217.695L216.037 128.376Z" fill="white"/>
<path d="M221.388 120.884V134.73H196.356V120.884H221.388ZM222.177 120.095H195.566V135.52H222.177V120.095Z" fill="white"/>
<path d="M218.777 147.188H176.473C174.594 147.188 173.07 148.711 173.07 150.59V159.407C173.07 161.287 174.594 162.81 176.473 162.81H218.777C220.656 162.81 222.179 161.287 222.179 159.407V150.59C222.179 148.711 220.656 147.188 218.777 147.188Z" fill="#407BFF"/>
<path d="M184.902 156.581L185.179 156.005C185.657 156.396 186.258 156.606 186.876 156.597C187.768 156.597 188.147 156.258 188.147 155.808C188.147 154.544 184.989 155.342 184.989 153.439C184.989 152.65 185.605 151.963 186.963 151.963C187.547 151.956 188.122 152.114 188.62 152.421L188.376 153.005C187.953 152.737 187.464 152.592 186.963 152.587C186.086 152.587 185.708 152.958 185.708 153.376C185.708 154.631 188.865 153.842 188.865 155.744C188.865 156.534 188.226 157.213 186.868 157.213C186.16 157.235 185.465 157.012 184.902 156.581Z" fill="white"/>
<path d="M194.378 152.018V157.165H193.644V154.884H190.683V157.181H189.949V152.034H190.683V154.244H193.644V152.034L194.378 152.018Z" fill="white"/>
<path d="M199.226 155.878H196.463L195.895 157.165H195.105L197.474 152.018H198.2L200.568 157.165H199.779L199.226 155.878ZM198.966 155.286L197.86 152.768L196.747 155.286H198.966Z" fill="white"/>
<path d="M204.758 157.165L203.645 155.586H203.321H202.051V157.165H201.316V152.018H203.321C204.663 152.018 205.477 152.689 205.477 153.81C205.492 154.168 205.389 154.522 205.183 154.815C204.978 155.109 204.681 155.327 204.34 155.436L205.563 157.165H204.758ZM204.758 153.81C204.758 153.076 204.269 152.657 203.329 152.657H202.074V154.97H203.329C204.245 154.97 204.758 154.544 204.758 153.81Z" fill="white"/>
<path d="M210.402 156.526V157.165H206.668V152.018H210.283V152.657H207.386V154.236H209.968V154.884H207.386V156.549L210.402 156.526Z" fill="white"/>
<path d="M275.214 95.7891H262.197C260.867 95.7891 259.789 96.867 259.789 98.1967V111.214C259.789 112.544 260.867 113.622 262.197 113.622H275.214C276.544 113.622 277.622 112.544 277.622 111.214V98.1967C277.622 96.867 276.544 95.7891 275.214 95.7891Z" fill="#407BFF"/>
<path d="M264.593 101.592C265.204 101.592 265.699 101.097 265.699 100.487C265.699 99.8761 265.204 99.3813 264.593 99.3813C263.983 99.3813 263.488 99.8761 263.488 100.487C263.488 101.097 263.983 101.592 264.593 101.592Z" fill="white"/>
<path d="M272.824 105.586C273.434 105.586 273.929 105.091 273.929 104.481C273.929 103.87 273.434 103.375 272.824 103.375C272.214 103.375 271.719 103.87 271.719 104.481C271.719 105.091 272.214 105.586 272.824 105.586Z" fill="white"/>
<path d="M266.12 108.924C266.12 109.143 266.056 109.357 265.934 109.538C265.813 109.72 265.64 109.862 265.438 109.946C265.236 110.029 265.014 110.051 264.8 110.008C264.585 109.966 264.388 109.861 264.234 109.706C264.079 109.551 263.974 109.354 263.931 109.14C263.889 108.926 263.911 108.704 263.994 108.502C264.078 108.3 264.22 108.127 264.401 108.006C264.583 107.884 264.797 107.819 265.015 107.819C265.308 107.819 265.59 107.936 265.797 108.143C266.004 108.35 266.12 108.631 266.12 108.924Z" fill="white"/>
<path d="M265.108 109.098L264.91 108.758L272.394 104.495L264.508 100.659L264.681 100.304L273.239 104.464L265.108 109.098Z" fill="white"/>
<path d="M269.159 111.467C269.159 111.467 269.159 115.177 271.275 116.914C271.275 116.914 268.338 116.408 266.988 112.098L269.159 111.467Z" fill="#407BFF"/>
<path d="M269.179 285.397H274.934V225.205H269.179V285.397Z" fill="#407BFF"/>
<path opacity="0.2" d="M269.179 285.397H274.934V225.205H269.179V285.397Z" fill="black"/>
<path d="M227.98 285.397H233.734V225.205H227.98V285.397Z" fill="#407BFF"/>
<path opacity="0.2" d="M227.98 285.397H233.734V225.205H227.98V285.397Z" fill="black"/>
<path d="M276.745 285.397H282.5V225.205H276.745V285.397Z" fill="#407BFF"/>
<path d="M317.944 285.397H323.699V225.205H317.944V285.397Z" fill="#407BFF"/>
<path d="M216.184 222.979V227.431C216.183 227.602 216.215 227.771 216.28 227.929C216.344 228.087 216.44 228.23 216.56 228.352C216.68 228.473 216.823 228.569 216.981 228.634C217.139 228.7 217.308 228.733 217.478 228.733H329.147C329.493 228.733 329.824 228.596 330.068 228.352C330.313 228.108 330.45 227.776 330.45 227.431V222.979C330.448 222.635 330.31 222.305 330.066 222.063C329.822 221.82 329.491 221.684 329.147 221.684H217.478C217.135 221.684 216.806 221.82 216.563 222.063C216.32 222.306 216.184 222.635 216.184 222.979Z" fill="#407BFF"/>
<path opacity="0.2" d="M216.184 222.979V227.431C216.183 227.602 216.215 227.771 216.28 227.929C216.344 228.087 216.44 228.23 216.56 228.352C216.68 228.473 216.823 228.569 216.981 228.634C217.139 228.7 217.308 228.733 217.478 228.733H329.147C329.493 228.733 329.824 228.596 330.068 228.352C330.313 228.108 330.45 227.776 330.45 227.431V222.979C330.448 222.635 330.31 222.305 330.066 222.063C329.822 221.82 329.491 221.684 329.147 221.684H217.478C217.135 221.684 216.806 221.82 216.563 222.063C216.32 222.306 216.184 222.635 216.184 222.979Z" fill="white"/>
<path opacity="0.3" d="M285.551 222.979V227.431C285.551 227.776 285.688 228.108 285.932 228.352C286.177 228.596 286.508 228.733 286.853 228.733H329.15C329.495 228.733 329.826 228.596 330.071 228.352C330.315 228.108 330.452 227.776 330.452 227.431V222.979C330.45 222.635 330.312 222.305 330.068 222.063C329.824 221.82 329.494 221.684 329.15 221.684H286.853C286.509 221.684 286.179 221.82 285.935 222.063C285.691 222.305 285.553 222.635 285.551 222.979Z" fill="white"/>
<path d="M284.697 122.518C286.542 123.03 288.164 124.14 289.307 125.675C290.451 127.211 291.051 129.083 291.013 130.996C291.013 134.833 291.123 134.785 293.31 136.191C295.496 137.596 291.905 140.138 291.905 140.138C292.154 140.545 292.264 141.024 292.217 141.5C292.17 141.976 291.969 142.423 291.644 142.774C290.499 144.045 292.733 144.464 292.733 144.464C292.733 144.464 291.802 146.476 290.602 145.387C290.602 145.387 290.728 147.558 287.208 147.708C283.687 147.858 278.035 149.35 276.693 147.479C275.351 145.608 271.08 140.193 271.08 140.193C271.08 140.193 267.33 138.717 268.428 133.601C269.525 128.486 273.48 124.784 277.174 124.918C280.869 125.052 284.697 122.518 284.697 122.518Z" fill="#263238"/>
<path d="M259.507 153.463C259.507 153.463 256.555 154.055 256.563 154.6C256.57 155.144 257.715 159.399 258.244 159.92C258.792 160.374 259.391 160.764 260.028 161.081L259.278 167.964L263.312 169.006L263.367 161.665C263.367 161.665 264.788 159.51 263.77 157.386C262.751 155.263 259.507 153.463 259.507 153.463Z" fill="#E4897B"/>
<path opacity="0.2" d="M259.507 153.463C259.507 153.463 256.555 154.055 256.563 154.6C256.57 155.144 257.715 159.399 258.244 159.92C258.792 160.374 259.391 160.764 260.028 161.081L259.278 167.964L263.312 169.006L263.367 161.665C263.367 161.665 264.788 159.51 263.77 157.386C262.751 155.263 259.507 153.463 259.507 153.463Z" fill="black"/>
<path d="M270.227 154.268C267.558 156.178 266.548 166.741 265.49 168.272C264.432 169.804 264.014 165.351 264.014 165.351L258.646 165.099C258.646 165.099 257.912 171.374 261.014 175.842C264.117 180.311 269.832 176.987 273.076 169.827C276.321 162.667 270.227 154.268 270.227 154.268Z" fill="#263238"/>
<path opacity="0.2" d="M261.014 175.842C261.579 176.735 262.44 177.4 263.446 177.721C266.564 178.613 270.55 175.353 273.069 169.827C273.821 168.107 274.138 166.228 273.992 164.357C273.645 158.981 270.227 154.268 270.227 154.268C267.566 156.178 266.548 166.741 265.49 168.272C264.432 169.804 264.022 165.351 264.022 165.351L258.646 165.091C258.646 165.091 257.912 171.382 261.014 175.842Z" fill="white"/>
<path d="M270.148 154.371C268.782 154.544 265.293 166.07 265.293 166.07L274.024 169.882L276.337 163.086L270.148 154.371Z" fill="#407BFF"/>
<path opacity="0.5" d="M276.337 163.054L274.024 169.883L271.774 168.912L265.293 166.101C265.293 166.101 268.782 154.576 270.148 154.402L272.721 158.01L276.337 163.054Z" fill="white"/>
<path opacity="0.2" d="M276.336 163.055L274.023 169.883L271.774 168.912C270.972 167.169 270.637 165.247 270.803 163.336C270.969 161.424 271.63 159.589 272.721 158.01L276.336 163.055Z" fill="black"/>
<path d="M235.149 278.725L229.82 277.265L230.775 264.271L236.088 265.74L235.149 278.725Z" fill="#E4897B"/>
<path d="M229.494 276.555L235.675 276.989C235.726 276.989 235.777 276.999 235.824 277.019C235.871 277.04 235.913 277.069 235.949 277.106C235.984 277.143 236.012 277.186 236.03 277.234C236.048 277.282 236.056 277.333 236.054 277.384V282.294C236.047 282.421 236.015 282.546 235.959 282.661C235.904 282.775 235.826 282.878 235.731 282.962C235.635 283.047 235.524 283.111 235.403 283.152C235.283 283.194 235.155 283.21 235.028 283.202C232.873 283.02 231.87 282.823 229.139 282.61C226.715 282.541 224.298 282.301 221.908 281.891C219.658 281.37 220.234 279.152 221.229 279.176C223.84 279.033 226.369 278.217 228.571 276.808C228.845 276.63 229.168 276.542 229.494 276.555Z" fill="#263238"/>
<path d="M226.461 277.013C226.377 276.914 226.322 276.794 226.304 276.665C226.285 276.536 226.305 276.405 226.359 276.287C226.378 276.208 226.417 276.135 226.472 276.076C226.528 276.016 226.597 275.972 226.675 275.947C227.369 275.734 228.853 276.902 229.043 277.037C229.059 277.055 229.071 277.076 229.077 277.099C229.084 277.123 229.086 277.147 229.082 277.171C229.075 277.194 229.061 277.215 229.043 277.232C229.025 277.248 229.003 277.26 228.98 277.266C228.49 277.352 227.992 277.384 227.496 277.36C227.119 277.379 226.75 277.255 226.461 277.013ZM226.753 276.224C226.715 276.234 226.679 276.255 226.651 276.284C226.624 276.314 226.604 276.35 226.596 276.389C226.565 276.465 226.554 276.548 226.564 276.629C226.573 276.711 226.603 276.788 226.651 276.855C226.896 277.124 227.614 277.21 228.616 277.084C228.001 276.634 227.124 276.105 226.753 276.224Z" fill="#407BFF"/>
<path d="M228.863 277.241C228.342 276.878 227.6 275.662 227.766 275.078C227.796 274.973 227.86 274.88 227.949 274.816C228.038 274.752 228.146 274.719 228.255 274.723C228.355 274.715 228.456 274.729 228.549 274.766C228.642 274.803 228.725 274.861 228.792 274.936C229.305 275.512 229.068 277.107 229.068 277.154C229.062 277.175 229.052 277.194 229.039 277.21C229.025 277.226 229.008 277.239 228.989 277.249C228.981 277.253 228.971 277.255 228.962 277.255C228.952 277.255 228.943 277.253 228.934 277.249C228.91 277.254 228.885 277.252 228.863 277.241ZM228.263 274.999C228.082 274.999 228.026 275.094 228.011 275.165C228.056 275.82 228.336 276.437 228.8 276.902C228.918 276.302 228.835 275.681 228.563 275.133C228.531 275.092 228.491 275.059 228.444 275.036C228.398 275.013 228.347 275 228.295 274.999H228.263Z" fill="#407BFF"/>
<path opacity="0.2" d="M236.088 265.74L230.775 264.28L230.23 271.708L235.575 272.9L236.088 265.74Z" fill="black"/>
<path d="M242.102 278.536L247.13 280.825L248.409 275.425L250.13 268.163L245.117 265.866L243.388 273.12L242.102 278.536Z" fill="#E4897B"/>
<path opacity="0.2" d="M243.387 273.12L248.407 275.425L250.128 268.163L245.116 265.866L243.387 273.12Z" fill="black"/>
<path d="M241.895 277.786L247.926 279.192C248.028 279.211 248.119 279.27 248.178 279.355C248.237 279.441 248.26 279.547 248.242 279.649L247.452 284.496C247.424 284.62 247.372 284.736 247.299 284.84C247.226 284.943 247.133 285.031 247.026 285.098C246.919 285.166 246.8 285.211 246.675 285.233C246.551 285.254 246.423 285.251 246.3 285.223C244.2 284.702 243.229 284.346 240.576 283.699C238.193 283.247 235.845 282.625 233.551 281.836C231.411 280.96 232.335 278.868 233.322 279.049C235.92 279.319 238.544 278.913 240.94 277.873C241.241 277.746 241.575 277.716 241.895 277.786Z" fill="#263238"/>
<path d="M238.836 277.755C238.765 277.646 238.727 277.518 238.727 277.388C238.727 277.257 238.765 277.13 238.836 277.021C238.869 276.946 238.92 276.88 238.985 276.83C239.05 276.781 239.126 276.748 239.207 276.736C239.925 276.634 241.204 278.023 241.354 278.189C241.364 278.21 241.369 278.233 241.369 278.256C241.369 278.279 241.364 278.302 241.354 278.323C241.344 278.346 241.328 278.365 241.306 278.378C241.285 278.39 241.26 278.396 241.236 278.394C240.74 278.401 240.246 278.356 239.759 278.26C239.4 278.212 239.07 278.032 238.836 277.755ZM239.246 277.013C239.206 277.017 239.168 277.033 239.136 277.058C239.104 277.083 239.079 277.117 239.065 277.155C239.024 277.226 239.002 277.306 239.002 277.388C239.002 277.469 239.024 277.55 239.065 277.621C239.262 277.928 239.957 278.126 240.967 278.157C240.43 277.613 239.641 276.957 239.262 277.013H239.246Z" fill="#407BFF"/>
<path d="M241.162 278.378C240.696 277.944 240.159 276.626 240.42 276.073C240.467 275.973 240.546 275.891 240.645 275.841C240.743 275.791 240.856 275.776 240.964 275.797C241.063 275.809 241.157 275.842 241.242 275.894C241.326 275.946 241.398 276.015 241.454 276.097C241.872 276.752 241.383 278.283 241.375 278.331C241.354 278.369 241.321 278.4 241.28 278.418C241.262 278.424 241.243 278.424 241.225 278.418C241.212 278.418 241.198 278.415 241.187 278.408C241.176 278.401 241.167 278.39 241.162 278.378ZM240.925 276.073C240.743 276.073 240.672 276.128 240.649 276.199C240.596 276.86 240.787 277.517 241.186 278.047C241.389 277.472 241.406 276.847 241.233 276.262C241.207 276.217 241.172 276.177 241.13 276.146C241.087 276.115 241.039 276.093 240.988 276.081L240.925 276.073Z" fill="#407BFF"/>
<path d="M279.371 204.766L280.997 186.815L310.995 187.517C310.995 187.517 314.484 212.51 311.934 217.128C307.332 225.33 277.121 220.673 270.095 221.367C267.167 222.907 251.726 274.084 251.726 274.084L243.082 270.594C243.082 270.594 252.381 227.398 254.497 219.283C257.441 207.955 269.488 208.153 279.371 204.766Z" fill="#263238"/>
<path d="M229.699 269.711L237.325 270.414C237.325 270.414 246.679 222.773 247.382 222.591C248.684 222.22 252.474 221.802 254.487 221.265C268.633 217.587 303.485 210.813 303.485 210.813L290.633 198.428C290.633 198.428 232.383 205.406 231.12 219.102C230.497 225.678 229.699 269.711 229.699 269.711Z" fill="#263238"/>
<path opacity="0.2" d="M249.466 222.623C250.768 222.252 252.497 221.794 254.534 221.265C253.965 221.565 255.607 214.161 257.241 212.227C260.478 208.406 273.495 206.345 278.168 205.596C282.068 204.972 295.172 203.811 295.172 203.811C295.172 203.811 272.043 201.814 254.613 206.598C246 208.966 247.532 217.373 249.466 222.623Z" fill="black"/>
<path d="M265.281 155.823C265.298 155.887 265.302 155.953 265.291 156.018C265.281 156.083 265.256 156.145 265.22 156.2C265.183 156.255 265.135 156.301 265.079 156.335C265.022 156.37 264.96 156.391 264.894 156.399L259.802 157.11C259.662 157.127 259.519 157.093 259.401 157.015C259.282 156.937 259.195 156.82 259.155 156.683L256.605 146.792C256.586 146.725 256.581 146.654 256.59 146.585C256.599 146.515 256.622 146.448 256.657 146.388C256.693 146.328 256.74 146.275 256.796 146.233C256.852 146.191 256.916 146.161 256.984 146.145L262.076 145.434C262.227 145.43 262.374 145.476 262.495 145.567C262.615 145.657 262.701 145.786 262.739 145.932L265.281 155.823Z" fill="#263238"/>
<path opacity="0.5" d="M262.158 145.948L264.748 155.934C264.77 155.991 264.779 156.052 264.773 156.113C264.768 156.174 264.748 156.233 264.716 156.285C264.684 156.337 264.64 156.381 264.588 156.413C264.536 156.445 264.477 156.465 264.416 156.471L260.098 157.071C259.806 157.071 259.253 157.031 259.182 156.747L256.601 146.729C256.53 146.445 256.996 146.145 257.28 146.106L261.598 145.498C261.73 145.49 261.861 145.532 261.965 145.615C262.068 145.698 262.137 145.817 262.158 145.948Z" fill="white"/>
<path d="M242.417 268.59L242.102 271.503L252.103 275.023L253.043 272.9L242.417 268.59Z" fill="#407BFF"/>
<path d="M228.113 267.145L228.421 270.05L237.941 271.139L238.344 268.858L228.113 267.145Z" fill="#407BFF"/>
<path d="M280.304 190.478C278.552 180.429 275.607 166.969 270.145 154.371C273.016 153.159 275.97 152.157 278.986 151.371C283.391 150.181 287.861 149.246 292.374 148.568C295.494 148.236 298.635 148.151 301.768 148.316C301.768 148.316 308.525 160.946 311.951 190.486L280.304 190.478Z" fill="#407BFF"/>
<path opacity="0.6" d="M311.944 190.478H280.304C278.552 180.429 275.607 166.969 270.145 154.371C273.014 153.156 275.969 152.153 278.986 151.371C283.391 150.181 287.861 149.246 292.374 148.568C295.494 148.236 298.635 148.151 301.768 148.316C302.383 149.533 302.931 150.782 303.41 152.058C305.134 156.585 306.558 161.221 307.673 165.935C309.606 174.019 311.032 182.216 311.944 190.478Z" fill="white"/>
<path opacity="0.2" d="M307.673 165.935C302.55 169.748 295.098 164.357 295.098 164.357L303.434 152.05C305.15 156.58 306.566 161.219 307.673 165.935Z" fill="black"/>
<path d="M285.143 156.653C290.132 157.758 294 150.566 294 150.566C294 150.566 294 148.664 286.438 149.611C278.875 150.558 278.118 155.097 285.143 156.653Z" fill="#263238"/>
<path opacity="0.2" d="M285.143 156.653C290.132 157.758 294 150.566 294 150.566C294 150.566 294 148.664 286.438 149.611C278.875 150.558 278.118 155.097 285.143 156.653Z" fill="white"/>
<path opacity="0.5" d="M280.113 166.567L292.641 165.217L295.672 179.663L283.531 180.619L280.113 166.567Z" fill="white"/>
<path opacity="0.2" d="M280.113 166.567L295.672 179.663L292.641 165.217L280.113 166.567Z" fill="black"/>
<path d="M273.701 161.239L269.154 158.255C269.154 158.255 267.22 152.437 266.786 151.861C266.351 151.285 261.552 152.595 261.023 152.65C260.494 152.706 261.899 158.65 262.539 159.163C263.178 159.676 265.27 159.739 265.27 159.739L270.433 164.357L273.701 161.239Z" fill="#E4897B"/>
<path d="M301.008 148.316C297.977 149.019 290.691 161.618 286.799 163.938C282.907 166.259 272.132 158.831 272.132 158.831L268.445 163.417C268.445 163.417 277.168 171.106 284.802 171.311C292.435 171.517 303.258 160.694 304.868 156.739C306.479 152.784 304.703 147.464 301.008 148.316Z" fill="#263238"/>
<path opacity="0.2" d="M301.008 148.316C297.977 149.019 290.691 161.618 286.799 163.938C282.907 166.259 272.132 158.831 272.132 158.831L268.445 163.417C268.445 163.417 277.168 171.106 284.802 171.311C292.435 171.517 303.258 160.694 304.868 156.739C306.479 152.784 304.703 147.464 301.008 148.316Z" fill="white"/>
<path d="M284.919 137.28C286.111 141.598 288.953 149.192 293.019 150.439C293.019 150.439 290.027 155.341 285.543 155.752C282.693 156.012 281.115 152.792 281.115 152.792C284.02 152.247 282.906 150.116 280.617 147.447L284.919 137.28Z" fill="#E4897B"/>
<path opacity="0.2" d="M283.163 141.464L280.621 147.479C281.157 148.102 281.646 148.764 282.081 149.461C284.939 149.682 286.992 145.15 286.289 143.303C286.06 142.506 283.692 142.04 283.163 141.464Z" fill="black"/>
<path d="M275.011 130.413C277.734 131.542 277.213 134.518 272.698 139.933C269.911 137.565 268.404 132.086 269.864 130.334C271.324 128.581 272.643 129.418 275.011 130.413Z" fill="#263238"/>
<path d="M286.246 132.717C287.193 138.614 288.046 142.009 285.78 145.656C282.378 151.134 274.602 150.084 271.902 144.59C269.495 139.656 268.342 130.839 273.481 127.223C274.618 126.426 275.939 125.933 277.319 125.79C278.7 125.648 280.094 125.86 281.37 126.407C282.645 126.954 283.76 127.818 284.607 128.917C285.455 130.016 286.008 131.313 286.214 132.686L286.246 132.717Z" fill="#E4897B"/>
<path d="M277.914 136.262C278.024 136.735 277.859 137.177 277.543 137.241C277.227 137.304 276.903 136.988 276.801 136.514C276.698 136.041 276.856 135.607 277.156 135.528C277.456 135.449 277.78 135.804 277.914 136.262Z" fill="#263238"/>
<path d="M272.538 137.517C272.641 137.99 272.475 138.432 272.167 138.496C271.86 138.559 271.52 138.243 271.378 137.769C271.236 137.296 271.441 136.854 271.749 136.783C272.057 136.711 272.428 137.004 272.538 137.517Z" fill="#263238"/>
<path d="M274.35 137.304C274.11 138.877 273.653 140.41 272.992 141.859C273.369 142.019 273.777 142.094 274.186 142.079C274.595 142.064 274.996 141.959 275.36 141.772L274.35 137.304Z" fill="#DE5753"/>
<path d="M279.002 134.234C279.033 134.233 279.064 134.226 279.093 134.212C279.122 134.198 279.147 134.179 279.167 134.155C279.194 134.128 279.215 134.097 279.229 134.062C279.244 134.028 279.251 133.991 279.251 133.953C279.251 133.916 279.244 133.879 279.229 133.844C279.215 133.81 279.194 133.778 279.167 133.752C278.827 133.452 278.421 133.238 277.982 133.127C277.542 133.015 277.083 133.011 276.641 133.113C276.572 133.135 276.514 133.181 276.477 133.244C276.441 133.307 276.429 133.381 276.444 133.452C276.468 133.523 276.518 133.582 276.584 133.618C276.65 133.653 276.727 133.662 276.799 133.642C277.148 133.568 277.509 133.577 277.853 133.669C278.197 133.761 278.515 133.933 278.781 134.17C278.811 134.196 278.846 134.214 278.884 134.225C278.922 134.236 278.962 134.239 279.002 134.234Z" fill="#263238"/>
<path d="M269.684 136.215C269.737 136.203 269.785 136.176 269.824 136.139C269.863 136.101 269.891 136.054 269.905 136.002C269.98 135.657 270.134 135.334 270.356 135.06C270.579 134.786 270.862 134.568 271.184 134.423C271.245 134.39 271.293 134.337 271.318 134.272C271.343 134.207 271.344 134.136 271.321 134.07C271.299 134.005 271.253 133.949 271.193 133.914C271.134 133.879 271.063 133.866 270.995 133.878C270.58 134.06 270.214 134.338 269.929 134.69C269.643 135.041 269.446 135.456 269.353 135.899C269.343 135.935 269.341 135.972 269.347 136.009C269.352 136.046 269.364 136.081 269.384 136.112C269.403 136.144 269.428 136.172 269.458 136.193C269.488 136.215 269.522 136.23 269.558 136.239C269.601 136.239 269.644 136.231 269.684 136.215Z" fill="#263238"/>
<path d="M282.772 128.083C280.261 129.662 281.248 132.48 286.577 137.106C288.945 134.296 289.561 128.667 287.84 127.175C286.119 125.684 284.958 126.741 282.772 128.083Z" fill="#263238"/>
<path d="M290.058 136.728C289.971 138.229 289.293 139.634 288.172 140.635C286.672 141.946 285.069 140.809 284.769 138.954C284.493 137.273 284.951 134.573 286.798 133.981C287.204 133.853 287.635 133.83 288.052 133.914C288.469 133.998 288.858 134.185 289.183 134.459C289.508 134.733 289.758 135.085 289.912 135.481C290.065 135.878 290.115 136.307 290.058 136.728Z" fill="#E4897B"/>
<path d="M276.34 143.044C276.74 143.637 277.098 144.257 277.413 144.899L277.777 144.788C279.411 144.275 280.003 143.502 280.145 142.799C280.233 142.258 280.139 141.702 279.876 141.22C279.007 141.984 277.984 142.552 276.877 142.886L276.34 143.044Z" fill="#263238"/>
<path d="M276.891 142.878L277.222 143.414C278.762 142.933 279.78 142.38 280.111 141.765C280.062 141.571 279.988 141.386 279.89 141.212C279.021 141.976 277.998 142.544 276.891 142.878Z" fill="white"/>
<path d="M277.773 144.803C279.408 144.29 280 143.517 280.142 142.814C279.522 143.016 278.945 143.329 278.437 143.738C278.109 144.014 277.877 144.387 277.773 144.803Z" fill="#A24E3F"/>
<path d="M287.806 128.044C287.806 128.044 289.258 125.676 286.14 123.308C283.022 120.94 279.241 123.308 279.241 123.308C279.241 123.308 278.601 122.692 276.336 122.242C274.07 121.792 270.992 125.005 269.121 125.771C267.25 126.537 265.324 128.565 266.31 131.012C267.297 133.46 264.329 139.088 268.757 138.457C268.357 138.26 268.046 137.917 267.891 137.498C267.735 137.08 267.746 136.618 267.921 136.207C268.442 134.549 270.289 134.502 270.352 131.068C270.415 127.634 273.66 129.805 273.66 129.805C273.66 129.805 274.686 128.226 276.091 128.36C277.496 128.494 279.943 129.576 280.283 133.886C280.622 138.196 283.946 139.293 286.811 136.751C289.677 134.21 290.253 134.257 290.758 135.536C290.758 135.536 291.848 133.673 289.503 133.057C287.159 132.441 286.922 129.299 287.806 128.044Z" fill="#263238"/>
<path d="M291.66 156.108L301.551 163.473C301.551 163.473 308.601 155.579 304.543 149.429C300.486 143.28 291.66 156.108 291.66 156.108Z" fill="#407BFF"/>
<path opacity="0.5" d="M291.66 156.108L301.551 163.473C301.551 163.473 308.601 155.579 304.543 149.429C300.486 143.28 291.66 156.108 291.66 156.108Z" fill="white"/>
</svg>
