<svg width="31" height="25" viewBox="0 0 31 25" fill="none" xmlns="http://www.w3.org/2000/svg">
<g clip-path="url(#clip0_360_2815)">
<path d="M5.61331 24.3805V22.7921C5.61331 22.183 5.24258 21.786 4.60712 21.786C4.28945 21.786 3.94525 21.8919 3.70694 22.2361C3.5217 21.9448 3.25697 21.786 2.85983 21.786C2.59498 21.786 2.33038 21.8654 2.11848 22.1566V21.839H1.5625V24.3805H2.11848V22.9773C2.11848 22.5274 2.35679 22.3155 2.72753 22.3155C3.09802 22.3155 3.28351 22.5538 3.28351 22.9773V24.3805H3.83949V22.9773C3.83949 22.5274 4.10409 22.3155 4.44829 22.3155C4.81902 22.3155 5.00427 22.5538 5.00427 22.9773V24.3805H5.61331ZM13.847 21.839H12.9469V21.0712H12.391V21.839H11.8879V22.3419H12.3908V23.5069C12.3908 24.0894 12.6292 24.4335 13.2646 24.4335C13.5029 24.4335 13.7675 24.3541 13.953 24.2482L13.7941 23.7716C13.6352 23.8775 13.45 23.904 13.3176 23.904C13.0528 23.904 12.9469 23.7452 12.9469 23.4804V22.3419H13.847V21.839ZM18.5597 21.7859C18.242 21.7859 18.0302 21.9448 17.8978 22.1566V21.839H17.3418V24.3805H17.8978V22.9509C17.8978 22.5274 18.0831 22.289 18.4273 22.289C18.5332 22.289 18.6656 22.3156 18.7715 22.342L18.9303 21.8125C18.8244 21.786 18.6656 21.786 18.5597 21.786M11.4378 22.0509C11.173 21.8655 10.8024 21.7861 10.4052 21.7861C9.7699 21.7861 9.34634 22.1038 9.34634 22.6068C9.34634 23.0305 9.66401 23.2687 10.22 23.3482L10.4847 23.3747C10.776 23.4275 10.9348 23.507 10.9348 23.6394C10.9348 23.8247 10.723 23.9571 10.3523 23.9571C9.98168 23.9571 9.69042 23.8247 9.50505 23.6924L9.24033 24.1159C9.53159 24.3277 9.92873 24.4336 10.3258 24.4336C11.0671 24.4336 11.4908 24.0895 11.4908 23.6129C11.4908 23.1628 11.1466 22.9245 10.617 22.8451L10.3523 22.8186C10.114 22.7921 9.92873 22.7393 9.92873 22.5804C9.92873 22.3951 10.114 22.2892 10.4052 22.2892C10.723 22.2892 11.0407 22.4215 11.1995 22.5009L11.4378 22.0509ZM26.2111 21.7861C25.8933 21.7861 25.6815 21.945 25.5491 22.1567V21.8391H24.9931V24.3807H25.5491V22.951C25.5491 22.5275 25.7345 22.2892 26.0786 22.2892C26.1846 22.2892 26.317 22.3157 26.4229 22.3421L26.5817 21.8127C26.4758 21.7861 26.317 21.7861 26.2111 21.7861ZM19.1157 23.1099C19.1157 23.8776 19.6451 24.4336 20.4659 24.4336C20.8365 24.4336 21.1013 24.3543 21.366 24.1425L21.1013 23.6924C20.8895 23.8512 20.6777 23.9306 20.4394 23.9306C19.9893 23.9306 19.6716 23.6129 19.6716 23.1099C19.6716 22.6334 19.9893 22.3156 20.4394 22.2892C20.6777 22.2892 20.8895 22.3685 21.1013 22.5275L21.366 22.0774C21.1013 21.8655 20.8365 21.7861 20.4659 21.7861C19.6451 21.7861 19.1157 22.3421 19.1157 23.1099ZM24.2519 23.1099V21.8391H23.6959V22.1567C23.5106 21.9186 23.2458 21.7861 22.9016 21.7861C22.1868 21.7861 21.6308 22.3421 21.6308 23.1099C21.6308 23.8776 22.1868 24.4336 22.9016 24.4336C23.2723 24.4336 23.5371 24.3013 23.6959 24.063V24.3807H24.2519V23.1099ZM22.2132 23.1099C22.2132 22.6598 22.5045 22.2892 22.981 22.2892C23.4311 22.2892 23.7489 22.6334 23.7489 23.1099C23.7489 23.56 23.4311 23.9306 22.981 23.9306C22.5045 23.904 22.2132 23.56 22.2132 23.1099ZM15.568 21.7861C14.8267 21.7861 14.2971 22.3156 14.2971 23.1099C14.2971 23.9042 14.8265 24.4336 15.5944 24.4336C15.965 24.4336 16.3358 24.3277 16.627 24.0895L16.3622 23.6924C16.1504 23.8512 15.8857 23.9571 15.621 23.9571C15.2768 23.9571 14.9326 23.7983 14.8531 23.3481H16.7329V23.1364C16.7594 22.3156 16.2829 21.7861 15.568 21.7861ZM15.5679 22.2626C15.912 22.2626 16.1504 22.4745 16.2032 22.8717H14.8795C14.9324 22.5275 15.1707 22.2626 15.5679 22.2626ZM29.3615 23.1099V20.833H28.8055V22.1567C28.6201 21.9186 28.3554 21.7861 28.0112 21.7861C27.2964 21.7861 26.7404 22.3421 26.7404 23.1099C26.7404 23.8776 27.2964 24.4336 28.0112 24.4336C28.382 24.4336 28.6467 24.3013 28.8055 24.063V24.3807H29.3615V23.1099ZM27.3229 23.1099C27.3229 22.6598 27.6141 22.2892 28.0907 22.2892C28.5408 22.2892 28.8585 22.6334 28.8585 23.1099C28.8585 23.56 28.5408 23.9306 28.0907 23.9306C27.6141 23.904 27.3229 23.56 27.3229 23.1099ZM8.73717 23.1099V21.8391H8.18119V22.1567C7.99583 21.9186 7.7311 21.7861 7.3869 21.7861C6.67209 21.7861 6.11611 22.3421 6.11611 23.1099C6.11611 23.8776 6.67209 24.4336 7.3869 24.4336C7.75764 24.4336 8.02236 24.3013 8.18119 24.063V24.3807H8.73717V23.1099ZM6.67209 23.1099C6.67209 22.6598 6.96334 22.2892 7.43985 22.2892C7.88994 22.2892 8.20773 22.6334 8.20773 23.1099C8.20773 23.56 7.88994 23.9306 7.43985 23.9306C6.96334 23.904 6.67209 23.56 6.67209 23.1099Z" fill="black"/>
<path d="M11.252 2.53906H19.5917V17.5241H11.252V2.53906Z" fill="#FF5F00"/>
<path d="M11.7816 10.0311C11.7816 6.98651 13.2112 4.28597 15.4086 2.53855C13.7937 1.26776 11.7552 0.5 9.53126 0.5C4.26247 0.5 0 4.76247 0 10.0311C0 15.2997 4.26247 19.5623 9.53114 19.5623C11.7551 19.5623 13.7936 18.7945 15.4086 17.5236C13.2112 15.8027 11.7816 13.0758 11.7816 10.0311Z" fill="#EB001B"/>
<path d="M30.8442 10.0311C30.8442 15.2997 26.5817 19.5623 21.313 19.5623C19.0891 19.5623 17.0505 18.7945 15.4355 17.5236C17.6595 15.7763 19.0627 13.0758 19.0627 10.0311C19.0627 6.98651 17.6329 4.28597 15.4355 2.53855C17.0504 1.26776 19.0891 0.5 21.313 0.5C26.5817 0.5 30.8442 4.78901 30.8442 10.0311Z" fill="#F79E1B"/>
</g>
<defs>
<clipPath id="clip0_360_2815">
<rect width="30.8744" height="24" fill="white" transform="translate(0 0.5)"/>
</clipPath>
</defs>
</svg>
