<svg width="44" height="44" viewBox="0 0 44 44" fill="none" xmlns="http://www.w3.org/2000/svg">
<path d="M19.6 13.9002H24.4C24.4 13.2637 24.1471 12.6532 23.6971 12.2031C23.247 11.7531 22.6365 11.5002 22 11.5002C21.3635 11.5002 20.753 11.7531 20.3029 12.2031C19.8529 12.6532 19.6 13.2637 19.6 13.9002ZM17.8 13.9002C17.8 13.3486 17.9086 12.8025 18.1197 12.2929C18.3308 11.7834 18.6401 11.3204 19.0302 10.9303C19.4202 10.5403 19.8832 10.231 20.3927 10.0199C20.9023 9.80883 21.4484 9.7002 22 9.7002C22.5516 9.7002 23.0977 9.80883 23.6073 10.0199C24.1168 10.231 24.5798 10.5403 24.9698 10.9303C25.3599 11.3204 25.6692 11.7834 25.8803 12.2929C26.0914 12.8025 26.2 13.3486 26.2 13.9002H33.1C33.3387 13.9002 33.5676 13.995 33.7364 14.1638C33.9052 14.3326 34 14.5615 34 14.8002C34 15.0389 33.9052 15.2678 33.7364 15.4366C33.5676 15.6054 33.3387 15.7002 33.1 15.7002H31.516L30.112 30.2334C30.0043 31.347 29.4857 32.3805 28.6572 33.1324C27.8288 33.8843 26.75 34.3006 25.6312 34.3002H18.3688C17.2502 34.3003 16.1717 33.8839 15.3435 33.132C14.5154 32.3801 13.9969 31.3468 13.8892 30.2334L12.484 15.7002H10.9C10.6613 15.7002 10.4324 15.6054 10.2636 15.4366C10.0948 15.2678 10 15.0389 10 14.8002C10 14.5615 10.0948 14.3326 10.2636 14.1638C10.4324 13.995 10.6613 13.9002 10.9 13.9002H17.8ZM20.2 19.6002C20.2 19.3615 20.1052 19.1326 19.9364 18.9638C19.7676 18.795 19.5387 18.7002 19.3 18.7002C19.0613 18.7002 18.8324 18.795 18.6636 18.9638C18.4948 19.1326 18.4 19.3615 18.4 19.6002V28.6002C18.4 28.8389 18.4948 29.0678 18.6636 29.2366C18.8324 29.4054 19.0613 29.5002 19.3 29.5002C19.5387 29.5002 19.7676 29.4054 19.9364 29.2366C20.1052 29.0678 20.2 28.8389 20.2 28.6002V19.6002ZM24.7 18.7002C24.9387 18.7002 25.1676 18.795 25.3364 18.9638C25.5052 19.1326 25.6 19.3615 25.6 19.6002V28.6002C25.6 28.8389 25.5052 29.0678 25.3364 29.2366C25.1676 29.4054 24.9387 29.5002 24.7 29.5002C24.4613 29.5002 24.2324 29.4054 24.0636 29.2366C23.8948 29.0678 23.8 28.8389 23.8 28.6002V19.6002C23.8 19.3615 23.8948 19.1326 24.0636 18.9638C24.2324 18.795 24.4613 18.7002 24.7 18.7002ZM15.6808 30.0606C15.7455 30.7286 16.0567 31.3485 16.5536 31.7995C17.0506 32.2506 17.6977 32.5003 18.3688 32.5002H25.6312C26.3023 32.5003 26.9494 32.2506 27.4464 31.7995C27.9433 31.3485 28.2545 30.7286 28.3192 30.0606L29.7088 15.7002H14.2912L15.6808 30.0606Z" fill="#D35252"/>
</svg>
