<svg width="18" height="18" viewBox="0 0 18 18" fill="none" xmlns="http://www.w3.org/2000/svg">
<path d="M3.25 1.5C2.78587 1.5 2.34075 1.68437 2.01256 2.01256C1.68437 2.34075 1.5 2.78587 1.5 3.25V14.75C1.5 15.716 2.283 16.5 3.25 16.5H14.75C15.2141 16.5 15.6592 16.3156 15.9874 15.9874C16.3156 15.6592 16.5 15.2141 16.5 14.75V10.75C16.5 10.5511 16.579 10.3603 16.7197 10.2197C16.8603 10.079 17.0511 10 17.25 10C17.4489 10 17.6397 10.079 17.7803 10.2197C17.921 10.3603 18 10.5511 18 10.75V14.75C18 15.612 17.6576 16.4386 17.0481 17.0481C16.4386 17.6576 15.612 18 14.75 18H3.25C2.38805 18 1.5614 17.6576 0.951903 17.0481C0.34241 16.4386 0 15.612 0 14.75V3.25C0 2.38805 0.34241 1.5614 0.951903 0.951903C1.5614 0.34241 2.38805 0 3.25 0H7.25C7.44891 0 7.63968 0.0790175 7.78033 0.21967C7.92098 0.360322 8 0.551088 8 0.75C8 0.948912 7.92098 1.13968 7.78033 1.28033C7.63968 1.42098 7.44891 1.5 7.25 1.5H3.25ZM10 0.75C10 0.551088 10.079 0.360322 10.2197 0.21967C10.3603 0.0790175 10.5511 0 10.75 0H17.25C17.4489 0 17.6397 0.0790175 17.7803 0.21967C17.921 0.360322 18 0.551088 18 0.75V7.25C18 7.44891 17.921 7.63968 17.7803 7.78033C17.6397 7.92098 17.4489 8 17.25 8C17.0511 8 16.8603 7.92098 16.7197 7.78033C16.579 7.63968 16.5 7.44891 16.5 7.25V2.56L11.28 7.78C11.1378 7.91248 10.9498 7.9846 10.7555 7.98118C10.5612 7.97775 10.3758 7.89903 10.2384 7.76162C10.101 7.62421 10.0223 7.43882 10.0188 7.24452C10.0154 7.05022 10.0875 6.86217 10.22 6.72L15.44 1.5H10.75C10.5511 1.5 10.3603 1.42098 10.2197 1.28033C10.079 1.13968 10 0.948912 10 0.75Z" fill="#167CC8"/>
</svg>
