<svg width="44" height="44" viewBox="0 0 44 44" fill="none" xmlns="http://www.w3.org/2000/svg">
<path d="M11.334 34H32.6669M13.5553 23.5829C12.9865 24.1525 12.6671 24.9245 12.6673 25.7295V30.0001H16.9645C17.7699 30.0001 18.5419 29.6801 19.1112 29.1094L31.7776 16.4363C32.3466 15.8668 32.6661 15.0947 32.6661 14.2897C32.6661 13.4847 32.3466 12.7126 31.7776 12.1431L30.527 10.8898C30.2449 10.6076 29.91 10.3837 29.5414 10.2311C29.1728 10.0784 28.7777 9.99988 28.3787 10C27.9797 10.0001 27.5847 10.0789 27.2162 10.2318C26.8477 10.3847 26.5129 10.6087 26.231 10.8911L13.5553 23.5829Z" stroke="#167CC8" stroke-width="1.5" stroke-linecap="round" stroke-linejoin="round"/>
</svg>
