<svg width="24" height="24" viewBox="0 0 24 24" fill="none" xmlns="http://www.w3.org/2000/svg">
<path d="M11.9995 3.75C11.5935 3.75 11.2223 4.095 11.2495 4.5L11.6245 14.625C11.6245 14.7245 11.664 14.8198 11.7343 14.8902C11.8046 14.9605 11.9 15 11.9995 15C12.0989 15 12.1943 14.9605 12.2646 14.8902C12.3349 14.8198 12.3745 14.7245 12.3745 14.625L12.7495 4.5C12.7766 4.095 12.4054 3.75 11.9995 3.75Z" stroke="#D35252" stroke-width="1.5" stroke-linecap="round" stroke-linejoin="round"/>
<path d="M12 20.25C12.4142 20.25 12.75 19.9142 12.75 19.5C12.75 19.0858 12.4142 18.75 12 18.75C11.5858 18.75 11.25 19.0858 11.25 19.5C11.25 19.9142 11.5858 20.25 12 20.25Z" stroke="#D35252" stroke-width="1.5" stroke-linecap="round" stroke-linejoin="round"/>
</svg>
