<svg width="50" height="47" viewBox="0 0 50 47" fill="none" xmlns="http://www.w3.org/2000/svg">
<path d="M26.8508 0.393164L47.9421 12.1795C48.5613 12.4886 49.082 12.9642 49.4458 13.5528C49.8096 14.1415 50.0021 14.8199 50.0016 15.5119V19.085C50.0016 20.7971 48.6121 22.1867 46.9 22.1867H45.039V42.0373H47.5203C48.1784 42.0373 48.8095 42.2988 49.2749 42.7641C49.7402 43.2294 50.0016 43.8606 50.0016 44.5187C50.0016 45.1768 49.7402 45.8079 49.2749 46.2732C48.8095 46.7386 48.1784 47 47.5203 47H2.85633C2.19824 47 1.5671 46.7386 1.10176 46.2732C0.636425 45.8079 0.375 45.1768 0.375 44.5187C0.375 43.8606 0.636425 43.2294 1.10176 42.7641C1.5671 42.2988 2.19824 42.0373 2.85633 42.0373H5.33766V22.1867H3.47666C1.76455 22.1867 0.375 20.7971 0.375 19.085V15.5119C0.375 14.2167 1.04496 13.0256 2.12682 12.3507L23.5233 0.393164C24.0403 0.13461 24.6103 0 25.1883 0C25.7663 0 26.3339 0.13461 26.8508 0.393164ZM40.0763 22.1867H10.3003V42.0373H17.7443V27.1494H22.707V42.0373H27.6696V27.1494H32.6323V42.0373H40.0763V22.1867ZM25.1883 5.11017L5.33766 16.2762V17.224H45.039V16.2762L25.1883 5.11017ZM25.1883 9.78004C25.8464 9.78004 26.4775 10.0415 26.9429 10.5068C27.4082 10.9721 27.6696 11.6033 27.6696 12.2614C27.6696 12.9195 27.4082 13.5506 26.9429 14.0159C26.4775 14.4813 25.8464 14.7427 25.1883 14.7427C24.5302 14.7427 23.8991 14.4813 23.4337 14.0159C22.9684 13.5506 22.707 12.9195 22.707 12.2614C22.707 11.6033 22.9684 10.9721 23.4337 10.5068C23.8991 10.0415 24.5302 9.78004 25.1883 9.78004Z" fill="#5F5F5F"/>
</svg>
