<svg width="56" height="40" viewBox="0 0 56 40" fill="none" xmlns="http://www.w3.org/2000/svg">
<g filter="url(#filter0_d_509_3312)">
<path fill-rule="evenodd" clip-rule="evenodd" d="M27.7086 9.55976C28.7073 8.56106 30.0618 8 31.4742 8C32.8866 8 34.2411 8.56106 35.2398 9.55976C36.2385 10.5585 36.7996 11.913 36.7996 13.3254C36.7996 14.7377 36.2385 16.0923 35.2398 17.091L26.0286 26.3022C25.7442 26.5867 25.4066 26.8124 25.035 26.9664C24.6634 27.1204 24.265 27.1997 23.8628 27.1997C23.0504 27.1999 22.2712 26.8773 21.6966 26.303C21.1221 25.7286 20.7992 24.9495 20.799 24.1371C20.7989 23.3247 21.1215 22.5455 21.6958 21.971L30.6318 13.0334L31.7646 14.1662L22.827 23.1022C22.6912 23.238 22.5834 23.3993 22.5099 23.5767C22.4364 23.7542 22.3986 23.9445 22.3986 24.1366C22.3986 24.3287 22.4364 24.5189 22.5099 24.6964C22.5834 24.8739 22.6912 25.0351 22.827 25.171C22.9629 25.3068 23.1241 25.4146 23.3016 25.4881C23.4791 25.5616 23.6693 25.5994 23.8614 25.5994C24.0535 25.5994 24.2437 25.5616 24.4212 25.4881C24.5987 25.4146 24.76 25.3068 24.8958 25.171L34.107 15.9598C34.453 15.6138 34.7274 15.2031 34.9146 14.7511C35.1019 14.2991 35.1982 13.8146 35.1982 13.3254C35.1982 12.8361 35.1019 12.3516 34.9146 11.8996C34.7274 11.4476 34.453 11.0369 34.107 10.691C33.7611 10.345 33.3504 10.0706 32.8983 9.88335C32.4463 9.69612 31.9619 9.59976 31.4726 9.59976C30.9834 9.59976 30.4989 9.69612 30.0469 9.88335C29.5949 10.0706 29.1842 10.345 28.8382 10.691L19.3534 20.1774C18.2531 21.3051 17.6416 22.821 17.6513 24.3965C17.661 25.972 18.2912 27.4803 19.4052 28.5943C20.5193 29.7084 22.0276 30.3386 23.6031 30.3483C25.1786 30.358 26.6945 29.7464 27.8222 28.6462L37.0334 19.4334L38.1662 20.5662L28.9534 29.7774C27.5217 31.1576 25.6053 31.9207 23.6167 31.9024C21.6281 31.8841 19.7261 31.086 18.32 29.6796C16.9138 28.2733 16.1159 26.3712 16.098 24.3826C16.08 22.3939 16.8433 20.4777 18.2238 19.0462L27.7086 9.55976Z" fill="#5F5F5F"/>
</g>
<defs>
<filter id="filter0_d_509_3312" x="-6" y="-6" width="68" height="52" filterUnits="userSpaceOnUse" color-interpolation-filters="sRGB">
<feFlood flood-opacity="0" result="BackgroundImageFix"/>
<feColorMatrix in="SourceAlpha" type="matrix" values="0 0 0 0 0 0 0 0 0 0 0 0 0 0 0 0 0 0 127 0" result="hardAlpha"/>
<feOffset/>
<feGaussianBlur stdDeviation="3"/>
<feComposite in2="hardAlpha" operator="out"/>
<feColorMatrix type="matrix" values="0 0 0 0 0 0 0 0 0 0 0 0 0 0 0 0 0 0 0.08 0"/>
<feBlend mode="normal" in2="BackgroundImageFix" result="effect1_dropShadow_509_3312"/>
<feBlend mode="normal" in="SourceGraphic" in2="effect1_dropShadow_509_3312" result="shape"/>
</filter>
</defs>
</svg>
