<svg width="26" height="25" viewBox="0 0 26 25" fill="none" xmlns="http://www.w3.org/2000/svg">
<g clip-path="url(#clip0_827_2514)">
<path d="M12.9997 7.2144H8.12479V13.7599H12.9997V7.2144ZM14.6246 18.1235V20.3053H6.49983V18.1235H14.6246ZM14.6246 5.03258V15.9417H6.49983V5.03258H14.6246ZM22.7494 18.1235V20.3053H16.2496V18.1235H22.7494ZM22.7494 13.7599V15.9417H16.2496V13.7599H22.7494ZM22.7494 9.39622V11.578H16.2496V9.39622H22.7494ZM22.7494 5.03258V7.2144H16.2496V5.03258H22.7494ZM3.24992 21.3962V5.03258H1.62496V21.3962C1.62496 21.6917 1.70536 21.9474 1.86616 22.1633C2.02697 22.3792 2.21739 22.4871 2.43744 22.4871C2.65748 22.4871 2.84791 22.3792 3.00871 22.1633C3.16951 21.9474 3.24992 21.6917 3.24992 21.3962ZM24.3744 21.3962V2.85076H4.87487V21.3962C4.87487 21.7712 4.82833 22.1349 4.73523 22.4871H23.5619C23.7819 22.4871 23.9724 22.3792 24.1332 22.1633C24.294 21.9474 24.3744 21.6917 24.3744 21.3962ZM25.9993 0.668945V21.3962C25.9993 22.3053 25.7624 23.078 25.2884 23.7144C24.8145 24.3508 24.239 24.6689 23.5619 24.6689H2.43744C1.76037 24.6689 1.18487 24.3508 0.710919 23.7144C0.236973 23.078 0 22.3053 0 21.3962V2.85076H3.24992V0.668945H25.9993Z" fill="#167CC8"/>
</g>
<defs>
<clipPath id="clip0_827_2514">
<rect width="26" height="24" fill="white" transform="translate(0 0.668945)"/>
</clipPath>
</defs>
</svg>
