<svg width="18" height="23" viewBox="0 0 18 23" fill="none" xmlns="http://www.w3.org/2000/svg">
<path d="M2 16.8477H16V9.87872C16 5.99572 12.866 2.84772 9 2.84772C5.134 2.84772 2 5.99572 2 9.87872V16.8477ZM9 0.847717C13.97 0.847717 18 4.89072 18 9.87872V18.8477H0V9.87872C0 4.89072 4.03 0.847717 9 0.847717ZM6.5 19.8477H11.5C11.5 20.5108 11.2366 21.1466 10.7678 21.6155C10.2989 22.0843 9.66304 22.3477 9 22.3477C8.33696 22.3477 7.70107 22.0843 7.23223 21.6155C6.76339 21.1466 6.5 20.5108 6.5 19.8477Z" fill="#FDA922"/>
</svg>
