<svg width="40" height="48" viewBox="0 0 40 48" fill="none" xmlns="http://www.w3.org/2000/svg">
<g clip-path="url(#clip0_509_3420)">
<path d="M33.9216 3.67189C31.745 1.19102 27.8104 0.127403 22.777 0.127403H8.16853C7.67049 0.127326 7.18877 0.304965 6.81002 0.628367C6.43127 0.951768 6.18034 1.3997 6.10238 1.8916L0.0196909 40.4695C-0.101213 41.2302 0.487843 41.9191 1.25888 41.9191H10.2776L12.5426 27.5526L12.4723 28.0025C12.6337 26.987 13.5022 26.238 14.5307 26.238H18.8164C27.2356 26.238 33.828 22.8183 35.7537 12.9259C35.8109 12.6333 35.8604 12.3486 35.9032 12.0703C35.6601 11.9416 35.6601 11.9416 35.9032 12.0703C36.4766 8.41402 35.8993 5.92517 33.9216 3.67189Z" fill="#27346A"/>
<path d="M15.9936 10.7532C16.24 10.6356 16.5098 10.5748 16.7829 10.5751H28.2356C29.5918 10.5751 30.8568 10.6634 32.0127 10.8494C32.3362 10.901 32.658 10.9626 32.9776 11.0341C33.4307 11.1341 33.8785 11.2564 34.3194 11.4007C34.8877 11.5905 35.4169 11.8115 35.9034 12.0703C36.4766 8.41261 35.8993 5.92517 33.9216 3.67189C31.7437 1.19102 27.8104 0.127403 22.777 0.127403H8.16728C7.13866 0.127403 6.26359 0.876258 6.10238 1.8916L0.0196918 40.4681C-0.101212 41.2301 0.487844 41.918 1.25763 41.918H10.2776L14.9768 12.1185C15.023 11.8256 15.1397 11.5483 15.3169 11.3105C15.494 11.0727 15.7262 10.8814 15.9936 10.7532Z" fill="#27346A"/>
<path d="M35.7612 12.926C33.8355 22.817 27.2432 26.2381 18.8238 26.2381H14.5369C13.5084 26.2381 12.6398 26.9871 12.48 28.0026L9.66214 45.8656C9.55686 46.5314 10.0717 47.1347 10.7453 47.1347H18.3479C18.7834 47.1346 19.2045 46.9791 19.5356 46.6962C19.8667 46.4133 20.086 46.0215 20.1541 45.5913L20.2281 45.204L21.661 36.1227L21.7533 35.6208C21.8214 35.1907 22.0407 34.799 22.3717 34.5161C22.7028 34.2332 23.1239 34.0777 23.5594 34.0775H24.6972C32.0619 34.0775 37.8286 31.0855 39.5137 22.4323C40.2171 18.8161 39.8532 15.7969 37.9924 13.6763C37.428 13.0339 36.7272 12.5035 35.9107 12.0705C35.8665 12.3501 35.8185 12.6334 35.7612 12.926Z" fill="#2790C3"/>
<path d="M33.8908 11.2668C33.5905 11.1791 33.2874 11.1015 32.982 11.034C32.6622 10.9637 32.3404 10.9025 32.0171 10.8506C30.8599 10.6633 29.5959 10.5749 28.2385 10.5749H16.7871C16.5138 10.5745 16.244 10.6358 15.9978 10.7544C15.7301 10.8822 15.4975 11.0733 15.3203 11.3111C15.1431 11.549 15.0266 11.8266 14.9809 12.1196L12.5469 27.5526L12.4766 28.0024C12.6367 26.9869 13.5052 26.2379 14.5338 26.2379H18.8207C27.24 26.2379 33.8322 22.8182 35.7579 12.9258C35.8153 12.6333 35.8634 12.3497 35.9076 12.0703C35.42 11.8131 34.892 11.5903 34.3236 11.4019C34.1802 11.3543 34.036 11.3093 33.891 11.2668" fill="#1F264F"/>
</g>
<defs>
<clipPath id="clip0_509_3420">
<rect width="40" height="47.1744" fill="white"/>
</clipPath>
</defs>
</svg>
