<svg width="20" height="26" viewBox="0 0 20 26" fill="none" xmlns="http://www.w3.org/2000/svg">
<path d="M19.6764 22.0001V25.3334C19.6764 25.7 19.3764 26 19.0098 26H5.01026C4.6436 26 4.34361 25.7 4.34361 25.3334V21.0002C1.81037 18.9002 0.34375 15.767 0.34375 12.4671V2.00083C0.34375 0.867534 1.27705 -0.0324353 2.41035 0.000896853C3.51031 0.034229 4.34361 1.00086 4.34361 2.06749V11.3338C4.34361 13.9004 6.44354 16.0003 9.01012 16.0003H9.5101C7.47684 15.2337 6.01022 13.3004 6.01022 11.0005C6.01022 8.06728 8.41014 5.66737 11.3434 5.66737C14.2766 5.66737 16.6765 8.06728 16.6765 11.0005C16.6765 13.3004 15.2099 15.2337 13.1766 16.0003H13.6766C16.9765 16.0003 19.6764 18.7003 19.6764 22.0001Z" fill="#167CC8"/>
</svg>
