<svg width="24" height="24" viewBox="0 0 24 24" fill="none" xmlns="http://www.w3.org/2000/svg">
<path d="M18.5 20C18.5 20.1326 18.4473 20.2598 18.3536 20.3536C18.2598 20.4473 18.1326 20.5 18 20.5H12.732C12.5565 20.804 12.304 21.0565 12 21.232C11.6959 21.4076 11.3511 21.5 11 21.5H10.989C10.9738 21.6692 10.9427 21.8366 10.896 22H18C18.5304 22 19.0391 21.7893 19.4142 21.4142C19.7893 21.0391 20 20.5304 20 20V9.828C19.9999 9.29761 19.7891 8.78899 19.414 8.414L13.585 2.586L13.536 2.546L13.5 2.516C13.4313 2.4509 13.3582 2.39074 13.281 2.336C13.255 2.32012 13.2283 2.30544 13.201 2.292L13.153 2.268L13.103 2.239C13.049 2.208 12.994 2.176 12.937 2.152C12.7377 2.07285 12.5271 2.02626 12.313 2.014C12.293 2.01267 12.2733 2.01033 12.254 2.007L12.172 2H6C5.46957 2 4.96086 2.21071 4.58579 2.58579C4.21071 2.96086 4 3.46957 4 4V11.104C4.23867 11.0347 4.48867 11 4.75 11H5.5V4C5.5 3.86739 5.55268 3.74021 5.64645 3.64645C5.74021 3.55268 5.86739 3.5 6 3.5H12V8C12 8.53043 12.2107 9.03914 12.5858 9.41421C12.9609 9.78929 13.4696 10 14 10H18.5V20ZM13.5 4.621L17.378 8.5H14C13.8674 8.5 13.7402 8.44732 13.6464 8.35355C13.5527 8.25979 13.5 8.13261 13.5 8V4.621ZM3 13.75C3 12.784 3.784 12 4.75 12H8.25C9.216 12 10 12.784 10 13.75V14.5H10.5C10.8978 14.5 11.2794 14.658 11.5607 14.9393C11.842 15.2206 12 15.6022 12 16V19.5C12 19.7652 11.8946 20.0196 11.7071 20.2071C11.5196 20.3946 11.2652 20.5 11 20.5H10V21.25C10 21.7141 9.81563 22.1592 9.48744 22.4874C9.15925 22.8156 8.71413 23 8.25 23H4.75C4.28587 23 3.84075 22.8156 3.51256 22.4874C3.18437 22.1592 3 21.7141 3 21.25V20.5H2C1.73478 20.5 1.48043 20.3946 1.29289 20.2071C1.10536 20.0196 1 19.7652 1 19.5V16C1 15.6022 1.15804 15.2206 1.43934 14.9393C1.72064 14.658 2.10218 14.5 2.5 14.5H3V13.75ZM8.5 13.75C8.5 13.6837 8.47366 13.6201 8.42678 13.5732C8.37989 13.5263 8.3163 13.5 8.25 13.5H4.75C4.6837 13.5 4.62011 13.5263 4.57322 13.5732C4.52634 13.6201 4.5 13.6837 4.5 13.75V14.5H8.5V13.75ZM4.5 19.25V21.25C4.5 21.388 4.612 21.5 4.75 21.5H8.25C8.3163 21.5 8.37989 21.4737 8.42678 21.4268C8.47366 21.3799 8.5 21.3163 8.5 21.25V19.25C8.5 19.1837 8.47366 19.1201 8.42678 19.0732C8.37989 19.0263 8.3163 19 8.25 19H4.75C4.6837 19 4.62011 19.0263 4.57322 19.0732C4.52634 19.1201 4.5 19.1837 4.5 19.25Z" fill="#5F5F5F"/>
</svg>
