<svg width="48" height="48" viewBox="0 0 48 48" fill="none" xmlns="http://www.w3.org/2000/svg">
<path d="M48 24C48 37.2548 37.2548 48 24 48C10.7452 48 0 37.2548 0 24C0 10.7452 10.7452 0 24 0C37.2548 0 48 10.7452 48 24Z" fill="#E1E1E1"/>
<path fill-rule="evenodd" clip-rule="evenodd" d="M16.941 12.3127C16.941 10.5216 17.6525 8.80389 18.919 7.53741C20.1855 6.27093 21.9032 5.55943 23.6943 5.55943C25.4853 5.55943 27.203 6.27093 28.4695 7.53741C29.736 8.80389 30.4475 10.5216 30.4475 12.3127C30.4475 14.1037 29.736 15.8215 28.4695 17.0879C27.203 18.3544 25.4853 19.0659 23.6943 19.0659C21.9032 19.0659 20.1855 18.3544 18.919 17.0879C17.6525 15.8215 16.941 14.1037 16.941 12.3127ZM16.941 22.4425C14.7022 22.4425 12.555 23.3319 10.9719 24.915C9.38883 26.4981 8.49946 28.6453 8.49946 30.8841C8.49946 32.2274 9.03308 33.5157 9.98294 34.4656C10.9328 35.4154 12.2211 35.949 13.5644 35.949H33.8241C35.1674 35.949 36.4557 35.4154 37.4056 34.4656C38.3554 33.5157 38.8891 32.2274 38.8891 30.8841C38.8891 28.6453 37.9997 26.4981 36.4166 24.915C34.8335 23.3319 32.6863 22.4425 30.4475 22.4425H16.941Z" fill="#167CC8"/>
<path d="M47.3766 24C47.3766 36.9106 36.9106 47.3766 24 47.3766C11.0894 47.3766 0.623377 36.9106 0.623377 24C0.623377 11.0894 11.0894 0.623377 24 0.623377C36.9106 0.623377 47.3766 11.0894 47.3766 24ZM17.5644 12.3127C17.5644 10.6869 18.2102 9.12778 19.3598 7.9782C20.5094 6.82863 22.0685 6.18281 23.6943 6.18281C25.32 6.18281 26.8792 6.82863 28.0287 7.9782C29.1783 9.12778 29.8241 10.6869 29.8241 12.3127C29.8241 13.9384 29.1783 15.4976 28.0287 16.6471C26.8792 17.7967 25.32 18.4425 23.6943 18.4425C22.0685 18.4425 20.5094 17.7967 19.3598 16.6471C18.2102 15.4976 17.5644 13.9384 17.5644 12.3127ZM18.4782 7.09662C17.0948 8.48 16.3176 10.3563 16.3176 12.3127C16.3176 14.2691 17.0948 16.1454 18.4782 17.5287C19.8616 18.9121 21.7379 19.6893 23.6943 19.6893C25.6507 19.6893 27.5269 18.9121 28.9103 17.5287C30.2937 16.1453 31.0709 14.2691 31.0709 12.3127C31.0709 10.3563 30.2937 8.48 28.9103 7.09662C27.5269 5.71323 25.6507 4.93605 23.6943 4.93605C21.7379 4.93605 19.8616 5.71323 18.4782 7.09662ZM16.941 21.8192C14.5368 21.8192 12.2311 22.7742 10.5311 24.4742C8.83113 26.1742 7.87608 28.4799 7.87608 30.8841C7.87608 32.3927 8.47538 33.8396 9.54215 34.9063C10.6089 35.9731 12.0558 36.5724 13.5644 36.5724H33.8241C35.3328 36.5724 36.7796 35.9731 37.8464 34.9063C38.9131 33.8396 39.5124 32.3927 39.5124 30.8841C39.5124 28.4799 38.5574 26.1742 36.8574 24.4742C35.1574 22.7742 32.8517 21.8192 30.4475 21.8192H16.941ZM11.4127 25.3558C12.8789 23.8896 14.8675 23.0659 16.941 23.0659H30.4475C32.521 23.0659 34.5096 23.8896 35.9758 25.3558C37.442 26.822 38.2657 28.8106 38.2657 30.8841C38.2657 32.0621 37.7977 33.1918 36.9648 34.0248C36.1318 34.8577 35.0021 35.3257 33.8241 35.3257H13.5644C12.3864 35.3257 11.2567 34.8577 10.4237 34.0248C9.59078 33.1918 9.12283 32.0621 9.12283 30.8841C9.12283 28.8106 9.94653 26.822 11.4127 25.3558Z" stroke="#167CC8" stroke-width="1.24675"/>
</svg>
