<svg width="20" height="20" viewBox="0 0 20 20" fill="none" xmlns="http://www.w3.org/2000/svg">
<path d="M9.0625 14.0625C9.0625 14.2479 9.11748 14.4292 9.22049 14.5833C9.32351 14.7375 9.46993 14.8577 9.64123 14.9286C9.81254 14.9996 10.001 15.0182 10.1829 14.982C10.3648 14.9458 10.5318 14.8565 10.6629 14.7254C10.794 14.5943 10.8833 14.4273 10.9195 14.2454C10.9557 14.0635 10.9371 13.875 10.8661 13.7037C10.7952 13.5324 10.675 13.386 10.5208 13.283C10.3667 13.18 10.1854 13.125 10 13.125C9.75136 13.125 9.5129 13.2238 9.33708 13.3996C9.16127 13.5754 9.0625 13.8139 9.0625 14.0625ZM10 5.625C11.7234 5.625 13.125 6.88672 13.125 8.4375V8.75C13.125 8.91576 13.0591 9.07473 12.9419 9.19194C12.8247 9.30915 12.6658 9.375 12.5 9.375C12.3342 9.375 12.1753 9.30915 12.0581 9.19194C11.9408 9.07473 11.875 8.91576 11.875 8.75V8.4375C11.875 7.57812 11.0336 6.875 10 6.875C8.9664 6.875 8.125 7.57812 8.125 8.4375C8.125 9.29688 8.9664 10 10 10C10.1658 10 10.3247 10.0658 10.4419 10.1831C10.5591 10.3003 10.625 10.4592 10.625 10.625V11.25C10.625 11.4158 10.5591 11.5747 10.4419 11.6919C10.3247 11.8092 10.1658 11.875 10 11.875C9.83424 11.875 9.67526 11.8092 9.55805 11.6919C9.44084 11.5747 9.375 11.4158 9.375 11.25V11.1938C7.95 10.932 6.875 9.79531 6.875 8.4375C6.875 6.88672 8.27656 5.625 10 5.625ZM1.875 10C1.875 11.607 2.35152 13.1779 3.24431 14.514C4.13709 15.8502 5.40604 16.8916 6.89069 17.5065C8.37534 18.1215 10.009 18.2824 11.5851 17.9689C13.1612 17.6554 14.6089 16.8815 15.7452 15.7452C16.8815 14.6089 17.6554 13.1612 17.9689 11.5851C18.2824 10.009 18.1215 8.37535 17.5065 6.8907C16.8916 5.40605 15.8502 4.1371 14.514 3.24431C13.1779 2.35152 11.607 1.875 10 1.875C7.84581 1.87727 5.78051 2.73403 4.25727 4.25727C2.73403 5.78051 1.87727 7.84581 1.875 10ZM3.125 10C3.125 8.64025 3.52821 7.31104 4.28364 6.18045C5.03908 5.04987 6.11281 4.16868 7.36905 3.64833C8.62529 3.12798 10.0076 2.99183 11.3412 3.2571C12.6749 3.52237 13.8999 4.17716 14.8614 5.13864C15.8228 6.10013 16.4776 7.32513 16.7429 8.65875C17.0082 9.99237 16.872 11.3747 16.3517 12.6309C15.8313 13.8872 14.9501 14.9609 13.8195 15.7164C12.689 16.4718 11.3597 16.875 10 16.875C8.17727 16.8729 6.42979 16.1479 5.14092 14.8591C3.85206 13.5702 3.12706 11.8227 3.125 10Z" fill="#167CC8"/>
</svg>
