<svg width="53" height="53" viewBox="0 0 53 53" fill="none" xmlns="http://www.w3.org/2000/svg">
<g clip-path="url(#clip0_360_3172)">
<path d="M12.4273 30.1243L16.0259 37.8829C19.3583 45.1788 27.9795 48.3643 35.2552 44.988C42.531 41.6117 45.7367 33.0344 42.3604 25.7587L36.2983 12.5914C35.336 10.4147 32.7881 9.47323 30.6256 10.4954C30.3741 10.5846 30.1209 10.7278 29.8938 10.8989L29.4879 10.075C28.5256 7.89826 25.9777 6.95683 23.8153 7.97902C23.476 8.10862 23.1391 8.33019 22.8622 8.53748C21.613 7.38382 19.7496 7.00493 18.1037 7.76269C16.1945 8.6417 15.2509 10.7517 15.7603 12.7247C15.1376 12.8652 14.554 13.1426 14.0518 13.5368C13.5496 13.9309 13.1415 14.4319 12.8571 15.0035C12.5727 15.575 12.4191 16.2026 12.4075 16.8409C12.3959 17.4792 12.5265 18.112 12.79 18.6935L15.3259 24.2018C15.0483 24.2631 14.7749 24.3624 14.5115 24.4837C13.4998 24.9693 12.7166 25.8294 12.3277 26.8821C11.9387 27.9348 11.9745 29.0975 12.4273 30.1243ZM15.5377 28.7056C15.3356 28.2667 15.5191 27.77 15.958 27.5679C16.397 27.3658 16.8937 27.5494 17.0958 27.9883L20.3087 34.9669C21.5427 34.3997 22.9514 34.3455 24.2253 34.8162C25.4993 35.2869 26.5343 36.2441 27.103 37.4774L30.1973 36.0528C29.5026 34.5435 28.3827 33.2696 26.975 32.3872C25.5672 31.5047 23.9326 31.052 22.2714 31.0844L15.9062 17.2588C15.7041 16.8199 15.8877 16.3232 16.3207 16.1371C16.7537 15.9511 17.2623 16.1026 17.4584 16.5575L22.1119 26.6364L25.2062 25.2118L19.134 12.0226C18.932 11.5837 19.1155 11.0869 19.5544 10.8849C19.9933 10.6828 20.4901 10.8663 20.6922 11.3052L26.7644 24.4944L29.8587 23.0698L24.8574 12.2069C24.6554 11.768 24.8389 11.2712 25.2778 11.0691C25.7167 10.8671 26.2135 11.0506 26.4156 11.4895L32.1181 23.9047L35.2284 22.486L31.6518 14.7174C31.4497 14.2784 31.6333 13.7817 32.0722 13.5796C32.5111 13.3775 33.0078 13.5611 33.2099 14L39.288 27.1732C41.8543 32.7473 39.4208 39.3333 33.8467 41.8996C28.2725 44.4659 21.6865 42.0324 19.1202 36.4583L15.5377 28.7056ZM41.1925 11.668C46.4966 13.6279 49.2145 19.5312 47.2546 24.8352L44.851 23.9471C46.3312 19.941 44.3105 15.5519 40.3044 14.0717L41.1925 11.668ZM12.142 41.0008C6.83792 39.041 4.12008 33.1377 6.07992 27.8336L8.48358 28.7217C7.00334 32.7278 9.02404 37.1169 13.0301 38.5972L12.142 41.0008Z" fill="#167CC8"/>
</g>
<defs>
<clipPath id="clip0_360_3172">
<rect width="41" height="41" fill="white" transform="translate(0.332031 38.4586) rotate(-69.721)"/>
</clipPath>
</defs>
</svg>
