<svg width="24" height="24" viewBox="0 0 24 24" fill="none" xmlns="http://www.w3.org/2000/svg">
<g clip-path="url(#clip0_774_1371)">
<path d="M21.3333 3.3335H2.66667C1.95942 3.3335 1.28115 3.61445 0.781049 4.11454C0.280952 4.61464 0 5.29292 0 6.00016L0 18.0002C0 18.7074 0.280952 19.3857 0.781049 19.8858C1.28115 20.3859 1.95942 20.6668 2.66667 20.6668H21.3333C22.0406 20.6668 22.7189 20.3859 23.219 19.8858C23.719 19.3857 24 18.7074 24 18.0002V6.00016C24 5.29292 23.719 4.61464 23.219 4.11454C22.7189 3.61445 22.0406 3.3335 21.3333 3.3335Z" fill="#006C35"/>
<path d="M5.94583 9.36664C6.36716 9.40664 6.13449 8.65397 6.28716 8.5173C6.31583 8.44997 6.36916 8.4493 6.37316 8.53464V9.1733C6.36916 9.3813 6.50583 9.44197 6.61183 9.4853C6.7225 9.47664 6.79583 9.48064 6.83916 9.58797L6.89116 10.6933C6.89116 10.6933 7.14716 10.7666 7.15916 10.0713C7.17183 9.6633 7.07783 9.32197 7.13316 9.24264C7.13516 9.16464 7.2345 9.15997 7.30383 9.19797C7.41383 9.2753 7.46316 9.3713 7.63383 9.3333C7.8945 9.26197 8.0505 9.1353 8.0545 8.9353C8.03916 8.7453 8.01783 8.5553 7.93583 8.3653C7.94716 8.33064 7.88583 8.2413 7.89716 8.20664C7.94383 8.27997 8.01516 8.27397 8.03116 8.20664C7.98716 8.06064 7.9185 7.92064 7.8065 7.85997C7.7145 7.77864 7.57983 7.7953 7.53049 7.96463C7.50783 8.1593 7.60116 8.3913 7.7425 8.57997C7.7725 8.65397 7.81516 8.77664 7.79649 8.8873C7.72116 8.92997 7.64516 8.91264 7.58249 8.84597C7.58249 8.84597 7.37516 8.69064 7.37516 8.65597C7.4305 8.30397 7.38783 8.26397 7.35716 8.16664C7.33583 8.03197 7.27183 7.98864 7.21983 7.89664C7.16783 7.84197 7.09783 7.84197 7.0645 7.89664C6.9725 8.0553 7.01516 8.39664 7.08183 8.5493C7.12916 8.6893 7.2025 8.77797 7.16783 8.77797C7.13916 8.8573 7.0805 8.83864 7.03783 8.7473C6.9765 8.55797 6.96449 8.27597 6.96449 8.14863C6.94583 7.9913 6.92583 7.65464 6.8225 7.5693C6.75916 7.4833 6.66516 7.52464 6.6325 7.60397C6.62583 7.75997 6.62449 7.91664 6.64249 8.0613C6.71316 8.31397 6.73583 8.53664 6.7705 8.79597C6.77983 9.1433 6.56983 8.94664 6.57916 8.77464C6.62783 8.5513 6.61516 8.1993 6.57183 8.10997C6.53783 8.0213 6.49716 7.99864 6.41449 8.0133C6.34916 8.00797 6.17983 8.1933 6.13183 8.49997C6.13183 8.49997 6.09116 8.65797 6.07383 8.79864C6.0505 8.9573 5.9465 9.0693 5.87316 8.77664C5.80983 8.56397 5.77116 8.0393 5.66516 8.16197C5.6345 8.57197 5.59783 9.2933 5.94583 9.36664Z" fill="white"/>
<path d="M6.57894 9.66602C6.23227 9.67268 5.72494 10.1213 5.71094 10.37C6.07627 10.194 6.4356 10.0247 6.8076 9.84335C6.7476 9.75335 6.80427 9.67268 6.57894 9.66602Z" fill="white"/>
<path d="M8.49096 11.0107C8.65163 10.4754 8.46496 10.0807 8.55229 10.0827C8.73696 10.282 8.99563 10.1094 9.0523 10.04C9.07696 10.0054 9.13763 9.98271 9.18029 10.028C9.32496 10.132 9.57963 10.0827 9.6323 9.90004C9.66559 9.71658 9.68609 9.53102 9.69363 9.34471C9.57563 9.38137 9.48763 9.40604 9.47963 9.45471L9.45496 9.61337C9.44496 9.66471 9.34296 9.66671 9.33896 9.60137C9.29429 9.39804 9.10896 9.37137 8.99696 9.68671C8.92163 9.74804 8.78563 9.76004 8.77096 9.66871C8.78896 9.45737 8.70363 9.42871 8.53296 9.52804C8.47829 9.10871 8.42296 8.70804 8.36829 8.28871C8.43963 8.28671 8.50496 8.33937 8.56963 8.25804C8.49829 8.03604 8.34763 7.58271 8.26429 7.55004C8.22363 7.50071 8.18896 7.53137 8.13629 7.54404C8.04696 7.57271 7.96363 7.65004 7.98963 7.80004C8.09563 8.44337 8.16496 8.93337 8.27029 9.57671C8.28629 9.65204 8.22363 9.75137 8.14229 9.74137C8.00429 9.64804 7.96963 9.45871 7.73363 9.46671C7.56229 9.46871 7.36696 9.65404 7.34296 9.83337C7.31429 9.97537 7.30429 10.13 7.34296 10.2547C7.46296 10.3987 7.60763 10.3847 7.73363 10.352C7.83696 10.3094 7.92296 10.2054 7.95896 10.23C7.98363 10.26 7.96496 10.602 7.47096 10.8647C7.17163 10.9987 6.93363 11.0294 6.80563 10.7854C6.72629 10.6327 6.81163 10.0527 6.61629 10.1874C6.03829 11.6774 7.96963 11.884 8.18563 10.2487C8.20629 10.1814 8.28763 10.114 8.30163 10.224C8.25696 11.7054 6.80763 11.8074 6.56163 11.3414C6.50029 11.2314 6.48229 10.9874 6.47629 10.8407C6.43963 10.5494 6.28696 10.6614 6.26296 10.95C6.23829 11.1107 6.24496 11.156 6.24496 11.31C6.32163 12.48 8.18829 11.9774 8.49096 11.0107ZM7.77096 9.99871C7.75896 10.0214 7.70629 10.012 7.66763 10.012C7.62363 10.01 7.60296 10.0027 7.57629 9.96737C7.56429 9.92737 7.60163 9.88937 7.61829 9.85937C7.63896 9.82404 7.75029 9.78737 7.78963 9.88604C7.79691 9.90477 7.79902 9.92511 7.79573 9.94493C7.79245 9.96475 7.78389 9.98333 7.77096 9.99871Z" fill="white"/>
<path d="M9.0675 8.67291C9.1835 8.63025 9.7335 8.00158 9.7335 8.00158C9.70484 7.97691 9.6795 7.95891 9.65084 7.93425C9.62017 7.90758 9.6235 7.88091 9.65084 7.85491C9.78684 7.77558 9.7435 7.60158 9.67217 7.52225C9.62603 7.49961 9.57524 7.48807 9.52385 7.48853C9.47246 7.48899 9.42189 7.50145 9.37617 7.52491C9.28084 7.61625 9.25817 7.76291 9.3335 7.85491C9.40684 7.88958 9.48017 7.96358 9.4315 8.00425C9.20684 8.24425 8.59084 8.65825 8.66217 8.67291C8.6775 8.69291 9.0555 8.69225 9.0675 8.67291ZM9.47484 7.68558C9.51017 7.67691 9.5555 7.70825 9.57684 7.75491C9.59817 7.80158 9.58684 7.84625 9.55217 7.85491H9.55084C9.51617 7.86358 9.47084 7.83225 9.4495 7.78558C9.42884 7.73825 9.44017 7.69425 9.47484 7.68558ZM5.9075 11.5056C5.81684 11.6902 5.77884 11.5636 5.77084 11.4602C5.76042 11.2867 5.76914 11.1125 5.79684 10.9409C5.8195 10.7942 5.79684 10.8389 5.75017 10.8982C5.54417 11.2262 5.52617 11.7169 5.64017 11.8629C5.70017 11.9322 5.7995 11.9629 5.8735 11.9402C6.00284 11.8842 6.0595 11.6216 6.02884 11.5262C5.98484 11.4589 5.95084 11.4482 5.9075 11.5056ZM12.6948 8.03358C12.9322 8.35225 13.1575 8.67691 13.3782 9.00758C13.4215 9.29425 13.4528 9.57425 13.4715 9.85225C13.5082 10.3882 13.5188 10.9682 13.4855 11.5329C13.5855 11.5369 13.7475 11.3702 13.8035 11.1269C13.8402 10.7902 13.7902 10.1909 13.7868 9.99225C13.7824 9.86773 13.7764 9.74328 13.7688 9.61891C14.0315 10.0482 14.2875 10.4976 14.5375 10.9969C14.6288 10.9542 14.6088 10.4436 14.5555 10.3716C14.3555 9.94291 14.0802 9.51891 13.9922 9.35625C13.9595 9.29625 13.8482 9.12558 13.7155 8.93025C13.7041 8.77435 13.6854 8.61906 13.6595 8.46491C13.6182 8.17958 13.7775 8.49625 13.7555 8.33025C13.7042 8.04491 13.5455 7.85225 13.3602 7.59091C13.3002 7.50625 13.3022 7.48891 13.2095 7.61158C13.1767 7.68507 13.1617 7.76521 13.1655 7.84558C13.1366 7.80304 13.1056 7.76188 13.0728 7.72225C12.9722 7.63544 12.8711 7.54921 12.7695 7.46358C12.7022 7.41558 12.5382 7.32891 12.5088 7.47291C12.4952 7.57385 12.5002 7.67643 12.5235 7.77558C12.5408 7.84691 12.6442 7.96558 12.6948 8.03358ZM13.1882 8.01758C13.2008 8.07291 13.2142 8.12825 13.2228 8.18491L13.2328 8.23891C13.2049 8.19983 13.1757 8.16159 13.1455 8.12425C13.0362 7.99491 13.1268 8.02291 13.1882 8.01758Z" fill="white"/>
<path d="M14.6113 11.1285C14.3793 11.3705 14.0446 11.6685 13.6806 11.8065C13.6413 11.8505 13.778 12.0392 13.954 12.0392C14.2493 12.0045 14.5093 11.8385 14.75 11.4019C14.8146 11.3005 14.928 11.0825 14.9306 10.9132C14.9526 9.92255 14.8813 9.15121 14.7326 8.43521C14.7227 8.37776 14.7254 8.31883 14.7406 8.26255C14.7593 8.23988 14.8246 8.26255 14.8593 8.20655C14.9093 8.15455 14.7253 7.72788 14.62 7.56388C14.5826 7.49055 14.57 7.44121 14.508 7.57255C14.4426 7.67921 14.3993 7.86521 14.4046 8.03855C14.5453 9.01388 14.5886 9.86788 14.6806 10.8432C14.688 10.9372 14.674 11.0745 14.6113 11.1285ZM18.498 8.65521C18.488 8.58588 18.4573 8.42455 18.4693 8.40388C18.488 8.35455 18.5846 8.40921 18.6193 8.35255C18.67 8.30121 18.37 7.91588 18.2653 7.75188C18.2273 7.67855 18.2146 7.62921 18.1526 7.76055C18.0873 7.86721 18.0646 8.05855 18.0906 8.22655C18.2473 9.28588 18.364 10.0819 18.388 11.0212C18.374 11.1105 18.3713 11.1585 18.3293 11.2705C18.2366 11.3892 18.1346 11.5372 18.038 11.6092C17.942 11.6805 17.7373 11.7492 17.67 11.8019C17.4586 11.9252 17.458 12.0659 17.63 12.0705C17.9246 12.0359 18.274 12.0119 18.5146 11.6479C18.5793 11.5465 18.656 11.2712 18.6593 11.1019C18.6813 10.1112 18.6466 9.37121 18.498 8.65521ZM16.264 9.47988C16.2666 9.34388 16.2793 9.16388 16.2866 9.05121C16.29 9.00921 16.3 8.96188 16.34 8.95121C16.3806 8.94055 16.4526 8.99255 16.4533 8.94855C16.4453 8.86255 16.428 8.73455 16.3793 8.67388C16.3126 8.57521 16.136 8.59921 16.1046 8.75388C16.1053 8.81121 16.1313 8.84188 16.1266 8.89388C16.1186 8.92321 16.088 8.94321 16.0153 8.90855C16.0273 8.89788 15.968 8.81588 15.968 8.81588C15.9113 8.78121 15.8353 8.81788 15.7866 8.84921C15.769 8.88283 15.7585 8.9197 15.7558 8.95755C15.753 8.9954 15.7581 9.0334 15.7706 9.06921C15.8506 9.22055 16.13 9.47721 16.264 9.47988Z" fill="white"/>
<path d="M16.1701 8.32053C16.3655 8.55986 16.5648 8.80253 16.7655 9.0492C16.8088 9.59986 16.8201 10.0505 16.8628 10.6012C16.8568 10.8345 16.7848 11.0379 16.7161 11.0672C16.7161 11.0672 16.6128 11.1272 16.5435 11.0612C16.4928 11.0405 16.2908 10.7245 16.2908 10.7245C16.1875 10.6299 16.1195 10.6565 16.0461 10.7245C15.8435 10.9199 15.7521 11.2865 15.6148 11.5385C15.5788 11.5952 15.4788 11.6432 15.3675 11.5345C15.0855 11.1485 15.2508 10.5999 15.2161 10.7412C14.9648 11.0245 15.0755 11.4932 15.1321 11.5945C15.2148 11.7599 15.2821 11.8665 15.4435 11.9485C15.5901 12.0565 15.7048 11.9885 15.7675 11.9132C15.9155 11.7592 15.9175 11.3692 15.9868 11.2905C16.0348 11.1485 16.1581 11.1725 16.2175 11.2359C16.2718 11.3125 16.3439 11.375 16.4275 11.4179C16.5655 11.5399 16.7301 11.5619 16.8921 11.4505C17.0028 11.3885 17.0755 11.3079 17.1401 11.1485C17.2121 10.9565 17.1728 10.0739 17.1581 9.54453C17.2615 9.67786 17.3621 9.8172 17.4641 9.95653C17.5088 10.3985 17.5341 10.8385 17.5195 11.2879C17.5088 11.3779 17.8328 11.0212 17.8301 10.8519C17.8288 10.7152 17.8301 10.5912 17.8301 10.4745C17.9861 10.7092 18.1381 10.9512 18.2808 11.2072C18.3701 11.1605 18.3408 10.6572 18.2841 10.5879C18.1195 10.3119 17.9001 10.0245 17.7488 9.8192C17.7388 9.7932 17.7335 9.76386 17.7215 9.7392C17.6608 9.59853 17.6988 9.4852 17.6701 9.33586C17.6421 9.18586 17.6495 8.96186 17.6061 8.78386C17.5941 8.71453 17.5581 8.49186 17.5688 8.4712C17.5861 8.4212 17.6528 8.47253 17.6855 8.4152C17.7341 8.36186 17.5168 7.79853 17.4061 7.6372C17.3661 7.5652 17.2941 7.58986 17.2048 7.7072C17.1228 7.78453 17.1535 7.96053 17.1848 8.12786C17.2628 8.5332 17.3281 8.92186 17.3841 9.30653C17.2643 9.14715 17.1432 8.9887 17.0208 8.8312L17.0155 8.80186C17.0155 8.79453 16.9975 8.45253 16.9815 8.3712C16.9788 8.33853 16.9708 8.32853 17.0055 8.33253C17.0421 8.3632 17.0468 8.3652 17.0701 8.37586C17.1075 8.38253 17.1401 8.3192 17.1181 8.2612L16.7735 7.62653C16.7461 7.5992 16.7101 7.56986 16.6668 7.63386C16.6399 7.65736 16.6184 7.68637 16.6036 7.71892C16.5889 7.75147 16.5814 7.7868 16.5815 7.82253C16.5921 7.97253 16.6181 8.12586 16.6281 8.27653L16.6428 8.35786C16.6275 8.33986 16.6088 8.3172 16.6008 8.3092C16.3081 8.0012 16.7355 8.2592 16.5448 8.0212C16.3835 7.84386 16.3368 7.78853 16.1981 7.68186C16.1288 7.6372 16.0868 7.55186 16.0641 7.6972C16.0527 7.82464 16.0494 7.95267 16.0541 8.08053C16.0541 8.14186 16.1161 8.25386 16.1701 8.32053ZM10.2361 9.03986C10.4041 9.1092 10.5115 8.7892 10.5808 8.43853C10.6275 8.33986 10.6635 8.3292 10.6875 8.37986C10.6815 8.84653 10.7208 8.94986 10.8408 9.09186C11.1081 9.29853 11.3295 9.11786 11.3475 9.10053L11.5555 8.89253C11.6015 8.84386 11.6635 8.84053 11.7288 8.88386C11.7928 8.9412 11.7841 9.0412 11.9201 9.11053C12.0348 9.15653 12.2801 9.1212 12.3368 9.02253C12.4135 8.89186 12.4321 8.84653 12.4668 8.7972C12.5215 8.72453 12.6148 8.7572 12.6148 8.77986C12.6061 8.82053 12.5515 8.8612 12.5888 8.93386C12.6541 8.98253 12.6688 8.9512 12.7075 8.94053C12.8435 8.8752 12.9448 8.58053 12.9448 8.58053C12.9508 8.47053 12.8895 8.47986 12.8495 8.50253C12.7975 8.53386 12.7941 8.54453 12.7421 8.57653C12.6755 8.58653 12.5468 8.63053 12.4835 8.53186C12.4181 8.4132 12.4168 8.24786 12.3675 8.12853C12.3675 8.11986 12.2808 7.93986 12.3615 7.92853C12.4021 7.93586 12.4881 7.95853 12.5021 7.88653C12.5441 7.81586 12.4108 7.61453 12.3201 7.51253C12.2408 7.42586 12.1308 7.4152 12.0248 7.50386C11.9501 7.57253 11.9608 7.64853 11.9461 7.7212C11.934 7.77248 11.9341 7.82587 11.9462 7.87714C11.9584 7.92841 11.9823 7.97614 12.0161 8.01653C12.0901 8.16253 12.2255 8.3512 12.1808 8.6152C12.1808 8.6152 12.1021 8.74053 11.9641 8.72453C11.9068 8.71186 11.8135 8.6872 11.7641 8.32053C11.7268 8.04253 11.7735 7.65386 11.6555 7.47186C11.6128 7.36186 11.5821 7.25586 11.4781 7.44386C11.4501 7.51786 11.3301 7.62986 11.4175 7.8612C11.4888 8.0072 11.5175 8.2452 11.4855 8.51053C11.4361 8.58586 11.4255 8.6112 11.3608 8.68653C11.2701 8.78386 11.1721 8.7592 11.0968 8.72253C11.0261 8.6752 10.9715 8.65053 10.9395 8.49986C10.9455 8.25986 10.9588 7.86653 10.9148 7.7832C10.8501 7.65386 10.7435 7.70053 10.6975 7.73986C10.4781 7.94053 10.3701 8.27853 10.3041 8.5472C10.2435 8.7432 10.1788 8.6872 10.1335 8.60786C10.0228 8.50386 10.0155 7.69253 9.88148 7.82653C9.66615 8.43586 10.0028 9.1052 10.2361 9.03986Z" fill="white"/>
<path d="M13.4236 10.3495L13.3596 10.3129L12.1056 10.3069C12.041 10.2822 12.0603 10.2609 12.1056 10.2435C12.405 10.2029 12.9376 10.1162 12.973 9.60487C12.967 9.33887 12.8583 9.1642 12.5316 9.1162C12.2923 9.13487 12.121 9.36753 12.1483 9.62287C12.137 9.6922 12.171 9.82687 12.101 9.8422C11.6403 9.8842 11.1383 10.1722 11.1216 10.3789C11.0936 10.3982 11.031 10.3422 11.039 10.2542C11.0168 9.87777 10.9084 9.51147 10.7223 9.18353C10.577 9.0382 10.6223 9.0862 10.525 9.15487C10.4623 9.22687 10.451 9.2762 10.4543 9.41953C10.4543 9.42487 10.5716 9.7522 10.671 9.98153C10.737 10.2169 10.799 10.4855 10.7543 10.7395C10.5996 11.0755 10.2883 11.3769 9.98829 11.5402C9.83362 11.5902 9.70095 11.5722 9.66829 11.5375C9.57295 11.4735 9.57762 11.3555 9.58495 11.3535C9.83762 11.1769 10.127 11.0349 10.3536 10.5595C10.4203 10.3782 10.4403 10.2682 10.3743 9.98753C10.3559 9.88863 10.3105 9.79676 10.243 9.7222C10.2836 9.69553 10.4003 9.7842 10.4183 9.73153C10.3845 9.5779 10.308 9.43694 10.1976 9.32487C10.1076 9.24287 10.0096 9.23353 9.92695 9.30887C9.83362 9.36087 9.81362 9.5462 9.85829 9.70887C9.90762 9.83153 10.0416 9.8522 10.1376 10.0982C10.1376 10.1035 10.1723 10.2822 10.123 10.3522C10.0836 10.4749 9.57362 10.8755 9.54562 10.8935C9.53162 10.9109 9.53762 10.8849 9.53562 10.8182C9.53229 10.7369 9.56829 10.5449 9.55829 10.5435C9.39229 10.6509 9.33695 10.9795 9.30695 11.0769C8.88695 11.3669 8.41162 11.5829 8.13695 11.8775C7.99362 12.1009 9.12229 11.6209 9.25362 11.5629C9.28295 11.5842 9.27962 11.6849 9.35829 11.7749C9.47562 11.9335 9.72362 12.0315 9.96695 11.9709C10.3736 11.8235 10.609 11.5462 10.8476 11.2389C10.8816 11.1889 10.935 11.1509 10.9843 11.1889C11.1483 11.5562 11.6223 11.8162 12.2336 11.8435C12.3756 11.6709 12.307 11.5875 12.2496 11.5515C12.2496 11.5462 11.9476 11.4315 11.9016 11.3169C11.8736 11.2129 11.9416 11.1215 12.0776 11.0522C12.4703 11.0049 12.8563 10.9522 13.2303 10.8322C13.2343 10.7069 13.307 10.5189 13.357 10.4375C13.405 10.3549 13.431 10.3795 13.4236 10.3495ZM12.3923 9.5682C12.411 9.53687 12.473 9.5382 12.531 9.5722C12.589 9.60553 12.6216 9.65887 12.6023 9.6902C12.5836 9.7222 12.521 9.7202 12.463 9.6862C12.405 9.65287 12.3736 9.6002 12.3923 9.5682ZM11.8876 10.8349C11.753 10.8809 11.6236 10.9169 11.6236 11.1115C11.6736 11.3822 11.555 11.2895 11.485 11.2522C11.4023 11.1929 11.1696 11.0495 11.1363 10.7402C11.131 10.6662 11.189 10.6042 11.2816 10.6042C11.421 10.6422 11.627 10.6449 11.8056 10.6635C11.9516 10.6729 12.0243 10.7875 11.8876 10.8349ZM7.24295 7.83153C7.38695 7.90087 7.65895 7.87153 7.64695 7.6382C7.64695 7.61753 7.64162 7.5482 7.63962 7.52953C7.61029 7.46087 7.53029 7.47753 7.51162 7.54887C7.50562 7.5722 7.52162 7.60953 7.50095 7.62153C7.48895 7.63353 7.44295 7.6262 7.44495 7.5622C7.44495 7.54153 7.42962 7.51953 7.42095 7.50687C7.41162 7.50087 7.40629 7.49887 7.38962 7.49887C7.36962 7.49953 7.36962 7.50487 7.35895 7.5222C7.35429 7.53887 7.34762 7.5562 7.34762 7.57553C7.34495 7.5982 7.33629 7.6062 7.31962 7.6102C7.30095 7.6102 7.30495 7.6122 7.29029 7.6022C7.28095 7.5922 7.26962 7.5882 7.26962 7.57153C7.26956 7.55205 7.26641 7.5327 7.26029 7.5142C7.25229 7.50353 7.23962 7.49887 7.22495 7.49487C7.14629 7.49487 7.14095 7.58487 7.14562 7.61953C7.13829 7.62553 7.13562 7.78687 7.24295 7.83153Z" fill="white"/>
<path d="M11.6744 9.35138C11.6744 9.33071 11.6591 9.30938 11.6504 9.29604C11.6411 9.29004 11.6358 9.28804 11.6191 9.28804C11.5991 9.28871 11.5998 9.29404 11.5884 9.31138C11.5838 9.32871 11.5771 9.34538 11.5771 9.36471C11.5751 9.38804 11.5658 9.39604 11.5491 9.39938C11.5304 9.39938 11.5344 9.40138 11.5191 9.39204C11.5098 9.38204 11.4984 9.37804 11.4984 9.36138C11.4985 9.34189 11.4953 9.32253 11.4891 9.30404C11.4811 9.29338 11.4684 9.28871 11.4538 9.28538C11.3751 9.28538 11.3698 9.37538 11.3738 9.40938C11.3678 9.41604 11.3644 9.57671 11.4718 9.62204C11.6164 9.69071 11.9598 9.65071 11.8758 9.42871C11.8744 9.3922 11.8719 9.35574 11.8684 9.31938C11.8391 9.25071 11.7584 9.26804 11.7404 9.33871C11.7351 9.36204 11.7511 9.39938 11.7298 9.41138C11.7191 9.42338 11.6724 9.41604 11.6744 9.35138ZM13.9391 8.88004C14.0831 8.94938 14.3544 8.92004 14.3424 8.68738C14.341 8.65087 14.3386 8.61441 14.3351 8.57804C14.3058 8.50938 14.2258 8.52671 14.2078 8.59738C14.2018 8.62071 14.2178 8.65804 14.1964 8.67004C14.1844 8.68204 14.1384 8.67538 14.1404 8.61071C14.1404 8.59004 14.1251 8.56804 14.1164 8.55538C14.1071 8.54938 14.1018 8.54738 14.0844 8.54738C14.0645 8.54871 14.0651 8.55338 14.0538 8.57071C14.0491 8.58804 14.0424 8.60471 14.0424 8.62404C14.0398 8.64738 14.0311 8.65538 14.0144 8.65871C13.9958 8.65871 13.9998 8.66071 13.9844 8.65138C13.9751 8.64138 13.9644 8.63738 13.9644 8.62071C13.9644 8.60101 13.9612 8.58144 13.9551 8.56271C13.9465 8.55204 13.9344 8.54738 13.9191 8.54404C13.8404 8.54404 13.8351 8.63404 13.8398 8.66804C13.8351 8.67471 13.8318 8.83538 13.9391 8.88004ZM14.0364 7.97871C14.0878 8.12271 13.9971 8.26004 14.0511 8.28004C14.0998 8.30271 14.1691 8.13138 14.1944 7.97338C14.2244 7.84538 14.1331 7.58338 14.0038 7.52938C13.9251 7.51071 13.8131 7.55738 13.8491 7.66271C13.8311 7.71338 14.0078 7.88538 14.0364 7.97871ZM15.3664 11.3547C15.4671 11.3554 15.5831 11.1247 15.6324 10.896C15.6598 10.5814 15.6138 10.39 15.6058 10.2047C15.5971 10.02 15.3971 8.61004 15.3558 8.47004C15.3071 8.20538 15.5511 8.43471 15.5245 8.28071C15.4398 8.08671 15.2298 7.80471 15.1631 7.63604C15.1231 7.56404 15.1404 7.50004 15.0511 7.61738C14.9691 7.88738 14.9404 8.10738 14.9718 8.27538C15.1838 9.38204 15.4011 10.302 15.3664 11.3547ZM17.8704 8.46138C17.8938 8.53338 17.8351 8.76604 17.8838 8.78738C17.9284 8.81138 17.9911 8.62671 18.0144 8.45538C18.0271 8.36138 17.9584 8.03338 17.8404 7.97471C17.7684 7.95471 17.6664 8.00471 17.6998 8.11938C17.6831 8.17471 17.8444 8.36004 17.8704 8.46138ZM9.12445 10.8987C9.16778 10.9167 9.22712 10.7807 9.24978 10.6547C9.26245 10.5854 9.19578 10.3447 9.08312 10.3014C9.01378 10.2867 8.91912 10.3054 8.94845 10.408C8.94512 10.4634 9.10178 10.53 9.11112 10.6587C9.13378 10.712 9.07778 10.8834 9.12445 10.8987ZM6.08712 7.82204C6.10912 7.87738 6.06512 8.05404 6.11112 8.07071C6.15312 8.08938 6.21245 7.94804 6.23445 7.81804C6.24712 7.74604 6.23712 7.50204 6.07045 7.45204C6.00178 7.43671 5.90645 7.47471 5.93778 7.56204C5.92178 7.60338 6.06245 7.74471 6.08712 7.82204ZM9.35512 8.60404C9.22778 8.67338 9.17778 8.87871 9.25778 8.99804C9.33178 9.10404 9.44912 9.06471 9.46512 9.06471C9.59045 9.08004 9.66445 8.83004 9.66445 8.83004C9.66445 8.83004 9.66845 8.76004 9.51978 8.89271C9.45712 8.90471 9.44912 8.88138 9.43378 8.84538C9.4186 8.78013 9.4254 8.7117 9.45312 8.65071C9.47445 8.58871 9.42645 8.56138 9.35512 8.60404ZM10.3164 7.83538C10.337 7.82268 10.3546 7.80578 10.3682 7.78579C10.3817 7.7658 10.3909 7.74317 10.3951 7.71938C10.4144 7.62204 10.2918 7.76538 10.2764 7.65671C10.2491 7.55604 10.3278 7.51471 10.4024 7.41738C10.4051 7.35004 10.4038 7.30271 10.3124 7.35738C10.2484 7.40071 10.1204 7.53271 10.1164 7.68471C10.1124 7.77071 10.0964 7.77004 10.1531 7.82471C10.1938 7.88404 10.2344 7.87804 10.3164 7.83538ZM11.1824 7.88738C11.2651 7.66338 11.2651 7.56871 11.2711 7.47338C11.2458 7.32871 11.1478 7.33338 11.0831 7.49404C11.0551 7.55471 11.0224 7.87404 11.0278 7.87404C11.0058 7.96938 11.1271 8.01004 11.1824 7.88738ZM16.6291 9.47604C16.6291 9.47604 15.9604 9.95138 15.9444 9.96804C15.8778 10.0267 15.9111 10.2347 15.9444 10.2107C15.9918 10.2294 16.6644 9.77271 16.6511 9.71938C16.6824 9.72071 16.6978 9.45204 16.6291 9.47604ZM16.5471 10.7654C16.5918 10.7894 16.7098 10.6434 16.7051 10.4614C16.7184 10.3674 16.6711 10.0227 16.5538 9.96404C16.4818 9.94404 16.3858 10.0054 16.4191 10.1194C16.4024 10.174 16.5018 10.3654 16.5278 10.4667C16.5511 10.5394 16.4984 10.744 16.5471 10.7654ZM12.7604 11.7627C12.7604 11.7687 12.8171 11.8174 12.8838 11.7787C13.0238 11.7247 13.1118 11.6727 13.3078 11.6294C13.3591 11.6287 13.3558 11.4907 13.2744 11.486C13.1684 11.4914 13.0698 11.4967 12.9638 11.5807C12.8984 11.5954 12.8878 11.556 12.8731 11.52C12.8571 11.4314 12.9098 11.37 12.8984 11.304C12.9024 11.308 12.8378 11.2487 12.7718 11.282C12.7685 11.282 12.6244 11.3794 12.5784 11.4474C12.5498 11.4694 12.5531 11.488 12.5618 11.5247C12.5838 11.5754 12.6231 11.56 12.6671 11.536C12.7258 11.528 12.7538 11.5667 12.7491 11.6367C12.7211 11.7254 12.7604 11.758 12.7604 11.7627ZM17.1278 11.8734C17.1058 11.9114 17.0911 11.9687 17.1591 11.9867C17.2844 12.022 17.5731 11.834 17.5731 11.8307C17.6198 11.7954 17.6044 11.7294 17.6004 11.7294C17.5731 11.698 17.5118 11.716 17.4704 11.7114C17.4511 11.7114 17.3858 11.7014 17.4171 11.644C17.4392 11.6131 17.4567 11.5792 17.4691 11.5434C17.4885 11.5 17.4718 11.4714 17.4011 11.448C17.3298 11.4347 17.3011 11.4414 17.2218 11.448C17.1791 11.4574 17.1644 11.476 17.1565 11.528C17.1598 11.6067 17.2071 11.6027 17.2564 11.634C17.2851 11.6707 17.3038 11.704 17.2544 11.7634C17.2078 11.8067 17.1751 11.8307 17.1278 11.8734ZM16.9998 15.3334H15.9998V15C15.9998 14.9116 15.9647 14.8269 15.9022 14.7643C15.8396 14.7018 15.7549 14.6667 15.6664 14.6667C15.578 14.6667 15.4933 14.7018 15.4307 14.7643C15.3682 14.8269 15.3331 14.9116 15.3331 15V15.3334H7.33312C7.33312 15.3334 7.33312 16 9.33312 16H15.3331V16.3334C15.3331 16.4218 15.3682 16.5066 15.4307 16.5691C15.4933 16.6316 15.578 16.6667 15.6664 16.6667C15.7549 16.6667 15.8396 16.6316 15.9022 16.5691C15.9647 16.5066 15.9998 16.4218 15.9998 16.3334V16H16.6664V16.3334C16.6664 16.4218 16.7016 16.5066 16.7641 16.5691C16.8266 16.6316 16.9114 16.6667 16.9998 16.6667C17.0882 16.6667 17.173 16.6316 17.2355 16.5691C17.298 16.5066 17.3331 16.4218 17.3331 16.3334V15.6667C17.3331 15.5783 17.298 15.4935 17.2355 15.431C17.173 15.3685 17.0882 15.3334 16.9998 15.3334Z" fill="white"/>
</g>
<defs>
<clipPath id="clip0_774_1371">
<rect width="24" height="24" fill="white"/>
</clipPath>
</defs>
</svg>
