<svg width="32" height="32" viewBox="0 0 32 32" fill="none" xmlns="http://www.w3.org/2000/svg">
<path fill-rule="evenodd" clip-rule="evenodd" d="M4.65422 0.544L0.544 4.65422H3.76533C4.00079 4.65329 4.22634 4.55933 4.39284 4.39284C4.55933 4.22634 4.65329 4.00079 4.65422 3.76533V0.544ZM11.2427 13.5324L16.3733 8.40178L15.5022 7.53067C15.348 7.37778 15.2429 7.18237 15.2004 6.96942C15.1578 6.75648 15.1797 6.53569 15.2633 6.33527C15.3469 6.13485 15.4884 5.96393 15.6697 5.84435C15.8509 5.72477 16.0637 5.66198 16.2809 5.664L20.6187 5.68178C20.9069 5.68271 21.1831 5.79764 21.387 6.00148C21.5908 6.20532 21.7057 6.48151 21.7067 6.76978V11.1076C21.707 11.3239 21.6432 11.5356 21.5233 11.7157C21.4034 11.8959 21.2329 12.0365 21.0332 12.1198C20.8335 12.2031 20.6135 12.2253 20.4012 12.1838C20.1888 12.1422 19.9936 12.0387 19.84 11.8862L18.9867 11.0151L12.5582 17.4436C12.2082 17.7902 11.7353 17.9845 11.2427 17.984C10.9989 17.9847 10.7573 17.9369 10.5321 17.8436C10.3069 17.7502 10.1025 17.613 9.93067 17.44L8.79289 16.3022L5.08089 20.0213C4.05689 21.0453 2.592 20.4409 2.10133 19.3458C1.9471 19.0269 1.89842 18.6672 1.96235 18.3188C2.02628 17.9704 2.19949 17.6514 2.45689 17.408L7.46667 12.3947C7.81531 12.0466 8.28781 11.8511 8.78044 11.8511C9.27308 11.8511 9.74558 12.0466 10.0942 12.3947L11.2284 13.5324H11.2427ZM17.1876 8.672L11.4987 14.3609C11.4262 14.4323 11.3285 14.4724 11.2267 14.4724C11.1249 14.4724 11.0272 14.4323 10.9547 14.3609L9.53244 12.9387C9.3273 12.735 9.04996 12.6207 8.76089 12.6207C8.47182 12.6207 8.19447 12.735 7.98933 12.9387L2.976 17.952C2.03733 18.8907 3.56622 20.416 4.50489 19.4773L8.53333 15.4916C8.60584 15.4201 8.70354 15.3801 8.80533 15.3801C8.90712 15.3801 9.00482 15.4201 9.07733 15.4916L10.4996 16.9138C10.7041 17.1185 10.9817 17.2336 11.2711 17.2338C11.4145 17.2341 11.5565 17.206 11.6889 17.151C11.8214 17.0961 11.9416 17.0155 12.0427 16.9138L18.7164 10.2009C18.7516 10.1648 18.7936 10.136 18.84 10.1164C18.8864 10.0968 18.9363 10.0867 18.9867 10.0867C19.0371 10.0867 19.0869 10.0968 19.1333 10.1164C19.1798 10.136 19.2218 10.1648 19.2569 10.2009L20.416 11.3564C20.4624 11.4044 20.5223 11.437 20.5877 11.45C20.6531 11.4629 20.721 11.4555 20.7821 11.4288C20.8432 11.4021 20.8947 11.3574 20.9297 11.3006C20.9647 11.2438 20.9814 11.1777 20.9778 11.1111L20.96 6.77333C20.9582 6.68715 20.9231 6.60499 20.8622 6.54404C20.8012 6.48308 20.7191 6.44804 20.6329 6.44622L16.2951 6.42844C16.2305 6.42852 16.1673 6.44774 16.1136 6.48369C16.0599 6.51964 16.018 6.5707 15.9933 6.63043C15.9685 6.69015 15.9621 6.75586 15.9746 6.81927C15.9872 6.88267 16.0183 6.94092 16.064 6.98667L17.2053 8.128C17.2768 8.20051 17.3168 8.29821 17.3168 8.4C17.3168 8.50179 17.2768 8.59949 17.2053 8.672H17.1876ZM5.35467 24.1315H3.05422V29.1662H5.35467V24.1315ZM2.67022 23.3636H5.73867C5.83929 23.3635 5.9359 23.403 6.00771 23.4735C6.07952 23.544 6.1208 23.6398 6.12267 23.7404V29.5502C6.12267 29.6521 6.08221 29.7497 6.0102 29.8217C5.93818 29.8938 5.84051 29.9342 5.73867 29.9342H2.67022C2.56867 29.9333 2.47153 29.8925 2.39972 29.8207C2.3279 29.7489 2.28715 29.6518 2.28622 29.5502V23.7404C2.28622 23.6386 2.32668 23.5409 2.39869 23.4689C2.47071 23.3969 2.56838 23.3564 2.67022 23.3564V23.3636ZM10.4391 19.5733H8.14222V29.1733H10.4391V19.5733ZM7.75822 18.8053C7.65638 18.8053 7.55871 18.8458 7.48669 18.9178C7.41468 18.9898 7.37422 19.0875 7.37422 19.1893V29.5502C7.37422 29.6521 7.41468 29.7497 7.48669 29.8217C7.55871 29.8938 7.65638 29.9342 7.75822 29.9342H10.8231C10.925 29.9342 11.0226 29.8938 11.0946 29.8217C11.1667 29.7497 11.2071 29.6521 11.2071 29.5502V19.1893C11.2071 19.0875 11.1667 18.9898 11.0946 18.9178C11.0226 18.8458 10.925 18.8053 10.8231 18.8053H7.75822ZM10.3111 0.984889C9.49815 0.980666 8.70222 1.21783 8.02416 1.66635C7.3461 2.11486 6.81641 2.75454 6.50221 3.50434C6.18801 4.25415 6.10343 5.08034 6.25918 5.87826C6.41493 6.67618 6.80401 7.40991 7.37712 7.98652C7.95023 8.56312 8.68159 8.95665 9.47855 9.11724C10.2755 9.27784 11.1022 9.19828 11.8539 8.88863C12.6056 8.57899 13.2485 8.05321 13.7011 7.37788C14.1537 6.70256 14.3957 5.90809 14.3964 5.09511C14.3974 4.00903 13.9681 2.96679 13.2024 2.19648C12.4368 1.42617 11.3972 0.99053 10.3111 0.984889ZM10.6667 4.87467L13.3476 6.42489C13.5539 5.94661 13.6456 5.42673 13.6153 4.90672C13.585 4.38672 13.4336 3.88099 13.1732 3.42989C12.9128 2.97878 12.5505 2.5948 12.1153 2.30857C11.6801 2.02234 11.184 1.84179 10.6667 1.78133V4.87467ZM12.9636 7.08622L10.1191 5.43289C10.0547 5.39944 10.0013 5.34809 9.96531 5.28502C9.92936 5.22194 9.91239 5.14982 9.91644 5.07733V1.78133C9.36619 1.84419 8.84021 2.04295 8.38589 2.3597C7.93157 2.67645 7.56319 3.10125 7.31393 3.59583C7.06467 4.0904 6.94237 4.63922 6.95803 5.19284C6.97369 5.74645 7.12683 6.28748 7.40365 6.76717C7.68047 7.24686 8.07227 7.65016 8.54377 7.94072C9.01527 8.23128 9.55164 8.39999 10.1046 8.43164C10.6575 8.46329 11.2096 8.35688 11.7112 8.12202C12.2128 7.88715 12.648 7.5312 12.9778 7.08622H12.9636ZM20.6222 13.8027C19.4971 13.8027 18.3972 14.1363 17.4616 14.7614C16.5261 15.3865 15.797 16.275 15.3664 17.3145C14.9358 18.354 14.8231 19.4979 15.0426 20.6014C15.2621 21.7049 15.804 22.7186 16.5996 23.5142C17.3952 24.3098 18.4088 24.8516 19.5124 25.0711C20.6159 25.2906 21.7598 25.178 22.7993 24.7474C23.8388 24.3168 24.7273 23.5877 25.3524 22.6521C25.9775 21.7166 26.3111 20.6167 26.3111 19.4916C26.3111 17.9828 25.7117 16.5358 24.6449 15.4689C23.578 14.402 22.131 13.8027 20.6222 13.8027ZM15.5271 23.4596V29.1662H13.2267V22.144H14.7342C14.9447 22.6128 15.211 23.0545 15.5271 23.4596ZM20.6116 25.9484C19.825 25.9455 19.0456 25.7997 18.3111 25.5182V29.1662H20.6222V25.9662L20.6116 25.9484ZM16.064 14.9262C15.2357 15.7541 14.6476 16.7913 14.3627 17.9273C14.0778 19.0632 14.1067 20.2552 14.4462 21.376H12.8427C12.7911 21.3741 12.7396 21.3826 12.6913 21.401C12.6431 21.4195 12.5991 21.4475 12.5619 21.4833C12.5247 21.5192 12.4952 21.5621 12.475 21.6097C12.4548 21.6572 12.4444 21.7083 12.4444 21.76V29.5502C12.4444 29.6521 12.4849 29.7497 12.5569 29.8217C12.6289 29.8938 12.7266 29.9342 12.8284 29.9342H15.8969C15.9987 29.9342 16.0964 29.8938 16.1684 29.8217C16.2404 29.7497 16.2809 29.6521 16.2809 29.5502V24.288C16.6661 24.6294 17.0911 24.9231 17.5467 25.1627V29.5502C17.5467 29.6521 17.5871 29.7497 17.6591 29.8217C17.7311 29.8938 17.8288 29.9342 17.9307 29.9342H20.9956C21.0974 29.9342 21.1951 29.8938 21.2671 29.8217C21.3391 29.7497 21.3796 29.6521 21.3796 29.5502V25.9129C22.1799 25.8231 22.9558 25.5818 23.6658 25.2018V30.9475C23.6648 31.183 23.5709 31.4086 23.4044 31.5751C23.2379 31.7416 23.0123 31.8355 22.7769 31.8364H0.888889C0.653429 31.8355 0.42788 31.7416 0.261384 31.5751C0.0948874 31.4086 0.000936233 31.183 0 30.9475V5.42222H3.76533C4.20448 5.42128 4.62537 5.24642 4.93589 4.93589C5.24642 4.62537 5.42128 4.20448 5.42222 3.76533V0H22.7769C23.0123 0.000936233 23.2379 0.0948874 23.4044 0.261384C23.5709 0.42788 23.6648 0.653429 23.6658 0.888889V13.7849C22.4444 13.1344 21.0464 12.8935 19.6777 13.0977C18.3091 13.3019 17.0423 13.9404 16.064 14.9191V14.9262ZM20.6222 15.8827C19.9072 15.8841 19.2086 16.0974 18.6149 16.4958C18.0211 16.8941 17.5587 17.4596 17.2862 18.1206C17.0137 18.7817 16.9433 19.5087 17.0839 20.2098C17.2246 20.9108 17.5699 21.5545 18.0762 22.0593C18.5826 22.5642 19.2272 22.9076 19.9287 23.0461C20.6302 23.1847 21.357 23.1121 22.0172 22.8377C22.6775 22.5633 23.2416 22.0992 23.6381 21.5043C24.0347 20.9093 24.246 20.2101 24.2453 19.4951C24.2434 18.5358 23.8608 17.6164 23.1814 16.939C22.5021 16.2617 21.5816 15.8817 20.6222 15.8827ZM17.5253 16.3982C17.0133 16.9066 16.6348 17.5335 16.4234 18.2234C16.212 18.9133 16.1742 19.6447 16.3136 20.3526C16.4529 21.0606 16.7649 21.7232 17.222 22.2815C17.679 22.8398 18.2669 23.2766 18.9334 23.553C19.5998 23.8295 20.3243 23.937 21.0423 23.866C21.7603 23.7951 22.4497 23.5479 23.0492 23.1463C23.6487 22.7448 24.1397 22.2014 24.4787 21.5645C24.8176 20.9275 24.9939 20.2166 24.992 19.4951C24.988 18.6318 24.7293 17.789 24.2482 17.0722C23.7671 16.3554 23.085 15.7966 22.2876 15.4658C21.4902 15.1351 20.6129 15.0471 19.7657 15.213C18.9185 15.3789 18.1391 15.7912 17.5253 16.3982ZM27.4453 25.2693C27.2399 25.2706 27.0394 25.3323 26.8689 25.4468C26.6983 25.5613 26.5653 25.7235 26.4864 25.9131C26.4075 26.1028 26.3863 26.3115 26.4253 26.5132C26.4643 26.7148 26.5618 26.9006 26.7058 27.0471L30.2222 30.56C30.3679 30.7054 30.5534 30.8044 30.7553 30.8445C30.9573 30.8846 31.1665 30.864 31.3567 30.7852C31.5469 30.7065 31.7095 30.5732 31.824 30.4021C31.9385 30.231 31.9997 30.0299 32 29.824C32.0007 29.5434 31.8908 29.2739 31.6942 29.0738L28.1813 25.5609C28.0847 25.4644 27.9699 25.3881 27.8435 25.3362C27.7172 25.2843 27.5819 25.258 27.4453 25.2587V25.2693ZM26.1653 25.0311C26.0199 25.172 25.8997 25.3368 25.8098 25.5182L24.7431 24.4516C25.0546 24.2061 25.3416 23.9311 25.6 23.6302L26.6667 24.6969C26.4852 24.7868 26.3205 24.907 26.1796 25.0524L26.1653 25.0311ZM23.0542 19.4987C23.0827 18.8942 23.1004 18.3253 23.104 18.1867C23.111 18.1291 23.1047 18.0707 23.0857 18.016C23.0667 17.9612 23.0354 17.9115 22.9942 17.8707C22.953 17.8299 22.9031 17.799 22.8482 17.7804C22.7933 17.7619 22.7348 17.7561 22.6773 17.7636L21.3724 17.8133C21.3192 17.8106 21.266 17.8189 21.2162 17.8379C21.1664 17.8568 21.121 17.8859 21.0831 17.9233C21.0451 17.9608 21.0154 18.0057 20.9957 18.0552C20.976 18.1047 20.9669 18.1578 20.9689 18.2111C20.9709 18.2644 20.9839 18.3166 21.0072 18.3646C21.0305 18.4125 21.0635 18.4551 21.1041 18.4896C21.1448 18.5241 21.1921 18.5497 21.2432 18.5649C21.2943 18.5801 21.348 18.5845 21.4009 18.5778H21.7564L20.544 19.7938L20.0747 19.3244C20.0022 19.253 19.9045 19.213 19.8027 19.213C19.7009 19.213 19.6032 19.253 19.5307 19.3244L18.2684 20.576C18.2027 20.6489 18.1675 20.7443 18.1699 20.8424C18.1723 20.9405 18.2121 21.034 18.2813 21.1037C18.3505 21.1733 18.4437 21.2138 18.5419 21.2168C18.64 21.2199 18.7355 21.1852 18.8089 21.12L19.8044 20.1244L20.2667 20.5938C20.3392 20.6652 20.4369 20.7053 20.5387 20.7053C20.6405 20.7053 20.7382 20.6652 20.8107 20.5938L22.304 19.1182C22.304 19.2356 22.304 19.3564 22.304 19.4738C22.3083 19.5698 22.3485 19.6606 22.4165 19.7285C22.4845 19.7963 22.5756 19.8362 22.6716 19.8402C22.7676 19.8442 22.8616 19.8121 22.9351 19.7502C23.0085 19.6883 23.0561 19.6011 23.0684 19.5058L23.0542 19.4987Z" fill="#035EA2"/>
</svg>
