<svg width="27" height="26" viewBox="0 0 27 26" fill="none" xmlns="http://www.w3.org/2000/svg">
<path fill-rule="evenodd" clip-rule="evenodd" d="M3.39295 2.70254C3.3005 2.69431 3.21448 2.65177 3.15182 2.5833C3.08917 2.51482 3.05442 2.42537 3.05442 2.33255C3.05442 2.23974 3.08917 2.15028 3.15182 2.08181C3.21448 2.01333 3.3005 1.97079 3.39295 1.96256H7.88841C7.93976 1.95799 7.9915 1.96416 8.04034 1.98068C8.08918 1.99719 8.13405 2.0237 8.17208 2.0585C8.21012 2.0933 8.24049 2.13564 8.26128 2.18282C8.28206 2.23 8.29279 2.28099 8.29279 2.33255C8.29279 2.38411 8.28206 2.4351 8.26128 2.48228C8.24049 2.52946 8.21012 2.5718 8.17208 2.6066C8.13405 2.6414 8.08918 2.66791 8.04034 2.68442C7.9915 2.70094 7.93976 2.70711 7.88841 2.70254H3.39295ZM12.0387 1.18456C12.2655 1.18456 12.4872 1.2518 12.6757 1.37778C12.8643 1.50376 13.0112 1.68283 13.098 1.89233C13.1848 2.10183 13.2075 2.33236 13.1632 2.55477C13.119 2.77717 13.0098 2.98146 12.8495 3.14181C12.6891 3.30215 12.4848 3.41135 12.2624 3.45559C12.04 3.49983 11.8095 3.47712 11.6 3.39035C11.3905 3.30357 11.2114 3.15661 11.0854 2.96807C10.9595 2.77952 10.8922 2.55785 10.8922 2.33109C10.8922 2.02701 11.013 1.73538 11.228 1.52037C11.443 1.30535 11.7347 1.18456 12.0387 1.18456ZM15.2561 1.18456C15.4828 1.18456 15.7045 1.2518 15.893 1.37778C16.0816 1.50376 16.2285 1.68283 16.3153 1.89233C16.4021 2.10183 16.4248 2.33236 16.3806 2.55477C16.3363 2.77717 16.2271 2.98146 16.0668 3.14181C15.9064 3.30215 15.7021 3.41135 15.4797 3.45559C15.2573 3.49983 15.0268 3.47712 14.8173 3.39035C14.6078 3.30357 14.4287 3.15661 14.3027 2.96807C14.1768 2.77952 14.1095 2.55785 14.1095 2.33109C14.1103 2.02725 14.2313 1.73607 14.4462 1.52122C14.661 1.30637 14.9522 1.18533 15.2561 1.18456ZM18.4734 1.18456C18.7001 1.18456 18.9218 1.2518 19.1103 1.37778C19.2989 1.50376 19.4458 1.68283 19.5326 1.89233C19.6194 2.10183 19.6421 2.33236 19.5979 2.55477C19.5536 2.77717 19.4444 2.98146 19.2841 3.14181C19.1237 3.30215 18.9194 3.41135 18.697 3.45559C18.4746 3.49983 18.2441 3.47712 18.0346 3.39035C17.8251 3.30357 17.646 3.15661 17.5201 2.96807C17.3941 2.77952 17.3268 2.55785 17.3268 2.33109C17.3268 2.02752 17.4472 1.73633 17.6616 1.5214C17.876 1.30647 18.1669 1.18533 18.4704 1.18456H18.4734ZM3.39295 11.3045C3.3005 11.2962 3.21448 11.2537 3.15182 11.1852C3.08917 11.1167 3.05442 11.0273 3.05442 10.9345C3.05442 10.8417 3.08917 10.7522 3.15182 10.6837C3.21448 10.6152 3.3005 10.5727 3.39295 10.5645H7.88841C7.93976 10.5599 7.9915 10.5661 8.04034 10.5826C8.08918 10.5991 8.13405 10.6256 8.17208 10.6604C8.21012 10.6952 8.24049 10.7376 8.26128 10.7847C8.28206 10.8319 8.29279 10.8829 8.29279 10.9345C8.29279 10.986 8.28206 11.037 8.26128 11.0842C8.24049 11.1314 8.21012 11.1737 8.17208 11.2085C8.13405 11.2433 8.08918 11.2698 8.04034 11.2863C7.9915 11.3029 7.93976 11.309 7.88841 11.3045H3.39295ZM15.2561 9.78355C15.4829 9.78355 15.7047 9.85087 15.8933 9.97698C16.0819 10.1031 16.2289 10.2823 16.3156 10.492C16.4023 10.7017 16.4248 10.9324 16.3803 11.1548C16.3359 11.3773 16.2264 11.5816 16.0657 11.7418C15.9051 11.9021 15.7005 12.011 15.4779 12.0549C15.2553 12.0989 15.0247 12.0757 14.8153 11.9885C14.6058 11.9013 14.427 11.7539 14.3013 11.5649C14.1757 11.376 14.1089 11.154 14.1095 10.9272C14.1103 10.6236 14.2314 10.3327 14.4464 10.1183C14.6613 9.90394 14.9525 9.78355 15.2561 9.78355ZM18.4734 9.78355C18.7002 9.78355 18.922 9.85087 19.1106 9.97698C19.2993 10.1031 19.4462 10.2823 19.5329 10.492C19.6196 10.7017 19.6421 10.9324 19.5976 11.1548C19.5532 11.3773 19.4437 11.5816 19.283 11.7418C19.1224 11.9021 18.9178 12.011 18.6952 12.0549C18.4726 12.0989 18.242 12.0757 18.0326 11.9885C17.8231 11.9013 17.6443 11.7539 17.5186 11.5649C17.393 11.376 17.3263 11.154 17.3268 10.9272C17.3268 10.6239 17.4473 10.333 17.6618 10.1185C17.8763 9.90404 18.1671 9.78355 18.4704 9.78355H18.4734ZM3.39295 19.9064C3.3005 19.8982 3.21448 19.8556 3.15182 19.7871C3.08917 19.7187 3.05442 19.6292 3.05442 19.5364C3.05442 19.4436 3.08917 19.3541 3.15182 19.2856C3.21448 19.2172 3.3005 19.1746 3.39295 19.1664H7.88841C7.93976 19.1618 7.9915 19.168 8.04034 19.1845C8.08918 19.201 8.13405 19.2275 8.17208 19.2623C8.21012 19.2971 8.24049 19.3395 8.26128 19.3867C8.28206 19.4338 8.29279 19.4848 8.29279 19.5364C8.29279 19.5879 8.28206 19.6389 8.26128 19.6861C8.24049 19.7333 8.21012 19.7756 8.17208 19.8104C8.13405 19.8452 8.08918 19.8717 8.04034 19.8883C7.9915 19.9048 7.93976 19.911 7.88841 19.9064H3.39295ZM12.0387 18.3913C12.2655 18.3913 12.4872 18.4586 12.6757 18.5845C12.8643 18.7105 13.0112 18.8896 13.098 19.0991C13.1848 19.3086 13.2075 19.5391 13.1632 19.7615C13.119 19.9839 13.0098 20.1882 12.8495 20.3486C12.6891 20.5089 12.4848 20.6181 12.2624 20.6624C12.04 20.7066 11.8095 20.6839 11.6 20.5971C11.3905 20.5103 11.2114 20.3634 11.0854 20.1748C10.9595 19.9863 10.8922 19.7646 10.8922 19.5379C10.8918 19.3872 10.9212 19.2379 10.9787 19.0986C11.0362 18.9594 11.1206 18.8328 11.2272 18.7263C11.3337 18.6197 11.4602 18.5353 11.5995 18.4778C11.7388 18.4203 11.8881 18.3909 12.0387 18.3913ZM15.2561 18.3913C15.4828 18.3913 15.7045 18.4586 15.893 18.5845C16.0816 18.7105 16.2285 18.8896 16.3153 19.0991C16.4021 19.3086 16.4248 19.5391 16.3806 19.7615C16.3363 19.9839 16.2271 20.1882 16.0668 20.3486C15.9064 20.5089 15.7021 20.6181 15.4797 20.6624C15.2573 20.7066 15.0268 20.6839 14.8173 20.5971C14.6078 20.5103 14.4287 20.3634 14.3027 20.1748C14.1768 19.9863 14.1095 19.7646 14.1095 19.5379C14.1095 19.2338 14.2303 18.9421 14.4453 18.7271C14.6603 18.5121 14.952 18.3913 15.2561 18.3913ZM18.4734 18.3913C18.7001 18.3913 18.9218 18.4586 19.1103 18.5845C19.2989 18.7105 19.4458 18.8896 19.5326 19.0991C19.6194 19.3086 19.6421 19.5391 19.5979 19.7615C19.5536 19.9839 19.4444 20.1882 19.2841 20.3486C19.1237 20.5089 18.9194 20.6181 18.697 20.6624C18.4746 20.7066 18.2441 20.6839 18.0346 20.5971C17.8251 20.5103 17.646 20.3634 17.5201 20.1748C17.3941 19.9863 17.3268 19.7646 17.3268 19.5379C17.3264 19.3872 17.3558 19.2379 17.4133 19.0986C17.4708 18.9594 17.5552 18.8328 17.6618 18.7263C17.7683 18.6197 17.8949 18.5353 18.0341 18.4778C18.1734 18.4203 18.3227 18.3909 18.4734 18.3913ZM26.8179 24.0713L23.273 18.6312C22.9396 18.6593 22.6169 18.7625 22.3292 18.9333C22.0415 19.104 21.7962 19.3377 21.6117 19.6168L24.5863 25.3729C25.0776 26.3264 26.6336 26.1801 26.9554 25.019C27.0006 24.8603 27.0117 24.6938 26.988 24.5305C26.9643 24.3671 26.9064 24.2107 26.8179 24.0713ZM14.867 7.86194H18.3973V6.7622C17.7642 6.6724 17.1189 6.72448 16.5084 6.91468C15.8978 7.10488 15.3372 7.42844 14.867 7.86194ZM14.13 13.2641H19.9212C20.1555 13.2641 20.3805 13.1723 20.5479 13.0082C20.7152 12.8441 20.8116 12.621 20.8162 12.3866V9.49107C20.8108 9.257 20.7143 9.03427 20.5471 8.87036C20.3799 8.70645 20.1553 8.61432 19.9212 8.61362H14.2294C13.7693 9.29786 13.5152 10.0999 13.4976 10.9243C13.48 11.7487 13.6995 12.5608 14.13 13.2641ZM18.4061 15.2822V14.0041H14.6916C15.164 14.4952 15.7463 14.8672 16.3905 15.0894C17.0348 15.3116 17.7226 15.3777 18.3973 15.2822H18.4061ZM19.3947 4.96636C17.9944 4.59338 16.508 4.71761 15.1891 5.31788C13.8701 5.91815 12.8001 6.95729 12.1616 8.25817C11.5231 9.55904 11.3555 11.0411 11.6874 12.4517C12.0193 13.8623 12.8302 15.1142 13.9818 15.9938C15.1334 16.8735 16.5544 17.3265 18.0027 17.2757C19.4509 17.2248 20.8367 16.6732 21.9238 15.715C23.0109 14.7567 23.732 13.4511 23.9641 12.0207C24.1963 10.5903 23.9252 9.1236 23.197 7.87071C22.3639 6.43747 20.9966 5.39303 19.3947 4.96636ZM11.5474 7.86194H3.09754V5.39631H13.6269C12.753 6.04298 12.0428 6.88542 11.5532 7.85609L11.5474 7.86194ZM11.1584 13.2641C10.6493 11.7519 10.672 10.1112 11.2227 8.61362H1.57078C1.33665 8.61432 1.11205 8.70645 0.94486 8.87036C0.777672 9.03427 0.681119 9.257 0.675781 9.49107V12.3662C0.680377 12.6005 0.776695 12.8237 0.944045 12.9877C1.11139 13.1518 1.33642 13.2437 1.57078 13.2436L11.1584 13.2641ZM13.39 16.4814H3.09754V14.0041H11.4596C11.9096 14.9598 12.5694 15.8016 13.39 16.4668V16.4814ZM14.8524 4.6768C15.7179 4.27468 16.6564 4.05328 17.6103 4.02612C18.5643 3.99897 19.5138 4.16663 20.4008 4.51886C20.5282 4.4377 20.633 4.32574 20.7056 4.19333C20.7782 4.06092 20.8162 3.91234 20.8162 3.76133V0.894997C20.8154 0.657867 20.7208 0.430668 20.5532 0.262991C20.3855 0.0953128 20.1583 0.000771163 19.9212 0H1.57078C1.33365 0.000771163 1.10645 0.0953128 0.938772 0.262991C0.771094 0.430668 0.676552 0.657867 0.675781 0.894997V3.76718C0.676552 4.00431 0.771094 4.23151 0.938772 4.39919C1.10645 4.56686 1.33365 4.66141 1.57078 4.66218L14.8524 4.6768ZM20.8074 19.1255L19.9796 17.6806C18.6936 18.1066 17.3112 18.1483 16.0019 17.8005C15.4832 17.6626 14.9818 17.4664 14.5073 17.2155H1.57078C1.33565 17.2163 1.1102 17.3092 0.942848 17.4744C0.775499 17.6395 0.67961 17.8637 0.675781 18.0988V20.9739C0.676552 21.2111 0.771094 21.4383 0.938772 21.606C1.10645 21.7736 1.33365 21.8682 1.57078 21.8689H19.9212C20.1583 21.8682 20.3855 21.7736 20.5532 21.606C20.7208 21.4383 20.8154 21.2111 20.8162 20.9739V19.1108L20.8074 19.1255ZM22.612 18.0082C22.1733 18.1433 21.7725 18.3797 21.4421 18.6984L20.6787 17.3881C20.9027 17.2861 21.1213 17.1729 21.3338 17.0488C21.5181 16.9406 21.6994 16.8236 21.872 16.7008L22.612 18.0082ZM18.8097 6.08657C17.6017 5.83355 16.3428 6.03451 15.2736 6.65106C14.6949 6.9825 14.188 7.42575 13.7822 7.955C13.3765 8.48425 13.0801 9.08893 12.9103 9.73383C12.6928 10.5642 12.6907 11.4364 12.9041 12.2679C13.1175 13.0993 13.5394 13.8627 14.1299 14.4857C14.7205 15.1087 15.4601 15.5709 16.279 15.8285C17.0978 16.0861 17.9689 16.1306 18.8097 15.9579C19.3486 15.8462 19.8661 15.6487 20.3423 15.3729C21.1988 14.8679 21.8867 14.1208 22.3195 13.2257C22.7523 12.3306 22.9107 11.3275 22.7747 10.3425C22.6387 9.35764 22.2143 8.43498 21.5551 7.69067C20.8959 6.94637 20.0313 6.4137 19.07 6.15969L18.8097 6.08657Z" fill="#167CC8"/>
</svg>
