<svg width="20" height="21" viewBox="0 0 20 21" fill="none" xmlns="http://www.w3.org/2000/svg">
<path d="M19.0002 19.5977L14.6572 15.2547M14.6572 15.2547C15.4001 14.5119 15.9894 13.6299 16.3914 12.6593C16.7935 11.6887 17.0004 10.6483 17.0004 9.59774C17.0004 8.54714 16.7935 7.50682 16.3914 6.53619C15.9894 5.56556 15.4001 4.68363 14.6572 3.94074C13.9143 3.19785 13.0324 2.60856 12.0618 2.20651C11.0911 1.80447 10.0508 1.59753 9.00021 1.59753C7.9496 1.59753 6.90929 1.80447 5.93866 2.20651C4.96803 2.60856 4.08609 3.19785 3.34321 3.94074C1.84288 5.44107 1 7.47595 1 9.59774C1 11.7195 1.84288 13.7544 3.34321 15.2547C4.84354 16.7551 6.87842 17.5979 9.00021 17.5979C11.122 17.5979 13.1569 16.7551 14.6572 15.2547Z" stroke="#5F5F5F" stroke-width="1.5" stroke-linecap="round" stroke-linejoin="round"/>
</svg>
