<svg width="24" height="26" viewBox="0 0 24 26" fill="none" xmlns="http://www.w3.org/2000/svg">
<path d="M9.6 4.9002H14.4C14.4 4.26368 14.1471 3.65323 13.6971 3.20314C13.247 2.75305 12.6365 2.5002 12 2.5002C11.3635 2.5002 10.753 2.75305 10.3029 3.20314C9.85286 3.65323 9.6 4.26368 9.6 4.9002ZM7.8 4.9002C7.8 4.34864 7.90864 3.80249 8.11971 3.29293C8.33078 2.78336 8.64015 2.32035 9.03015 1.93035C9.42016 1.54034 9.88316 1.23097 10.3927 1.0199C10.9023 0.808832 11.4484 0.700195 12 0.700195C12.5516 0.700195 13.0977 0.808832 13.6073 1.0199C14.1168 1.23097 14.5798 1.54034 14.9698 1.93035C15.3599 2.32035 15.6692 2.78336 15.8803 3.29293C16.0914 3.80249 16.2 4.34864 16.2 4.9002H23.1C23.3387 4.9002 23.5676 4.99502 23.7364 5.1638C23.9052 5.33258 24 5.5615 24 5.8002C24 6.03889 23.9052 6.26781 23.7364 6.43659C23.5676 6.60537 23.3387 6.7002 23.1 6.7002H21.516L20.112 21.2334C20.0043 22.347 19.4857 23.3805 18.6572 24.1324C17.8288 24.8843 16.75 25.3006 15.6312 25.3002H8.3688C7.25024 25.3003 6.17172 24.8839 5.34354 24.132C4.51536 23.3801 3.99688 22.3468 3.8892 21.2334L2.484 6.7002H0.9C0.661305 6.7002 0.432387 6.60537 0.263604 6.43659C0.094821 6.26781 0 6.03889 0 5.8002C0 5.5615 0.094821 5.33258 0.263604 5.1638C0.432387 4.99502 0.661305 4.9002 0.9 4.9002H7.8ZM10.2 10.6002C10.2 10.3615 10.1052 10.1326 9.9364 9.9638C9.76761 9.79502 9.5387 9.7002 9.3 9.7002C9.06131 9.7002 8.83239 9.79502 8.6636 9.9638C8.49482 10.1326 8.4 10.3615 8.4 10.6002V19.6002C8.4 19.8389 8.49482 20.0678 8.6636 20.2366C8.83239 20.4054 9.06131 20.5002 9.3 20.5002C9.5387 20.5002 9.76761 20.4054 9.9364 20.2366C10.1052 20.0678 10.2 19.8389 10.2 19.6002V10.6002ZM14.7 9.7002C14.9387 9.7002 15.1676 9.79502 15.3364 9.9638C15.5052 10.1326 15.6 10.3615 15.6 10.6002V19.6002C15.6 19.8389 15.5052 20.0678 15.3364 20.2366C15.1676 20.4054 14.9387 20.5002 14.7 20.5002C14.4613 20.5002 14.2324 20.4054 14.0636 20.2366C13.8948 20.0678 13.8 19.8389 13.8 19.6002V10.6002C13.8 10.3615 13.8948 10.1326 14.0636 9.9638C14.2324 9.79502 14.4613 9.7002 14.7 9.7002ZM5.6808 21.0606C5.74552 21.7286 6.05669 22.3485 6.55364 22.7995C7.05059 23.2506 7.6977 23.5003 8.3688 23.5002H15.6312C16.3023 23.5003 16.9494 23.2506 17.4464 22.7995C17.9433 22.3485 18.2545 21.7286 18.3192 21.0606L19.7088 6.7002H4.2912L5.6808 21.0606Z" fill="#D35252"/>
</svg>
