<svg width="24" height="20" viewBox="0 0 24 20" fill="#55ACEE" xmlns="http://www.w3.org/2000/svg">
<g clip-path="url(#clip0_654_3068)">
<path d="M23.9986 2.44634C23.1 2.84444 22.1469 3.10575 21.1708 3.22158C22.1875 2.61227 22.968 1.64739 23.3356 0.497754C22.3692 1.07125 21.3118 1.47531 20.2093 1.69248C19.3111 0.735668 18.0317 0.137695 16.6155 0.137695C13.8965 0.137695 11.692 2.34211 11.692 5.06096C11.692 5.4469 11.7355 5.82261 11.8194 6.18304C7.72766 5.97766 4.09989 4.01763 1.67153 1.03892C1.24782 1.76607 1.00503 2.61189 1.00503 3.51405C1.00503 5.2222 1.87429 6.72908 3.19529 7.61203C2.41344 7.58754 1.6488 7.37637 0.965195 6.99615C0.964914 7.01677 0.964914 7.0374 0.964914 7.05811C0.964914 9.44354 2.662 11.4335 4.91422 11.8858C4.18921 12.0829 3.42873 12.1118 2.69087 11.9701C3.31734 13.9261 5.13563 15.3495 7.28998 15.3893C5.60499 16.7098 3.48204 17.4969 1.17546 17.4969C0.777994 17.4969 0.386158 17.4736 0.000976562 17.4281C2.1798 18.825 4.7677 19.6401 7.54805 19.6401C16.6041 19.6401 21.5561 12.1379 21.5561 5.63194C21.5561 5.4184 21.5514 5.20608 21.5419 4.99497C22.5057 4.29818 23.3377 3.43514 23.9986 2.44634Z" fill="#55ACEE"/>
</g>
<defs>
<clipPath id="clip0_654_3068">
<rect width="24" height="19.5918" fill="white" transform="translate(0 0.0605469)"/>
</clipPath>
</defs>
</svg>
