<svg width="24" height="25" viewBox="0 0 24 25" fill="none" xmlns="http://www.w3.org/2000/svg">
<g clip-path="url(#clip0_654_3071)">
<path d="M0.691517 12.5331C0.690959 14.5495 1.21784 16.5184 2.2197 18.2539L0.595703 24.1834L6.6638 22.5923C8.34215 23.506 10.2226 23.9847 12.1336 23.9849H12.1386C18.447 23.9849 23.5821 18.8516 23.5848 12.5421C23.586 9.48468 22.3964 6.6097 20.2351 4.44673C18.0742 2.28394 15.2003 1.09222 12.1381 1.09082C5.82901 1.09082 0.694215 6.22384 0.69161 12.5331" fill="url(#paint0_linear_654_3071)"/>
<path d="M0.28264 12.5294C0.281989 14.6184 0.827757 16.6578 1.86534 18.4554L0.183105 24.5974L6.46878 22.9493C8.20069 23.8936 10.1506 24.3915 12.1348 24.3922H12.1399C18.6746 24.3922 23.9943 19.0742 23.9971 12.5389C23.9982 9.37164 22.7658 6.39332 20.5273 4.15285C18.2885 1.91266 15.3118 0.67806 12.1399 0.676758C5.60413 0.676758 0.285245 5.99397 0.28264 12.5294ZM4.02599 18.1458L3.79129 17.7732C2.80469 16.2045 2.28394 14.3916 2.28469 12.5302C2.28673 7.09806 6.70757 2.67862 12.1437 2.67862C14.7762 2.67973 17.2503 3.70597 19.1111 5.56792C20.9718 7.43006 21.9958 9.90541 21.9951 12.5382C21.9927 17.9702 17.5718 22.3902 12.1399 22.3902H12.136C10.3674 22.3893 8.63278 21.9143 7.12004 21.0168L6.76004 20.8033L3.02999 21.7812L4.02599 18.1458Z" fill="url(#paint1_linear_654_3071)"/>
<path d="M9.17663 7.57446C8.95468 7.08116 8.72109 7.07121 8.51003 7.06256C8.33719 7.05512 8.13961 7.05567 7.94221 7.05567C7.74463 7.05567 7.42361 7.13 7.15226 7.42628C6.88063 7.72284 6.11523 8.43949 6.11523 9.89707C6.11523 11.3547 7.17691 12.7634 7.32491 12.9613C7.47309 13.1587 9.37449 16.2456 12.3858 17.4332C14.8885 18.42 15.3978 18.2238 15.941 18.1743C16.4843 18.125 17.6939 17.4578 17.9407 16.766C18.1877 16.0743 18.1877 15.4813 18.1137 15.3574C18.0396 15.234 17.842 15.1599 17.5457 15.0118C17.2494 14.8636 15.7928 14.1468 15.5213 14.048C15.2497 13.9492 15.0522 13.8999 14.8546 14.1965C14.657 14.4927 14.0897 15.1599 13.9167 15.3574C13.744 15.5555 13.571 15.5801 13.2749 15.432C12.9784 15.2833 12.0243 14.9708 10.8923 13.9616C10.0115 13.1763 9.41691 12.2066 9.24407 11.9099C9.07123 11.6137 9.22556 11.4532 9.37412 11.3055C9.50723 11.1728 9.67049 10.9596 9.81877 10.7867C9.96649 10.6136 10.0158 10.4902 10.1146 10.2926C10.2135 10.0948 10.164 9.92181 10.09 9.77363C10.0158 9.62544 9.44007 8.16023 9.17663 7.57446Z" fill="white"/>
</g>
<defs>
<linearGradient id="paint0_linear_654_3071" x1="1150.05" y1="2310.35" x2="1150.05" y2="1.09082" gradientUnits="userSpaceOnUse">
<stop stop-color="#1FAF38"/>
<stop offset="1" stop-color="#60D669"/>
</linearGradient>
<linearGradient id="paint1_linear_654_3071" x1="1190.88" y1="2392.74" x2="1190.88" y2="0.676758" gradientUnits="userSpaceOnUse">
<stop stop-color="#F9F9F9"/>
<stop offset="1" stop-color="white"/>
</linearGradient>
<clipPath id="clip0_654_3071">
<rect width="23.82" height="24" fill="white" transform="translate(0.180176 0.676758)"/>
</clipPath>
</defs>
</svg>
